<?xml version="1.0" encoding="UTF-8"?> <svg xmlns="http://www.w3.org/2000/svg" width="24" height="24" viewBox="0 0 24 24" fill="none"> <rect width="24" height="24" rx="8" fill="white"></rect> <path d="M12.208 6.01318H14.333V8.69739C14.333 9.76524 13.8852 10.7893 13.0882 11.5444C12.2912 12.2995 11.2102 12.7237 10.083 12.7237C8.95584 12.7237 7.87483 12.2995 7.0778 11.5444C6.28077 10.7893 5.83301 9.76524 5.83301 8.69739V6.01318H7.95801" stroke="#174FE5" stroke-width="1.78947" stroke-linecap="round" stroke-linejoin="round"></path> <path d="M10.083 12.7237V15.7434C10.0821 16.1402 10.1639 16.5333 10.3237 16.9001C10.4836 17.2669 10.7184 17.6001 11.0145 17.8807C11.3107 18.1613 11.6625 18.3837 12.0496 18.5351C12.4368 18.6865 12.8517 18.7641 13.2705 18.7632V18.7632C13.6894 18.7641 14.1043 18.6865 14.4914 18.5351C14.8786 18.3837 15.2303 18.1613 15.5265 17.8807C15.8227 17.6001 16.0574 17.2669 16.2173 16.9001C16.3771 16.5333 16.459 16.1402 16.458 15.7434V14.0658" stroke="#174FE5" stroke-width="1.78947" stroke-linecap="round" stroke-linejoin="round"></path> <path d="M16.4587 14.0658C17.2411 14.0658 17.8753 13.4649 17.8753 12.7237C17.8753 11.9825 17.2411 11.3816 16.4587 11.3816C15.6763 11.3816 15.042 11.9825 15.042 12.7237C15.042 13.4649 15.6763 14.0658 16.4587 14.0658Z" stroke="#174FE5" stroke-width="1.78947" stroke-linecap="round" stroke-linejoin="round"></path> </svg> 