<?xml version="1.0" encoding="UTF-8"?> <svg xmlns="http://www.w3.org/2000/svg" width="66" height="19" viewBox="0 0 66 19" fill="none"> <path d="M5.49786 16.1154C6.3691 16.1154 6.98498 15.8847 7.3455 15.4231C7.70602 14.9462 7.87125 14.2693 7.84121 13.3923V6.65388H11.0183V13.4847C11.0183 14.3308 10.9356 15.0539 10.7704 15.6539C10.6202 16.2539 10.3573 16.8 9.98177 17.2923C9.69636 17.6616 9.38091 17.9462 9.03542 18.1462C8.70494 18.3462 8.34443 18.5154 7.95387 18.6539C7.57833 18.777 7.17275 18.8616 6.73713 18.9077C6.31653 18.9693 5.90344 19 5.49786 19C4.56653 19 3.71781 18.8693 2.95172 18.6077C2.18562 18.3462 1.54721 17.9077 1.03648 17.2923C0.645923 16.8 0.375537 16.2539 0.225322 15.6539C0.0751074 15.0539 0 14.3308 0 13.4847V6.65388H3.17704V13.3923C3.16202 14.2693 3.34228 14.9385 3.71781 15.4C4.09335 15.8616 4.6867 16.1 5.49786 16.1154Z" fill="#174FE5"></path> <path d="M16.6891 8.20004C17.6505 7.01542 18.8372 6.41542 20.2492 6.40003C21.0153 6.38465 21.6913 6.51542 22.2771 6.79234C22.863 7.05388 23.3362 7.41542 23.6967 7.87696C24.1323 8.41542 24.4327 9.04619 24.598 9.76927C24.7632 10.477 24.8458 11.2693 24.8458 12.1462V18.8154H21.6462V12.4C21.6462 11.9693 21.6012 11.5616 21.511 11.177C21.4359 10.777 21.3007 10.4385 21.1055 10.1616C20.9102 9.86927 20.6473 9.65388 20.3168 9.51542C20.0014 9.37696 19.6409 9.30773 19.2353 9.30773C18.7246 9.32311 18.2889 9.4385 17.9284 9.65388C17.5829 9.86927 17.3201 10.1462 17.1398 10.4847C16.9595 10.8077 16.8319 11.177 16.7567 11.5923C16.6967 11.9923 16.6666 12.4 16.6666 12.8154V18.8154H13.4896V6.65388H16.5314L16.6891 8.20004Z" fill="#174FE5"></path> <path d="M30.6435 18.8154H27.4664V6.65388H30.6435V18.8154Z" fill="#174FE5"></path> <path d="M41.2911 6.65388H44.7836L40.4124 18.8154H36.4242L32.0755 6.65388H35.5905L38.4521 15.677L41.2911 6.65388Z" fill="#174FE5"></path> <path d="M51.4634 16.3462C51.914 16.3462 52.2971 16.277 52.6125 16.1385C52.943 15.9847 53.2134 15.7385 53.4237 15.4H56.7585C56.5932 16.0308 56.3378 16.577 55.9924 17.0385C55.6619 17.5 55.2563 17.877 54.7756 18.1693C54.31 18.4616 53.7917 18.677 53.2209 18.8154C52.6501 18.9385 52.0492 19 51.4183 19C49.4956 19 48.0385 18.4462 47.0471 17.3385C46.0707 16.2308 45.5825 14.677 45.5825 12.677C45.5825 11.7693 45.7102 10.9308 45.9655 10.1616C46.2359 9.39234 46.6114 8.73081 47.0921 8.17696C47.5728 7.60773 48.1662 7.16927 48.8722 6.86157C49.5932 6.55388 50.4119 6.40003 51.3282 6.40003C52.3947 6.40003 53.3185 6.59234 54.0997 6.97696C54.8808 7.36157 55.4967 7.89234 55.9473 8.56927C56.413 9.2308 56.7209 10.0077 56.8711 10.9C57.0364 11.7923 57.0364 12.7462 56.8711 13.7616H48.7595C48.8196 14.4847 49.0675 15.1 49.5031 15.6077C49.9387 16.1 50.5921 16.3462 51.4634 16.3462ZM53.9194 11.5231C53.9194 11.1385 53.8518 10.8 53.7166 10.5077C53.5814 10.2 53.4012 9.95388 53.1758 9.76927C52.9505 9.56927 52.6801 9.42311 52.3647 9.33081C52.0642 9.2385 51.7488 9.19234 51.4183 9.19234C50.6222 9.20773 49.9988 9.43081 49.5481 9.86157C49.1125 10.277 48.8572 10.8308 48.7821 11.5231H53.9194Z" fill="#174FE5"></path> <path d="M63.1609 9.49234V14.4077C63.1609 15.4539 63.6792 15.977 64.7157 15.977H65.8873V18.8154H64.4002C62.823 18.877 61.6888 18.5693 60.9979 17.8923C60.3219 17.2154 59.9839 16.1923 59.9839 14.8231V9.49234H58.1813V6.65388H59.9839V3.35388H63.1609V6.65388H66V9.49234H63.1609Z" fill="#174FE5"></path> <path d="M30.6875 3.5C30.2375 3.94117 29 5 29 5C29 5 27.7625 3.94117 27.3125 3.5C26.2625 2.4706 26 2.06863 26 1.33333C26 0.59804 26.6 0 27.5 0C28.25 0 28.7 0.441177 29 0.882353C29.3 0.441177 29.75 0 30.5 0C31.4 0 32 0.59804 32 1.33333C32 2.06863 31.7375 2.4706 30.6875 3.5Z" fill="#174FE5"></path> </svg> 