<svg width="178" height="134" viewBox="0 0 178 134" fill="none" xmlns="http://www.w3.org/2000/svg">
<path d="M36.04 112.384L44.104 112.528V133.408H36.04V112.384ZM36.76 110.8V23.104L43.24 22.096V111.088L36.76 110.8ZM36.04 0.639992H44.104V21.232L36.04 22.24V0.639992ZM68.152 37.216C67 35.872 65.464 34.576 63.544 33.328C61.624 32.08 59.464 30.976 57.064 30.016C54.664 28.96 52.024 28.144 49.144 27.568C46.36 26.896 43.432 26.56 40.36 26.56C32.488 26.56 26.68 28.048 22.936 31.024C19.192 34 17.32 38.08 17.32 43.264C17.32 46.912 18.28 49.792 20.2 51.904C22.12 54.016 25.048 55.744 28.984 57.088C33.016 58.432 38.104 59.824 44.248 61.264C51.352 62.8 57.496 64.672 62.68 66.88C67.864 69.088 71.848 72.064 74.632 75.808C77.416 79.456 78.808 84.352 78.808 90.496C78.808 95.392 77.848 99.664 75.928 103.312C74.104 106.864 71.512 109.84 68.152 112.24C64.792 114.544 60.856 116.272 56.344 117.424C51.832 118.48 46.936 119.008 41.656 119.008C36.472 119.008 31.384 118.48 26.392 117.424C21.496 116.272 16.84 114.64 12.424 112.528C8.008 110.416 3.88 107.776 0.04 104.608L6.232 93.664C7.768 95.296 9.736 96.928 12.136 98.56C14.632 100.096 17.416 101.536 20.488 102.88C23.656 104.224 27.064 105.328 30.712 106.192C34.36 106.96 38.104 107.344 41.944 107.344C49.24 107.344 54.904 106.048 58.936 103.456C62.968 100.768 64.984 96.88 64.984 91.792C64.984 87.952 63.832 84.88 61.528 82.576C59.32 80.272 56.008 78.352 51.592 76.816C47.176 75.28 41.8 73.744 35.464 72.208C28.552 70.48 22.744 68.608 18.04 66.592C13.336 64.48 9.784 61.744 7.384 58.384C5.08 55.024 3.928 50.656 3.928 45.28C3.928 38.752 5.512 33.232 8.68 28.72C11.848 24.208 16.216 20.8 21.784 18.496C27.352 16.192 33.64 15.04 40.648 15.04C45.256 15.04 49.528 15.52 53.464 16.48C57.496 17.44 61.24 18.784 64.696 20.512C68.152 22.24 71.32 24.304 74.2 26.704L68.152 37.216ZM134.258 119.44C127.25 119.248 121.058 117.568 115.682 114.4C110.306 111.232 105.794 107.104 102.146 102.016C98.5941 96.832 95.9061 91.264 94.0821 85.312C92.2581 79.264 91.3461 73.36 91.3461 67.6C91.3461 61.456 92.3061 55.312 94.2261 49.168C96.2421 43.024 99.1221 37.456 102.866 32.464C106.61 27.376 111.122 23.344 116.402 20.368C121.682 17.296 127.634 15.76 134.258 15.76C141.362 15.76 147.554 17.392 152.834 20.656C158.21 23.92 162.674 28.144 166.226 33.328C169.874 38.512 172.61 44.128 174.434 50.176C176.258 56.224 177.17 62.032 177.17 67.6C177.17 73.84 176.162 80.032 174.146 86.176C172.226 92.224 169.394 97.744 165.65 102.736C161.906 107.728 157.394 111.76 152.114 114.832C146.834 117.808 140.882 119.344 134.258 119.44ZM104.45 67.6C104.642 72.304 105.362 77.008 106.61 81.712C107.858 86.416 109.73 90.736 112.226 94.672C114.722 98.608 117.794 101.776 121.442 104.176C125.09 106.576 129.362 107.776 134.258 107.776C139.346 107.776 143.762 106.528 147.506 104.032C151.25 101.44 154.322 98.128 156.722 94.096C159.218 89.968 161.042 85.6 162.194 80.992C163.442 76.288 164.066 71.824 164.066 67.6C164.066 62.896 163.394 58.192 162.05 53.488C160.802 48.784 158.882 44.464 156.29 40.528C153.698 36.592 150.578 33.424 146.93 31.024C143.282 28.624 139.058 27.424 134.258 27.424C129.17 27.424 124.754 28.72 121.01 31.312C117.266 33.808 114.146 37.12 111.65 41.248C109.25 45.28 107.426 49.648 106.178 54.352C105.026 58.96 104.45 63.376 104.45 67.6Z" fill="#E07A5F"/>
</svg>
