<svg width="224" height="174" viewBox="0 0 224 174" fill="none" xmlns="http://www.w3.org/2000/svg">
<path d="M28 16C24 26.8 23 47.1667 23 56C41.3333 54.1667 75.2 47.4 64 35C52.8 22.6 35.3333 17.1667 28 16Z" fill="#F0F0F2"/>
<path d="M184.221 0C188.221 10.8 189.221 31.1667 189.221 40C170.888 38.1667 137.021 31.4 148.221 19C159.421 6.6 176.888 1.16667 184.221 0Z" fill="#F0F0F2"/>
<path d="M129.5 172.498C76.4999 178.496 25.9999 159.5 7.99988 133.5C-13.5001 109.349 16.5 48.4979 38.5 39.998C60.5 31.4981 145.5 1.00149 182.5 20.4997C219.5 39.998 226.5 70.496 222 102.998C217.5 135.5 182.5 166.5 129.5 172.498Z" fill="#F0F0F2"/>
</svg>
