<svg width="427" height="455" viewBox="0 0 427 455" fill="none" xmlns="http://www.w3.org/2000/svg">
<path d="M384.912 101.991L382.644 98.264C363.565 66.8205 329.075 47.8696 292.701 50.167C288.02 50.459 283.366 51.0984 278.779 52.0798C245.709 59.1593 216.937 84.1642 205.007 116.17C197.986 135.012 196.034 156.694 182.723 171.642C165.399 191.106 135.986 191.717 110.124 190.909C84.2609 190.1 54.8387 190.79 37.5936 210.323C26.7476 222.559 23.3656 239.952 24.2431 256.34C26.5504 299.724 56.7811 338.503 95.2351 357.779C133.689 377.056 178.927 378.791 220.999 370.311C279.933 358.43 335.987 325.803 369.668 275.409C403.35 225.014 411.869 156.379 384.912 101.991Z" fill="#F5F5F5"/>
<path d="M426.561 435.89C426.561 436.038 331.155 436.147 213.496 436.147C95.8364 436.147 0.411377 436.038 0.411377 435.89C0.411377 435.742 95.797 435.634 213.496 435.634C331.195 435.634 426.561 435.752 426.561 435.89Z" fill="#263238"/>
<path d="M320.122 0.748535H104.868V435.89H320.122V0.748535Z" fill="#F5F5F5"/>
<path d="M320.132 435.89C320.132 433.652 320.023 254.643 319.885 0.748493L320.132 0.985133H104.908L105.164 0.728772C105.164 168.802 105.164 321.958 105.105 435.87L104.908 435.683L320.171 435.87L104.908 436.067H104.72V435.87C104.72 321.958 104.72 168.802 104.651 0.728772V0.472412H320.368V0.718912C320.23 254.643 320.132 433.662 320.132 435.89Z" fill="#263238"/>
<path d="M304.868 15.9624H120.141V420.735H304.868V15.9624Z" fill="#455A64"/>
<g opacity="0.1">
<path opacity="0.1" d="M281.096 99.6442C276.758 89.3109 266.661 81.0877 255.46 80.8609C247.769 80.7031 238.649 83.671 233.295 78.1395C228.365 73.0419 230.83 64.3355 235.267 58.8041C238.047 55.3629 241.469 52.4444 243.875 48.737C246.28 45.0296 247.513 40.0996 245.442 36.1951C243.066 31.6398 237.298 30.2298 232.22 29.4903C219.116 27.6169 203.518 27.4098 190.808 32.2215C166.513 39.3503 147.907 66.4258 145.373 91.628C144.387 101.33 144.328 108.134 151.585 114.661C159.581 121.859 171.561 121.74 182.319 121.198L207.57 119.956C211.248 119.768 215.133 119.63 218.416 121.366C225.081 124.925 225.663 134.765 222.045 141.411C218.426 148.057 211.968 152.494 206.584 157.798C201.2 163.103 196.369 170.222 197.71 177.666C198.765 183.582 203.754 188.414 209.493 190.346C215.231 192.279 221.571 191.697 227.359 189.912C242.336 185.318 253.863 173.427 263.614 161.171C270.585 152.405 277.113 143.058 280.889 132.508C284.665 121.957 285.464 109.987 281.096 99.6442Z" fill="white"/>
</g>
<path d="M171.384 75.1915C167.991 75.1944 164.663 74.2623 161.766 72.4974C158.868 70.7324 156.513 68.2031 154.959 65.1871C153.406 62.1712 152.713 58.7853 152.958 55.4015C153.203 52.0176 154.375 48.7667 156.347 46.0059C154.163 47.5628 152.345 49.5771 151.019 51.9083C149.693 54.2395 148.89 56.8318 148.668 59.5046C148.446 62.1775 148.808 64.8666 149.731 67.385C150.654 69.9034 152.114 72.1904 154.011 74.0869C155.907 75.9834 158.194 77.4438 160.713 78.3665C163.231 79.2892 165.92 79.652 168.593 79.4295C171.266 79.2071 173.858 78.4049 176.189 77.0787C178.521 75.7525 180.535 73.9342 182.092 71.7503C178.971 73.9906 175.225 75.1942 171.384 75.1915Z" fill="white"/>
<path d="M177.99 80.5849C177.732 80.825 177.443 81.0305 177.132 81.1962C176.32 81.6994 175.465 82.1315 174.578 82.4879C171.624 83.6733 168.428 84.1299 165.261 83.8189C162.088 83.4951 159.042 82.4019 156.387 80.6342C155.585 80.1085 154.829 79.5147 154.129 78.8594C153.858 78.6399 153.622 78.3806 153.429 78.0903C153.488 78.0114 154.543 79.0763 156.584 80.3285C159.223 81.9729 162.203 82.9914 165.297 83.3058C168.39 83.6203 171.515 83.2225 174.431 82.1428C176.659 81.3244 177.911 80.5159 177.99 80.5849Z" fill="white"/>
<path d="M171.315 85.7713C168.503 86.4957 165.528 86.224 162.894 85.0023C162.944 84.8544 164.768 85.3967 167.085 85.6037C169.402 85.8108 171.295 85.6136 171.315 85.7713Z" fill="white"/>
<path d="M224.943 420.42L160.203 420.696V215.785H224.943V420.42Z" fill="#263238"/>
<path d="M224.943 420.686L192.573 420.814V215.785H224.943V420.686Z" fill="#263238"/>
<path d="M190.463 195.641H167.598V215.785H190.463V195.641Z" fill="#263238"/>
<path d="M190.463 195.641H185.01V215.785H190.463V195.641Z" fill="#263238"/>
<path d="M154.799 215.785V214.612H226.846V215.785" fill="#263238"/>
<path d="M178.463 224.571H172.981V236.126H178.463V224.571Z" fill="#455A64"/>
<path d="M192.573 240.662C192.573 240.79 185.326 240.889 176.383 240.889C167.44 240.889 160.203 240.79 160.203 240.662C160.203 240.534 167.45 240.445 176.383 240.445C185.316 240.445 192.573 240.544 192.573 240.662Z" fill="#455A64"/>
<path d="M211.12 224.571H205.637V236.126H211.12V224.571Z" fill="#455A64"/>
<path d="M225.229 240.662C225.229 240.79 217.982 240.889 209.039 240.889C200.096 240.889 192.859 240.79 192.859 240.662C192.859 240.534 200.096 240.445 209.039 240.445C217.982 240.445 225.229 240.544 225.229 240.662Z" fill="#455A64"/>
<path d="M211.12 247.515H205.637V259.071H211.12V247.515Z" fill="#455A64"/>
<path d="M225.229 263.606C225.229 263.734 217.982 263.833 209.039 263.833C200.096 263.833 192.859 263.734 192.859 263.606C192.859 263.478 200.096 263.389 209.039 263.389C217.982 263.389 225.229 263.488 225.229 263.606Z" fill="#455A64"/>
<path d="M211.12 271.149H205.637V282.705H211.12V271.149Z" fill="#F5F5F5"/>
<path d="M225.229 287.241C225.229 287.369 217.982 287.467 209.039 287.467C200.096 287.467 192.859 287.369 192.859 287.241C192.859 287.112 200.096 287.024 209.039 287.024C217.982 287.024 225.229 287.122 225.229 287.241Z" fill="#455A64"/>
<path d="M211.12 294.793H205.637V306.349H211.12V294.793Z" fill="#455A64"/>
<path d="M225.229 310.885C225.229 311.003 217.982 311.102 209.039 311.102C200.096 311.102 192.859 311.003 192.859 310.885C192.859 310.767 200.096 310.658 209.039 310.658C217.982 310.658 225.229 310.757 225.229 310.885Z" fill="#455A64"/>
<path d="M211.12 317.748H205.637V329.303H211.12V317.748Z" fill="#455A64"/>
<path d="M225.229 333.839C225.229 333.967 217.982 334.066 209.039 334.066C200.096 334.066 192.859 333.967 192.859 333.839C192.859 333.711 200.096 333.622 209.039 333.622C217.982 333.622 225.229 333.721 225.229 333.839Z" fill="#455A64"/>
<path d="M211.12 340.8H205.637V352.356H211.12V340.8Z" fill="#455A64"/>
<path d="M211.12 364.158H205.637V375.714H211.12V364.158Z" fill="#455A64"/>
<path d="M225.229 356.892C225.229 357.02 217.982 357.119 209.039 357.119C200.096 357.119 192.859 357.02 192.859 356.892C192.859 356.764 200.096 356.675 209.039 356.675C217.982 356.675 225.229 356.773 225.229 356.892Z" fill="#455A64"/>
<path d="M211.12 386.038H205.637V397.594H211.12V386.038Z" fill="#455A64"/>
<path d="M211.129 420.755H205.647L205.637 409.386H211.12L211.129 420.755Z" fill="#455A64"/>
<path d="M225.229 402.129C225.229 402.248 217.982 402.346 209.039 402.346C200.096 402.346 192.859 402.248 192.859 402.129C192.859 402.011 200.096 401.903 209.039 401.903C217.982 401.903 225.229 402.001 225.229 402.129Z" fill="#455A64"/>
<path d="M225.229 381.828C225.229 381.946 217.982 382.044 209.039 382.044C200.096 382.044 192.859 381.946 192.859 381.828C192.859 381.709 200.096 381.611 209.039 381.611C217.982 381.611 225.229 381.709 225.229 381.828Z" fill="#455A64"/>
<path d="M178.463 247.87H172.981V259.426H178.463V247.87Z" fill="#F5F5F5"/>
<path d="M192.573 263.961C192.573 264.079 185.326 264.178 176.383 264.178C167.44 264.178 160.203 264.079 160.203 263.961C160.203 263.843 167.45 263.734 176.383 263.734C185.316 263.734 192.573 263.833 192.573 263.961Z" fill="#455A64"/>
<path d="M178.463 271.159H172.981V282.715H178.463V271.159Z" fill="#455A64"/>
<path d="M192.573 287.251C192.573 287.379 185.326 287.477 176.383 287.477C167.44 287.477 160.203 287.379 160.203 287.251C160.203 287.122 167.45 287.034 176.383 287.034C185.316 287.034 192.573 287.132 192.573 287.251Z" fill="#455A64"/>
<path d="M178.463 294.458H172.981V306.014H178.463V294.458Z" fill="#455A64"/>
<path d="M192.573 310.55C192.573 310.668 185.326 310.767 176.383 310.767C167.44 310.767 160.203 310.668 160.203 310.55C160.203 310.431 167.45 310.323 176.383 310.323C185.316 310.323 192.573 310.422 192.573 310.55Z" fill="#455A64"/>
<path d="M178.463 317.748H172.981V329.303H178.463V317.748Z" fill="#455A64"/>
<path d="M192.573 333.839C192.573 333.967 185.326 334.066 176.383 334.066C167.44 334.066 160.203 333.967 160.203 333.839C160.203 333.711 167.45 333.622 176.383 333.622C185.316 333.622 192.573 333.721 192.573 333.839Z" fill="#455A64"/>
<path d="M178.463 341.047H172.981V352.603H178.463V341.047Z" fill="#455A64"/>
<path d="M192.573 357.138C192.573 357.256 185.326 357.355 176.383 357.355C167.44 357.355 160.203 357.256 160.203 357.138C160.203 357.02 167.45 356.911 176.383 356.911C185.316 356.911 192.573 357.01 192.573 357.138Z" fill="#455A64"/>
<path d="M178.463 364.336H172.981V375.892H178.463V364.336Z" fill="#455A64"/>
<path d="M191.133 420.696H120.427L120.122 308.952H190.818L191.133 420.696Z" fill="#263238"/>
<path d="M190.818 308.952H155.47V420.696H190.818V308.952Z" fill="#263238"/>
<path d="M153.153 286.955H128.187V308.952H153.153V286.955Z" fill="#263238"/>
<path d="M192.888 307.671H120.398V308.952H192.888V307.671Z" fill="#263238"/>
<path d="M140.059 318.546H134.074V331.167H140.059V318.546Z" fill="#455A64"/>
<path d="M155.47 336.126C155.47 336.255 147.582 336.363 137.791 336.363C128 336.363 120.122 336.255 120.122 336.126C120.122 335.998 128.01 335.88 137.791 335.88C147.572 335.88 155.47 335.988 155.47 336.126Z" fill="#455A64"/>
<path d="M175.722 318.546H169.737V331.167H175.722V318.546Z" fill="#455A64"/>
<path d="M191.133 336.126C191.133 336.255 183.245 336.363 173.454 336.363C163.663 336.363 155.775 336.255 155.775 336.126C155.775 335.998 163.663 335.88 173.454 335.88C183.245 335.88 191.133 335.988 191.133 336.126Z" fill="#455A64"/>
<path d="M175.722 343.6H169.737V356.221H175.722V343.6Z" fill="#455A64"/>
<path d="M191.133 361.181C191.133 361.309 183.245 361.418 173.454 361.418C163.663 361.418 155.775 361.309 155.775 361.181C155.775 361.053 163.663 360.934 173.454 360.934C183.245 360.934 191.133 361.043 191.133 361.181Z" fill="#455A64"/>
<path d="M175.722 369.414H169.737V382.035H175.722V369.414Z" fill="#455A64"/>
<path d="M191.133 386.984C191.133 387.122 183.245 387.231 173.454 387.231C163.663 387.231 155.775 387.122 155.775 386.984C155.775 386.846 163.663 386.748 173.454 386.748C183.245 386.748 191.133 386.856 191.133 386.984Z" fill="#455A64"/>
<path d="M175.722 395.227H169.737V407.848H175.722V395.227Z" fill="#F5F5F5"/>
<path d="M191.133 412.798C191.133 412.926 183.245 413.035 173.454 413.035C163.663 413.035 155.775 412.926 155.775 412.798C155.775 412.67 163.663 412.561 173.454 412.561C183.245 412.561 191.133 412.66 191.133 412.798Z" fill="#455A64"/>
<path d="M140.059 343.985H134.074V356.606H140.059V343.985Z" fill="#F5F5F5"/>
<path d="M155.47 361.526C155.47 361.664 147.582 361.772 137.791 361.772C128 361.772 120.122 361.664 120.122 361.526C120.122 361.388 128.01 361.289 137.791 361.289C147.572 361.289 155.47 361.427 155.47 361.526Z" fill="#455A64"/>
<path d="M140.059 369.424H134.074V382.045H140.059V369.424Z" fill="#455A64"/>
<path d="M155.47 386.994C155.47 387.132 147.582 387.241 137.791 387.241C128 387.241 120.122 387.132 120.122 386.994C120.122 386.856 128.01 386.758 137.791 386.758C147.572 386.758 155.47 386.866 155.47 386.994Z" fill="#455A64"/>
<path d="M140.059 394.863H134.074V407.483H140.059V394.863Z" fill="#455A64"/>
<path d="M155.47 412.433C155.47 412.561 147.582 412.67 137.791 412.67C128 412.67 120.122 412.561 120.122 412.433C120.122 412.305 128.01 412.197 137.791 412.197C147.572 412.197 155.47 412.305 155.47 412.433Z" fill="#455A64"/>
<path d="M146.27 307.73C146.011 304.404 145.925 301.067 146.014 297.732C145.925 294.397 146.011 291.06 146.27 287.734C146.524 291.06 146.61 294.397 146.527 297.732C146.61 301.067 146.524 304.403 146.27 307.73Z" fill="#455A64"/>
<path d="M185.227 213.567C184.974 210.738 184.888 207.897 184.971 205.058C184.888 202.219 184.973 199.377 185.227 196.548C185.481 199.377 185.567 202.219 185.484 205.058C185.567 207.897 185.481 210.738 185.227 213.567Z" fill="#455A64"/>
<path d="M194.752 214.267C194.752 214.405 188.698 214.523 181.234 214.523C173.77 214.523 167.716 214.405 167.716 214.267C167.716 214.129 173.77 214.01 181.234 214.01C188.698 214.01 194.752 214.119 194.752 214.267Z" fill="#455A64"/>
<path d="M224.943 216.357C224.943 216.505 210.469 216.614 192.612 216.614C174.756 216.614 160.281 216.505 160.281 216.357C160.281 216.209 174.756 216.101 192.612 216.101C210.469 216.101 224.943 216.219 224.943 216.357Z" fill="#455A64"/>
<path d="M192.593 419.453C192.445 419.453 192.336 374.097 192.336 318.073C192.336 262.048 192.445 216.683 192.593 216.683C192.741 216.683 192.849 262.039 192.849 318.073C192.849 374.107 192.78 419.453 192.593 419.453Z" fill="#455A64"/>
<path d="M120.398 307.671C120.519 307.656 120.642 307.656 120.763 307.671H121.828L125.919 307.621L140.986 307.542L190.818 307.464H191.074V307.72C191.074 308.075 191.074 308.459 191.074 308.844C191.074 309.071 191.074 309.307 191.074 309.514V309.771H190.808L140.66 309.692L125.486 309.613L121.364 309.564H120.289H119.925H120.289H121.364H125.486L140.66 309.485L190.808 309.406L190.552 309.662V307.868L190.808 308.124L140.976 308.045L125.91 307.966L121.818 307.917H120.753L120.398 307.671Z" fill="#455A64"/>
<path d="M155.47 420.686C155.332 420.686 155.273 395.908 155.342 365.342C155.411 334.776 155.588 309.998 155.736 309.998C155.884 309.998 155.933 334.776 155.854 365.352C155.775 395.927 155.608 420.686 155.47 420.686Z" fill="#455A64"/>
<path d="M191.133 420.686C190.985 420.686 190.867 395.642 190.857 364.76C190.847 333.878 190.956 308.824 191.094 308.824C191.232 308.824 191.36 333.869 191.37 364.76C191.38 395.651 191.271 420.686 191.133 420.686Z" fill="#455A64"/>
<path d="M299.041 420.469L218.988 420.696V314.878H299.041V420.469Z" fill="#263238"/>
<path d="M261.514 314.878V420.469L299.041 420.696V314.878H261.514Z" fill="#263238"/>
<path d="M242.977 329.175H235.78V346.667H242.977V329.175Z" fill="#455A64"/>
<path d="M242.977 397.614H235.78V415.105H242.977V397.614Z" fill="#455A64"/>
<path d="M261.514 353.529C261.514 353.717 251.989 353.884 240.256 353.884C228.523 353.884 218.998 353.717 218.998 353.529C218.998 353.342 228.513 353.165 240.256 353.165C251.999 353.165 261.514 353.332 261.514 353.529Z" fill="#455A64"/>
<path d="M242.977 363.656H235.78V381.147H242.977V363.656Z" fill="#F5F5F5"/>
<path d="M261.514 388.01C261.514 388.197 251.989 388.365 240.256 388.365C228.523 388.365 218.998 388.197 218.998 388.01C218.998 387.823 228.513 387.645 240.256 387.645C251.999 387.645 261.514 387.813 261.514 388.01Z" fill="#455A64"/>
<path d="M276.679 329.175H269.481V346.667H276.679V329.175Z" fill="#F5F5F5"/>
<path d="M292.297 329.175H285.099V346.667H292.297V329.175Z" fill="#455A64"/>
<path d="M276.679 362.354H269.481V379.846H276.679V362.354Z" fill="#455A64"/>
<path d="M292.297 362.354H285.099V379.846H292.297V362.354Z" fill="#455A64"/>
<path d="M276.679 395.543H269.481V413.035H276.679V395.543Z" fill="#455A64"/>
<path d="M292.297 395.543H285.099V413.035H292.297V395.543Z" fill="#455A64"/>
<path d="M305.066 311.92H212.973V315.726H305.066V311.92Z" fill="#263238"/>
<path d="M305.066 315.726C305.057 315.648 305.057 315.568 305.066 315.49C305.066 315.312 305.066 315.085 305.066 314.78C305.066 314.139 305.066 313.202 305.066 311.92L305.135 311.989C294.358 312.098 257.185 312.177 213.052 312.177L213.308 311.92V315.707L213.052 315.45L278.217 315.559L297.937 315.637H303.291H304.691H305.184H304.73H303.36H298.065L278.454 315.716L213.092 315.825H212.835V311.782L213.092 311.526C257.225 311.526 294.397 311.605 305.174 311.713H305.184V311.782C305.184 313.084 305.184 314.03 305.184 314.681C305.184 314.977 305.184 315.204 305.184 315.371C305.157 315.494 305.118 315.613 305.066 315.726Z" fill="#455A64"/>
<path d="M261.514 420.686C261.366 420.686 261.258 397.288 261.258 368.428C261.258 339.568 261.366 316.17 261.514 316.17C261.662 316.17 261.771 339.558 261.771 368.428C261.771 397.298 261.652 420.686 261.514 420.686Z" fill="#455A64"/>
<path d="M218.998 419.532C218.85 419.532 218.731 396.558 218.731 368.26C218.731 339.962 218.85 316.988 218.998 316.988C219.146 316.988 219.254 339.952 219.254 368.26C219.254 396.568 219.136 419.532 218.998 419.532Z" fill="#455A64"/>
<path d="M194.841 112.719H194.683C194.611 112.751 194.547 112.8 194.496 112.86C194.445 112.921 194.409 112.993 194.39 113.07C194.371 113.147 194.37 113.227 194.386 113.305C194.403 113.382 194.437 113.455 194.486 113.517C194.542 113.577 194.612 113.623 194.689 113.649C194.767 113.675 194.85 113.682 194.931 113.668C195.012 113.654 195.088 113.62 195.153 113.569C195.217 113.518 195.268 113.452 195.3 113.376C195.333 113.301 195.346 113.218 195.338 113.137C195.331 113.055 195.303 112.976 195.257 112.908C195.211 112.84 195.149 112.784 195.077 112.746C195.004 112.707 194.923 112.688 194.841 112.689V112.719Z" fill="white"/>
<path d="M233.62 55.4023H233.453C233.376 55.4304 233.308 55.477 233.254 55.5379C233.199 55.5989 233.161 55.6723 233.142 55.7517C233.124 55.831 233.125 55.9137 233.146 55.9925C233.167 56.0713 233.207 56.1436 233.263 56.203C233.319 56.2624 233.389 56.307 233.466 56.3328C233.543 56.3587 233.626 56.365 233.706 56.3511C233.786 56.3372 233.862 56.3036 233.926 56.2533C233.99 56.2031 234.041 56.1376 234.074 56.063C234.094 55.9894 234.098 55.9122 234.086 55.8368C234.073 55.7614 234.044 55.6897 234.001 55.6268C233.958 55.5638 233.901 55.511 233.836 55.4723C233.77 55.4335 233.696 55.4096 233.62 55.4023Z" fill="white"/>
<path d="M287.081 92.9197H286.914C286.837 92.9477 286.769 92.9943 286.714 93.0553C286.66 93.1162 286.622 93.1897 286.603 93.269C286.585 93.3483 286.586 93.4311 286.607 93.5098C286.628 93.5886 286.668 93.6609 286.724 93.7203C286.78 93.7797 286.849 93.8243 286.927 93.8502C287.004 93.876 287.087 93.8823 287.167 93.8684C287.247 93.8545 287.323 93.821 287.387 93.7707C287.451 93.7204 287.502 93.655 287.535 93.5803C287.555 93.5067 287.559 93.4295 287.547 93.3541C287.534 93.2788 287.505 93.2071 287.462 93.1441C287.419 93.0811 287.362 93.0284 287.297 92.9896C287.231 92.9508 287.157 92.927 287.081 92.9197Z" fill="white"/>
<path d="M264.659 151.212H264.492C264.37 151.233 264.261 151.299 264.185 151.397C264.11 151.495 264.074 151.617 264.084 151.74C264.095 151.863 264.151 151.978 264.242 152.061C264.333 152.145 264.452 152.191 264.576 152.191C264.699 152.191 264.818 152.145 264.909 152.061C265 151.978 265.056 151.863 265.067 151.74C265.077 151.617 265.041 151.495 264.966 151.397C264.89 151.299 264.781 151.233 264.659 151.212Z" fill="white"/>
<path d="M287.249 219.719H287.081C287.004 219.748 286.936 219.794 286.882 219.855C286.828 219.916 286.79 219.989 286.771 220.069C286.752 220.148 286.753 220.231 286.774 220.31C286.795 220.388 286.836 220.461 286.891 220.52C286.947 220.579 287.017 220.624 287.094 220.65C287.172 220.676 287.254 220.682 287.334 220.668C287.415 220.654 287.49 220.621 287.555 220.57C287.619 220.52 287.67 220.455 287.702 220.38C287.723 220.307 287.727 220.229 287.714 220.154C287.702 220.079 287.673 220.007 287.63 219.944C287.586 219.881 287.53 219.828 287.464 219.789C287.398 219.751 287.325 219.727 287.249 219.719Z" fill="white"/>
<path d="M138.146 92.5747H137.988C137.916 92.6072 137.852 92.6557 137.801 92.7166C137.75 92.7775 137.714 92.8491 137.695 92.926C137.676 93.003 137.675 93.0832 137.691 93.1607C137.708 93.2382 137.742 93.311 137.791 93.3734C137.849 93.4281 137.918 93.4686 137.994 93.4917C138.071 93.5148 138.151 93.5198 138.229 93.5064C138.308 93.493 138.382 93.4616 138.446 93.4145C138.511 93.3675 138.563 93.3061 138.599 93.2353C138.62 93.1617 138.624 93.0845 138.611 93.0092C138.599 92.9338 138.57 92.8621 138.527 92.7991C138.483 92.7361 138.427 92.6834 138.361 92.6446C138.295 92.6059 138.222 92.582 138.146 92.5747Z" fill="white"/>
<path d="M285.267 39.5771H285.099C284.98 39.5981 284.873 39.6629 284.8 39.7588C284.726 39.8547 284.691 39.9746 284.702 40.095C284.712 40.2154 284.768 40.3275 284.857 40.4092C284.946 40.4908 285.062 40.5361 285.183 40.5361C285.304 40.5361 285.42 40.4908 285.509 40.4092C285.599 40.3275 285.654 40.2154 285.664 40.095C285.675 39.9746 285.64 39.8547 285.566 39.7588C285.493 39.6629 285.386 39.5981 285.267 39.5771Z" fill="white"/>
<path d="M256.712 233.09H256.555C256.435 233.109 256.327 233.173 256.253 233.269C256.178 233.365 256.142 233.485 256.152 233.606C256.162 233.727 256.217 233.839 256.306 233.922C256.395 234.004 256.512 234.049 256.634 234.049C256.755 234.049 256.872 234.004 256.961 233.922C257.05 233.839 257.105 233.727 257.115 233.606C257.125 233.485 257.089 233.365 257.014 233.269C256.94 233.173 256.832 233.109 256.712 233.09Z" fill="white"/>
<path d="M286.963 290.208H286.795C286.674 290.229 286.564 290.295 286.489 290.393C286.413 290.491 286.377 290.613 286.388 290.736C286.398 290.859 286.455 290.974 286.546 291.057C286.637 291.141 286.756 291.187 286.879 291.187C287.002 291.187 287.121 291.141 287.212 291.057C287.303 290.974 287.36 290.859 287.37 290.736C287.381 290.613 287.345 290.491 287.269 290.393C287.194 290.295 287.084 290.229 286.963 290.208Z" fill="white"/>
<path d="M146.625 268.132H146.458C146.381 268.16 146.313 268.206 146.259 268.267C146.205 268.328 146.166 268.402 146.148 268.481C146.129 268.56 146.13 268.643 146.151 268.722C146.172 268.801 146.212 268.873 146.268 268.932C146.324 268.992 146.394 269.036 146.471 269.062C146.548 269.088 146.631 269.094 146.711 269.081C146.792 269.067 146.867 269.033 146.931 268.983C146.995 268.933 147.046 268.867 147.079 268.792C147.099 268.719 147.104 268.642 147.091 268.566C147.078 268.491 147.05 268.419 147.006 268.356C146.963 268.293 146.907 268.241 146.841 268.202C146.775 268.163 146.701 268.139 146.625 268.132Z" fill="white"/>
<path d="M184.557 155.196H184.389C184.316 155.226 184.252 155.274 184.201 155.334C184.15 155.394 184.114 155.466 184.096 155.543C184.077 155.619 184.077 155.699 184.096 155.776C184.114 155.853 184.151 155.924 184.202 155.984C184.257 156.047 184.326 156.094 184.404 156.122C184.483 156.151 184.566 156.159 184.649 156.146C184.731 156.133 184.808 156.099 184.874 156.049C184.939 155.998 184.991 155.931 185.024 155.855C185.057 155.779 185.07 155.695 185.063 155.613C185.055 155.53 185.026 155.451 184.98 155.382C184.933 155.313 184.87 155.257 184.796 155.22C184.722 155.182 184.64 155.163 184.557 155.166V155.196Z" fill="white"/>
<path d="M277.034 128.682H276.866C276.79 128.71 276.721 128.757 276.667 128.817C276.613 128.878 276.575 128.952 276.556 129.031C276.537 129.111 276.538 129.193 276.559 129.272C276.58 129.351 276.621 129.423 276.677 129.483C276.732 129.542 276.802 129.587 276.879 129.612C276.957 129.638 277.039 129.645 277.12 129.631C277.2 129.617 277.276 129.583 277.34 129.533C277.404 129.483 277.455 129.417 277.487 129.343C277.508 129.269 277.512 129.192 277.499 129.116C277.487 129.041 277.458 128.969 277.415 128.906C277.372 128.843 277.315 128.791 277.249 128.752C277.183 128.713 277.11 128.689 277.034 128.682Z" fill="white"/>
<path d="M142.277 174.649H142.119C142.047 174.682 141.983 174.73 141.932 174.791C141.882 174.852 141.845 174.924 141.826 175.001C141.807 175.078 141.806 175.158 141.823 175.235C141.839 175.313 141.873 175.385 141.922 175.448C141.978 175.508 142.048 175.553 142.126 175.58C142.204 175.606 142.287 175.612 142.368 175.598C142.449 175.584 142.525 175.55 142.589 175.499C142.654 175.449 142.704 175.382 142.737 175.307C142.769 175.231 142.782 175.149 142.774 175.067C142.767 174.985 142.739 174.907 142.693 174.839C142.648 174.77 142.586 174.714 142.513 174.676C142.44 174.638 142.359 174.619 142.277 174.62V174.649Z" fill="white"/>
<path d="M212.046 194.961H211.879C211.807 194.994 211.744 195.044 211.695 195.105C211.645 195.166 211.61 195.238 211.592 195.315C211.574 195.392 211.573 195.472 211.591 195.549C211.608 195.626 211.642 195.698 211.692 195.76C211.751 195.812 211.821 195.85 211.898 195.872C211.974 195.893 212.054 195.896 212.132 195.882C212.21 195.868 212.283 195.836 212.347 195.789C212.411 195.742 212.463 195.682 212.5 195.612C212.521 195.539 212.525 195.462 212.512 195.387C212.5 195.312 212.471 195.241 212.427 195.179C212.384 195.117 212.327 195.065 212.261 195.027C212.196 194.989 212.122 194.967 212.046 194.961Z" fill="white"/>
<path d="M137.041 224.817L137.475 225.547C137.974 226.353 138.688 227.005 139.536 227.43L140.295 227.804L139.566 228.248C138.746 228.745 138.083 229.462 137.653 230.319L137.278 231.088L136.834 230.358C136.345 229.533 135.625 228.868 134.764 228.445L133.995 228.071L134.734 227.627C135.553 227.133 136.214 226.414 136.637 225.556L137.041 224.817Z" fill="white"/>
<path d="M153.024 122.381L153.468 123.121C153.962 123.944 154.685 124.606 155.549 125.024L156.308 125.408L155.578 125.842C154.758 126.342 154.095 127.063 153.665 127.923L153.291 128.682L152.847 127.952C152.353 127.133 151.634 126.473 150.776 126.049L150.007 125.665L150.737 125.221C151.563 124.732 152.227 124.012 152.65 123.15L153.024 122.381Z" fill="white"/>
<path d="M195.738 42.8606L196.182 43.6001C196.676 44.4191 197.395 45.0795 198.252 45.5031L199.021 45.8876L198.292 46.3215C197.469 46.8187 196.806 47.5405 196.379 48.4019L195.994 49.1611L195.561 48.4315C195.063 47.6092 194.341 46.9456 193.48 46.5187L192.721 46.144L193.451 45.7003C194.273 45.2066 194.936 44.4881 195.363 43.6297L195.738 42.8606Z" fill="white"/>
<path d="M254.691 180.881L255.125 181.611C255.623 182.433 256.344 183.096 257.205 183.523L257.965 183.898L257.235 184.342C256.413 184.835 255.749 185.554 255.322 186.412L254.947 187.181L254.504 186.442C254.009 185.623 253.291 184.963 252.433 184.539L251.664 184.154L252.394 183.721C253.216 183.223 253.88 182.502 254.307 181.64L254.691 180.881Z" fill="white"/>
<g opacity="0.3">
<path opacity="0.3" d="M220.043 166.613L220.23 166.929C220.447 167.295 220.765 167.59 221.147 167.777L221.483 167.944L221.157 168.132C220.796 168.351 220.505 168.669 220.319 169.049L220.151 169.384L219.954 169.059C219.736 168.7 219.422 168.41 219.047 168.22L218.712 168.053L219.027 167.865C219.389 167.644 219.683 167.327 219.875 166.949L220.043 166.613Z" fill="white"/>
</g>
<path d="M282.96 163.419L283.157 163.744C283.372 164.105 283.687 164.396 284.064 164.582L284.399 164.75L284.084 164.947C283.72 165.162 283.426 165.477 283.236 165.854L283.078 166.199L282.881 165.874C282.664 165.51 282.345 165.219 281.964 165.036L281.628 164.868L281.954 164.671C282.314 164.455 282.605 164.14 282.792 163.764L282.96 163.419Z" fill="white"/>
<path d="M222.814 132.527L223.001 132.853C223.226 133.209 223.542 133.499 223.918 133.691L224.253 133.858L223.938 134.046C223.574 134.265 223.28 134.583 223.09 134.963L222.922 135.298L222.735 134.973C222.515 134.612 222.197 134.321 221.818 134.135L221.482 133.967L221.808 133.78C222.167 133.557 222.457 133.24 222.646 132.863L222.814 132.527Z" fill="white"/>
<path d="M256.801 67.2148L256.998 67.5402C257.214 67.9009 257.529 68.1918 257.905 68.3783L258.241 68.5459L257.925 68.7431C257.562 68.9582 257.267 69.273 257.077 69.6503L256.919 69.9855L256.722 69.67C256.509 69.3041 256.189 69.0119 255.805 68.8319L255.47 68.6643L255.795 68.4671C256.159 68.2506 256.45 67.9316 256.633 67.5501L256.801 67.2148Z" fill="white"/>
<path d="M243.796 275.744L243.993 276.069C244.209 276.43 244.523 276.721 244.9 276.907L245.245 277.075L244.92 277.272C244.556 277.489 244.265 277.808 244.082 278.189L243.914 278.524L243.717 278.199C243.501 277.838 243.186 277.547 242.81 277.361L242.465 277.193L242.79 276.996C243.151 276.78 243.442 276.466 243.628 276.089L243.796 275.744Z" fill="white"/>
<path d="M156.367 181.591L156.554 181.916C156.779 182.273 157.096 182.562 157.471 182.754L157.807 182.922L157.491 183.119C157.128 183.334 156.833 183.649 156.643 184.026L156.476 184.362L156.298 184.046C156.082 183.68 155.763 183.385 155.381 183.198L155.046 183.03L155.371 182.843C155.732 182.623 156.023 182.305 156.209 181.926L156.367 181.591Z" fill="white"/>
<g opacity="0.3">
<path opacity="0.3" d="M245.137 98.5498L245.501 99.1513C245.903 99.8269 246.492 100.372 247.197 100.719L247.828 101.035L247.227 101.399C246.553 101.804 246.009 102.392 245.659 103.095L245.344 103.726L244.989 103.125C244.583 102.449 243.991 101.904 243.283 101.557L242.652 101.242L243.253 100.887C243.932 100.484 244.477 99.8905 244.821 99.1808L245.137 98.5498Z" fill="white"/>
</g>
<g opacity="0.3">
<path opacity="0.3" d="M274.933 256.418L275.288 257.02C275.699 257.692 276.29 258.235 276.994 258.587L277.625 258.903L277.024 259.258C276.348 259.664 275.803 260.256 275.456 260.964L275.141 261.595L274.786 260.993C274.383 260.315 273.789 259.77 273.08 259.426L272.449 259.11L273.05 258.755C273.73 258.337 274.275 257.731 274.618 257.01L274.933 256.418Z" fill="white"/>
</g>
<g opacity="0.1">
<path opacity="0.1" d="M265.882 223.101C258.891 225.142 253.518 227.588 248.4 232.754C243.283 237.921 240.335 245.75 242.484 252.691C244.772 259.869 252.344 264.651 259.828 264.898C270.299 265.233 280.376 257.01 282.102 246.637C283.827 236.264 279.706 221.908 265.882 223.101Z" fill="white"/>
</g>
<path d="M320.132 0.748477C320.23 0.847077 316.888 4.33752 312.678 8.53788C308.467 12.7382 304.957 16.0611 304.859 15.9625C304.76 15.8639 308.093 12.3734 312.313 8.17306C316.533 3.9727 320.023 0.649877 320.132 0.748477Z" fill="#263238"/>
<path d="M304.859 420.686C304.859 418.418 304.76 251.488 304.622 15.923L304.859 16.1596H120.171L120.427 15.9032C120.427 173.072 120.368 315.854 120.358 420.666L120.171 420.479L304.888 420.666L120.171 420.853H119.984V420.686C119.984 315.874 119.984 173.091 119.915 15.923V15.6567H120.2H304.888H305.135V15.9032C304.967 251.528 304.859 418.457 304.859 420.686Z" fill="#263238"/>
<path d="M120.141 15.9625C119.974 16.1597 116.454 12.8172 112.253 8.5971C110.153 6.48706 108.309 4.54464 106.949 3.1248C106.187 2.39225 105.488 1.5974 104.858 0.748535C105.699 1.38813 106.484 2.09726 107.205 2.86844C108.605 4.22912 110.518 6.12224 112.618 8.24214L117.952 13.675L119.56 15.3413L120.141 15.9625Z" fill="#263238"/>
<path d="M120.141 420.686C120.24 420.794 116.897 424.265 112.687 428.456C108.477 432.646 104.977 435.949 104.868 435.851C104.76 435.752 108.112 432.281 112.322 428.091C116.533 423.9 120.043 420.627 120.141 420.686Z" fill="#263238"/>
<path d="M320.132 435.89C317.381 433.585 314.749 431.144 312.244 428.574C308.014 424.423 304.662 420.982 304.76 420.883C304.859 420.784 308.369 424.058 312.648 428.209C316.927 432.36 320.231 435.791 320.132 435.89Z" fill="#263238"/>
<path d="M312.402 242.22C312.736 242.182 313.066 242.113 313.388 242.013C313.82 241.859 314.211 241.608 314.533 241.28C314.854 240.952 315.096 240.555 315.241 240.12C315.405 239.476 315.455 238.809 315.389 238.148C315.389 237.398 315.389 236.59 315.389 235.722C315.389 233.977 315.389 231.995 315.389 229.806C315.389 225.409 315.389 220.203 315.34 214.425C315.34 211.526 315.34 208.509 315.34 205.334V200.532C315.352 200.153 315.289 199.776 315.153 199.422C315.018 199.068 314.813 198.745 314.551 198.471C314.289 198.194 313.972 197.973 313.621 197.822C313.27 197.671 312.892 197.593 312.51 197.593C312.128 197.593 311.75 197.671 311.399 197.822C311.048 197.973 310.732 198.194 310.469 198.471C309.947 199.028 309.666 199.769 309.69 200.532C309.69 202.159 309.69 203.756 309.69 205.334C309.69 208.489 309.69 211.526 309.69 214.425C309.69 220.203 309.69 225.409 309.631 229.806C309.631 231.985 309.631 233.967 309.631 235.722C309.631 236.59 309.631 237.398 309.631 238.148C309.565 238.809 309.615 239.476 309.779 240.12C309.926 240.556 310.17 240.953 310.493 241.281C310.816 241.609 311.209 241.859 311.642 242.013C311.964 242.112 312.294 242.181 312.628 242.22C312.296 242.262 311.958 242.225 311.642 242.112C311.178 241.972 310.753 241.726 310.402 241.392C310.051 241.058 309.783 240.646 309.621 240.189C309.434 239.522 309.364 238.828 309.414 238.138C309.414 237.389 309.414 236.58 309.414 235.712C309.414 233.967 309.414 231.985 309.414 229.796C309.414 225.399 309.414 220.193 309.365 214.415C309.365 211.516 309.365 208.499 309.365 205.324V200.522C309.353 200.078 309.428 199.636 309.587 199.222C309.746 198.807 309.986 198.428 310.292 198.106C310.602 197.779 310.976 197.518 311.39 197.34C311.805 197.162 312.251 197.07 312.702 197.07C313.154 197.07 313.6 197.162 314.014 197.34C314.429 197.518 314.803 197.779 315.113 198.106C315.726 198.76 316.058 199.627 316.04 200.522C316.04 202.149 316.04 203.756 316.04 205.324C316.04 208.479 316.04 211.516 316.04 214.415C316.04 220.193 316.04 225.399 315.981 229.796C315.981 231.975 315.981 233.957 315.981 235.712C315.981 236.58 315.981 237.389 315.981 238.138C316.034 238.828 315.967 239.522 315.784 240.189C315.621 240.646 315.354 241.058 315.003 241.392C314.651 241.726 314.227 241.972 313.762 242.112C313.332 242.294 312.855 242.332 312.402 242.22Z" fill="#263238"/>
<path d="M312.49 155.679H118.968V157.355H312.49V155.679Z" fill="#F5F5F5"/>
<path d="M312.49 337.921H118.968V339.597H312.49V337.921Z" fill="#F5F5F5"/>
<path d="M212.342 8.46878L212.342 432.902H214.728L214.728 8.46878H212.342Z" fill="#F5F5F5"/>
<path d="M52.2554 423.851L53.2414 442.585L53.1033 449.951C53.0442 452.741 55.3218 452.258 58.1122 452.307L92.1884 452.968C92.1884 452.968 93.8646 449.576 91.37 448.462C88.8754 447.348 70.0231 436.462 70.0231 436.462L70.7527 418.833L52.2554 423.851Z" fill="#E0E0E0"/>
<path d="M60.5871 452.149C60.5181 452.149 60.4589 451.499 60.1533 450.503C59.7636 449.204 59.0899 448.008 58.1809 447.002C57.272 445.996 56.1505 445.204 54.8979 444.685C53.9119 444.271 53.3006 444.143 53.3104 444.084C53.8931 444.062 54.4732 444.173 55.0063 444.409C56.344 444.874 57.5417 445.672 58.4869 446.726C59.4422 447.775 60.1201 449.046 60.4589 450.424C60.6184 450.984 60.662 451.571 60.5871 452.149Z" fill="#263238"/>
<path d="M82.1312 452.761C81.9274 452.375 81.8255 451.944 81.8354 451.508C81.7618 450.452 81.9982 449.396 82.5158 448.472C83.0398 447.565 83.7486 446.779 84.5962 446.164C85.2273 445.691 85.671 445.474 85.7006 445.523C85.7301 445.573 85.3555 445.878 84.7836 446.391C84.0344 447.048 83.3953 447.82 82.8905 448.679C82.4121 449.547 82.1516 450.518 82.1312 451.508C82.1683 451.925 82.1683 452.344 82.1312 452.761Z" fill="#263238"/>
<path d="M87.3373 404.309L76.0082 419.246L71.1472 424.778C69.3034 426.878 71.3543 427.973 73.4545 429.816L99.0904 452.317C99.0904 452.317 102.561 450.808 101.378 448.373C100.195 445.938 92.8195 425.429 92.8195 425.429L104.75 412.443L87.3373 404.309Z" fill="#E0E0E0"/>
<path d="M75.446 431.295C75.3869 431.295 75.7714 430.714 76.1757 429.757C76.7011 428.51 76.9565 427.166 76.925 425.813C76.8814 424.462 76.545 423.137 75.939 421.928C75.4756 420.992 75.0615 420.479 75.1206 420.439C75.5746 420.803 75.9446 421.26 76.2052 421.78C76.9241 423.002 77.3244 424.384 77.3692 425.8C77.414 427.216 77.1019 428.621 76.4616 429.885C76.2266 430.422 75.8805 430.902 75.446 431.295Z" fill="#263238"/>
<path d="M91.4883 445.671C91.5893 445.248 91.7924 444.855 92.0799 444.528C92.7053 443.674 93.565 443.019 94.5547 442.644C95.5408 442.296 96.5875 442.152 97.6311 442.22C98.0635 442.199 98.495 442.277 98.8931 442.447C98.4768 442.521 98.053 442.544 97.6311 442.516C96.6239 442.535 95.6259 442.712 94.6731 443.039C93.752 443.398 92.9305 443.973 92.2771 444.715C91.8038 445.336 91.5573 445.711 91.4883 445.671Z" fill="#263238"/>
<path d="M57.3825 82.0938C52.6793 90.4452 50.5594 100.049 49.9382 109.603C49.317 119.157 50.1058 128.751 50.9242 138.306C51.0721 140.031 51.3284 141.964 52.699 143.029C54.0695 144.093 56.0612 143.847 57.7867 143.541C60.0644 143.127 62.4801 142.644 64.1169 141.017C66.217 138.917 66.3649 135.614 66.3649 132.656C66.3255 119.66 65.7372 106.688 64.6 93.7384" fill="#263238"/>
<path d="M106.544 87.4871L100.648 112.226L88.7866 105.935L96.9211 78.554L106.544 87.4871Z" fill="#FFBE9D"/>
<path d="M118.722 59.2481C118.722 59.2481 115.073 55.3041 113.614 55.1069C112.155 54.9097 103.873 59.2481 103.873 59.2481L97.2959 68.0136V84.5685L106.554 87.5265L110.104 83.3558C110.104 83.3558 118.465 78.9188 118.722 77.8539C118.851 75.3051 118.851 72.7513 118.722 70.2025C118.722 70.2025 116.069 68.97 115.606 72.1745L115.3 75.0832L110.104 76.5721L111.78 69.8476C111.78 69.8476 118.83 67.56 118.83 66.1796C118.83 64.7992 116.858 63.4287 116.858 63.4287L118.83 59.9087" fill="#FFBE9D"/>
<path d="M37.978 248.6C37.978 248.6 28.9266 266.19 36.6174 305.147C41.4192 329.412 46.29 434.895 46.29 434.895L84.0834 434.273C84.0834 434.273 84.0834 358.223 83.9552 344.823C83.8665 336.255 87.2682 301.715 87.2682 301.715L89.4965 258.844L37.978 248.6Z" fill="#E07A5F"/>
<path d="M104.04 256.073C103.468 257.355 144.003 324.374 143.993 338.543C143.993 352.199 98.0747 421.002 98.0747 421.002L68.8891 400.966L101.22 344.528L72.6852 296.006L63.614 261.674L104.04 256.073Z" fill="#E07A5F"/>
<path d="M84.0343 434.273C84.0218 434.142 84.0218 434.01 84.0343 433.879V432.725C84.0343 431.68 84.0343 430.191 83.9751 428.288C83.9751 424.413 83.9159 418.852 83.8666 411.99C83.8666 398.186 83.7483 379.195 83.6694 358.203C83.6694 352.958 83.6694 347.831 83.6694 342.871C83.6694 341.639 83.768 340.416 83.8371 339.203C83.9061 337.99 83.985 336.787 84.0638 335.594C84.2117 333.218 84.3695 330.891 84.5075 328.623C85.0991 319.542 85.6316 311.368 86.0851 304.486C86.5387 297.604 86.9232 292.092 87.1796 288.227C87.3275 286.334 87.4359 284.845 87.505 283.81C87.505 283.327 87.5838 282.942 87.6036 282.656C87.6106 282.526 87.6304 282.397 87.6627 282.271V282.666V283.81C87.6036 284.855 87.5345 286.334 87.4359 288.237C87.2092 292.112 86.8838 297.663 86.4499 304.506C86.0161 311.349 85.5428 319.562 84.9907 328.643C84.8526 330.911 84.7113 333.235 84.5667 335.614C84.4878 336.797 84.4188 338 84.3399 339.213C84.261 340.426 84.1427 341.648 84.1822 342.891C84.1822 347.821 84.1822 352.968 84.1822 358.223C84.1822 379.205 84.1822 398.205 84.1822 411.99C84.1822 418.892 84.1822 424.413 84.1822 428.288C84.1822 430.191 84.1822 431.68 84.1822 432.725C84.1822 433.212 84.1822 433.596 84.1822 433.879C84.1488 434.016 84.0991 434.148 84.0343 434.273Z" fill="#263238"/>
<path d="M117.775 342.378C116.897 342.401 116.017 342.372 115.142 342.289C113.037 342.215 110.929 342.324 108.842 342.614C106.755 342.916 104.697 343.391 102.689 344.034C101.873 344.358 101.036 344.628 100.185 344.843C100.926 344.357 101.728 343.973 102.571 343.699C104.572 342.935 106.652 342.399 108.773 342.102C110.889 341.806 113.032 341.746 115.162 341.924C116.049 341.959 116.928 342.112 117.775 342.378Z" fill="#263238"/>
<path d="M83.827 417.028C83.3269 417.092 82.8224 417.115 82.3185 417.097H78.2364C74.7756 417.097 70.0132 417.176 64.748 417.353C59.4827 417.531 54.7105 417.768 51.2693 417.965L47.1873 418.201C46.6856 418.251 46.1804 418.251 45.6787 418.201C46.1685 418.09 46.6663 418.017 47.1676 417.984C48.1536 417.866 49.5142 417.728 51.2397 417.59C54.6809 417.294 59.4531 416.989 64.7282 416.811C70.0033 416.634 74.7756 416.643 78.2364 416.712C79.9619 416.712 81.3621 416.801 82.3283 416.851C82.8324 416.862 83.3342 416.922 83.827 417.028Z" fill="#263238"/>
<path d="M108.428 404.338C108.094 404.14 107.786 403.902 107.511 403.628L105.085 401.597C103.034 399.891 100.155 397.653 96.7931 395.307C93.4308 392.96 90.2953 391.106 87.9191 389.795L85.1681 388.247C84.8179 388.084 84.4871 387.882 84.1821 387.645C84.5611 387.737 84.9259 387.88 85.2667 388.069C85.9471 388.375 86.9232 388.858 88.1064 389.469C94.2825 392.715 100.049 396.687 105.283 401.301C106.269 402.189 107.077 402.928 107.6 403.461C107.909 403.72 108.187 404.015 108.428 404.338Z" fill="#263238"/>
<path d="M47.2662 418.054C47.2557 417.929 47.2557 417.804 47.2662 417.679C47.2662 417.403 47.2662 417.028 47.2662 416.555C47.2662 415.569 47.1774 414.1 47.1084 412.256C46.9901 408.499 46.8126 403.096 46.5858 396.48C46.1323 383.129 45.4125 364.691 44.3772 344.33C43.3419 323.969 42.1981 305.541 41.291 292.21C40.8374 285.575 40.4726 280.181 40.2163 276.434C40.0979 274.591 39.9994 273.151 39.9303 272.135C39.9303 271.662 39.9303 271.297 39.8712 271.021C39.858 270.893 39.858 270.765 39.8712 270.637C39.8793 270.761 39.8793 270.887 39.8712 271.011L39.9895 272.126C40.0782 273.112 40.2064 274.581 40.3642 276.415C40.6895 280.142 41.1135 285.525 41.6065 292.191C42.5925 305.512 43.8053 323.94 44.8406 344.301C45.8759 364.662 46.4971 383.07 46.852 396.431C47.0394 403.116 47.1577 408.519 47.2169 412.256C47.2169 414.1 47.2169 415.539 47.2662 416.555C47.2662 417.028 47.2662 417.393 47.2662 417.679C47.2747 417.804 47.2747 417.929 47.2662 418.054Z" fill="white"/>
<path d="M62.628 276.217C62.766 276.217 62.3618 307.681 61.711 346.48C61.0603 385.279 60.4292 416.742 60.2912 416.742C60.1531 416.742 60.5574 385.289 61.1983 346.48C61.8392 307.671 62.4801 276.217 62.628 276.217Z" fill="white"/>
<path d="M72.6261 415.894C72.6131 415.776 72.6131 415.657 72.6261 415.539C72.6261 415.273 72.6261 414.928 72.6261 414.484C72.6261 413.498 72.6261 412.167 72.5373 410.441C72.4683 406.921 72.419 401.834 72.3894 395.553C72.3303 382.981 72.4584 365.608 73.0106 346.44C73.5628 327.272 74.4403 309.909 75.2291 297.367C75.6137 291.086 75.9686 286.018 76.2151 282.508C76.3532 280.783 76.4616 279.432 76.5405 278.475C76.5405 278.032 76.6095 277.687 76.6391 277.43C76.6244 277.312 76.6244 277.193 76.6391 277.075C76.6522 277.193 76.6522 277.312 76.6391 277.43C76.6391 277.696 76.6391 278.041 76.6391 278.485C76.6391 279.471 76.5109 280.792 76.4222 282.528C76.2151 286.068 75.9292 291.136 75.5644 297.387C74.884 309.929 74.0656 327.282 73.5036 346.45C72.9416 365.618 72.7641 382.981 72.7345 395.553C72.7345 401.814 72.7345 406.892 72.7345 410.432V414.484C72.7345 414.928 72.7345 415.273 72.7345 415.539C72.7075 415.66 72.6713 415.779 72.6261 415.894Z" fill="white"/>
<path d="M108.832 342.555C108.747 342.351 108.678 342.14 108.625 341.924C108.487 341.451 108.319 340.84 108.112 340.08C107.649 338.414 107.018 336.136 106.239 333.297C104.622 327.578 102.295 319.72 99.3368 311.161C96.3788 302.603 93.4208 294.951 91.1037 289.469C89.9797 286.767 89.0528 284.539 88.3922 282.981C88.0865 282.252 87.8499 281.66 87.6527 281.206C87.559 281.007 87.4863 280.799 87.4358 280.585C87.5571 280.77 87.6626 280.965 87.7513 281.167L88.5697 282.892C89.2796 284.401 90.2656 286.6 91.4389 289.321C93.7955 294.784 96.8521 302.415 99.8199 311.013C102.788 319.611 105.095 327.479 106.613 333.218C107.373 336.097 107.964 338.424 108.329 340.051C108.507 340.82 108.645 341.441 108.753 341.914C108.802 342.125 108.828 342.339 108.832 342.555Z" fill="white"/>
<path d="M112.914 342.999C112.88 343.175 112.827 343.347 112.756 343.512C112.608 343.886 112.431 344.36 112.204 344.932C111.731 346.154 110.981 347.89 110.015 350.069C107.483 355.68 104.649 361.151 101.526 366.456C98.4079 371.759 95.0113 376.894 91.3502 381.838C89.9402 383.731 88.7669 385.239 87.9189 386.255L86.9329 387.428C86.8239 387.568 86.7017 387.696 86.5681 387.813C86.5681 387.813 86.647 387.645 86.8541 387.359L87.7415 386.136C88.5401 385.081 89.7135 383.543 91.0347 381.621C93.7758 377.795 97.4141 372.392 101.062 366.2C104.711 360.008 107.639 354.19 109.65 349.931C110.636 347.801 111.445 346.065 111.987 344.863L112.618 343.482C112.693 343.308 112.793 343.145 112.914 342.999Z" fill="white"/>
<path d="M98.124 395.908C98.1798 395.8 98.2458 395.697 98.3212 395.602L98.9523 394.744C99.534 393.975 100.362 392.881 101.407 391.481C103.537 388.631 106.653 384.579 110.232 379.294C114.476 373.198 118.128 366.71 121.137 359.919C124.411 352.248 126.974 343.157 126.866 333.504C126.834 331.123 126.637 328.748 126.274 326.395C126.087 325.241 125.811 324.107 125.594 322.973C125.377 321.84 124.983 320.745 124.697 319.651C123.398 315.466 121.725 311.407 119.698 307.523C115.833 300.088 111.632 293.719 108.339 288.335C105.673 284.088 103.25 279.693 101.082 275.172C100.293 273.575 99.8101 272.283 99.4453 271.415L99.041 270.429C98.9886 270.323 98.9489 270.21 98.9227 270.094C98.9949 270.19 99.0515 270.296 99.0903 270.41C99.1988 270.656 99.3467 270.972 99.534 271.396C99.9284 272.244 100.441 273.526 101.269 275.103C103.511 279.585 105.986 283.945 108.684 288.168C112.007 293.571 116.237 299.862 120.151 307.326C122.202 311.23 123.895 315.313 125.209 319.522C125.505 320.627 125.9 321.721 126.117 322.875C126.333 324.028 126.619 325.162 126.807 326.336C127.177 328.714 127.378 331.116 127.408 333.524C127.351 342.706 125.373 351.774 121.601 360.146C118.559 366.954 114.861 373.45 110.557 379.54C106.939 384.766 103.774 388.828 101.605 391.638L99.11 394.813L98.4396 395.642C98.3451 395.742 98.2392 395.832 98.124 395.908Z" fill="white"/>
<g opacity="0.3">
<path opacity="0.3" d="M33.8369 266.969C35.03 271.366 39.5557 274.314 43.7561 276.06C55.408 280.854 68.0855 282.614 80.6029 281.177C86.5189 280.487 92.5236 279.027 97.5128 275.744C99.6919 274.304 101.693 272.53 104.129 271.613C106.564 270.696 109.719 270.932 111.287 273.013C111.623 272.224 111.708 271.35 111.532 270.511C111.356 269.672 110.926 268.907 110.301 268.319C109.729 267.817 107.264 267.057 105.746 266.298C104.001 265.43 101.427 264.326 101.427 264.326C100.491 265.839 99.4461 267.282 98.3016 268.645C95.4807 271.34 92.0712 273.342 88.343 274.492C77.073 278.209 64.7382 277.746 53.1625 274.896C46.369 273.21 39.6839 270.834 33.8665 267.008" fill="black"/>
</g>
<g opacity="0.3">
<path opacity="0.3" d="M86.9822 290.534C90.4924 304.604 93.8054 319.187 94.959 333.642C91.7545 327.726 88.7768 323.693 85.5723 317.777L86.9822 290.534Z" fill="black"/>
</g>
<path d="M106.14 97.9092L103.587 99.5262C104.375 106.27 100.629 112.67 96.8128 118.26C92.997 123.851 88.6882 129.639 88.0867 136.412C86.9824 148.856 98.5482 159.298 99.1989 171.77C100.875 171.77 109.946 171.277 111.623 171.277C113.299 145.74 108.97 124.265 106.14 97.9092Z" fill="#263238"/>
<path d="M54.9076 100.236C54.8024 105.033 55.7145 109.797 57.584 114.216C59.4534 118.635 62.2377 122.607 65.7536 125.872C67.3575 121.198 68.9712 116.522 70.5948 111.841" fill="#263238"/>
<path d="M91.4292 72.2831C87.1596 70.146 82.2807 69.5571 77.6252 70.6168C72.9974 71.6894 68.5772 73.5147 64.541 76.02C62.1681 77.2592 60.0479 78.9313 58.2898 80.95C55.2726 84.7461 52.285 90.9875 51.9991 95.8288C51.7624 99.7728 53.2612 109.554 54.9571 113.113C56.4755 116.377 63.5846 118.862 67.0947 119.66L99.2975 82.1924C98.7133 80.0993 97.7162 78.1443 96.3649 76.4425C95.0136 74.7407 93.3354 73.3265 91.4292 72.2831Z" fill="#263238"/>
<path d="M96.9804 77.3313L89.26 75.9509C93.4801 86.0081 94.6238 108.982 97.0395 119.611C99.8891 115.49 106.495 102.908 106.14 97.919C105.785 92.9298 106.15 76.4834 96.9804 77.3313Z" fill="#263238"/>
<path d="M101.398 93.7186C100.895 86.008 95.7578 76.5523 88.0768 77.3904L70.3288 81.926C67.5934 82.6198 65.1532 84.1737 63.3674 86.3589C61.5817 88.544 60.5448 91.2449 60.4097 94.0637C60.4097 94.3595 60.4097 93.9946 60.4097 94.2214L64.3537 140.258L83.1567 164.582L89.4276 141.648C89.4276 137.891 89.4276 132.222 89.4276 132.242C89.4276 132.261 99.2876 130.585 101.26 117.718C102.295 111.329 101.96 102.287 101.398 93.7186Z" fill="#FFBE9D"/>
<path d="M99.3565 102.691C99.3594 103.121 99.1956 103.534 98.8994 103.845C98.6033 104.156 98.198 104.34 97.7691 104.358C97.5586 104.375 97.3468 104.35 97.1463 104.284C96.9457 104.218 96.7603 104.113 96.6013 103.974C96.4422 103.835 96.3126 103.666 96.2202 103.476C96.1278 103.286 96.0744 103.08 96.0633 102.869C96.0603 102.439 96.2242 102.026 96.5204 101.715C96.8165 101.404 97.2218 101.22 97.6507 101.202C97.8609 101.186 98.0721 101.212 98.2721 101.279C98.4721 101.345 98.6569 101.451 98.8157 101.589C98.9745 101.728 99.1041 101.897 99.1969 102.086C99.2898 102.275 99.344 102.481 99.3565 102.691Z" fill="#263238"/>
<path d="M99.4651 98.7572C99.258 98.9741 98.0157 98.0473 96.2409 98.0571C94.4661 98.067 93.1646 98.9544 92.9674 98.7375C92.7702 98.5205 93.0857 98.2543 93.6477 97.8402C94.4147 97.3082 95.3272 97.0259 96.2606 97.0317C97.1838 97.0231 98.0855 97.3098 98.8341 97.8501C99.3764 98.2642 99.5637 98.6586 99.4651 98.7572Z" fill="#263238"/>
<path d="M83.7186 103.273C83.724 103.703 83.5609 104.118 83.2643 104.43C82.9676 104.741 82.5609 104.924 82.1311 104.939C81.9215 104.957 81.7105 104.932 81.5105 104.867C81.3105 104.802 81.1256 104.697 80.9667 104.559C80.8078 104.421 80.678 104.253 80.585 104.064C80.492 103.876 80.4378 103.67 80.4253 103.46C80.4224 103.031 80.5863 102.617 80.8824 102.306C81.1786 101.996 81.5838 101.812 82.0128 101.794C82.2222 101.778 82.4326 101.803 82.632 101.869C82.8314 101.935 83.0158 102.04 83.1744 102.177C83.3331 102.315 83.4629 102.483 83.5563 102.671C83.6497 102.859 83.7048 103.063 83.7186 103.273Z" fill="#263238"/>
<path d="M82.6144 98.757C82.4172 98.9739 81.1649 98.0471 79.3901 98.0569C77.6153 98.0668 76.3138 98.9542 76.1265 98.7373C75.9391 98.5204 76.2349 98.2541 76.797 97.84C77.564 97.3081 78.4764 97.0257 79.4099 97.0315C80.3332 97.0215 81.2354 97.3084 81.9833 97.8499C82.5256 98.264 82.713 98.6584 82.6144 98.757Z" fill="#263238"/>
<path d="M88.1655 112.689C89.0994 112.395 90.0668 112.219 91.0446 112.167C91.4982 112.167 91.9222 112.029 92.0306 111.713C92.0674 111.245 91.9608 110.778 91.725 110.372C91.301 109.278 90.8474 108.134 90.3741 106.921C88.5106 101.991 87.1499 97.988 87.3471 97.9091C87.5443 97.8302 89.2304 101.755 91.0939 106.665C91.5475 107.868 91.9813 109.021 92.3856 110.126C92.6768 110.673 92.7608 111.306 92.6222 111.91C92.5583 112.07 92.4583 112.213 92.33 112.327C92.2017 112.442 92.0486 112.525 91.8827 112.571C91.6324 112.642 91.3737 112.678 91.1136 112.679C90.1352 112.806 89.1448 112.809 88.1655 112.689Z" fill="#263238"/>
<path d="M72.3894 127.667C72.3894 127.667 76.57 136.541 89.4275 135.259V132.242C83.4344 132.321 77.5367 130.737 72.3894 127.667Z" fill="#EB996E"/>
<path d="M82.0623 92.3482C81.8848 92.8313 80.0903 92.6045 78.0394 92.8609C75.9885 93.1172 74.2728 93.6891 73.9968 93.2553C73.8686 93.0482 74.1644 92.5946 74.8349 92.1214C75.7267 91.5471 76.7389 91.1861 77.7929 91.0664C78.8587 90.9366 79.94 91.0616 80.9481 91.4312C81.7468 91.7368 82.1313 92.1115 82.0623 92.3482Z" fill="#263238"/>
<path d="M98.8834 93.334C98.5777 93.7382 97.3551 93.334 95.9254 93.334C94.4957 93.334 93.2139 93.61 92.9674 93.1861C92.849 92.979 93.0364 92.5747 93.5787 92.2001C94.3074 91.7358 95.1606 91.5053 96.0239 91.5394C96.8874 91.5525 97.7251 91.8352 98.4199 92.348C98.8538 92.7128 99.0214 93.1269 98.8834 93.334Z" fill="#263238"/>
<path d="M97.9072 81.9753C97.453 81.031 96.7447 80.2319 95.8617 79.6676C94.9787 79.1033 93.956 78.7962 92.9082 78.7807C90.8116 78.7768 88.758 79.3757 86.9922 80.5062C79.331 84.9333 75.3968 95.6215 67.8342 100.226C65.9707 101.35 63.555 100.325 61.9182 101.814C60.2814 103.302 59.3152 105.689 60.1828 107.73C59.1062 106.351 58.236 104.823 57.5995 103.194C57.2744 102.391 57.1255 101.527 57.1629 100.661C57.2003 99.7953 57.4232 98.9476 57.8164 98.1753C58.4672 97.0414 59.6208 96.2033 59.9363 94.9116C60.2519 93.62 59.7786 92.6241 59.8279 91.4705C59.9569 90.3024 60.3588 89.181 61.0012 88.197C63.9592 82.9514 68.0413 78.2088 73.2967 75.2606C76.7188 73.2701 80.6179 72.2476 84.5765 72.3026C88.55 72.4012 92.3577 73.9152 95.314 76.572C97.0001 78.1496 98.7848 79.7765 97.9072 81.9161" fill="#263238"/>
<path d="M62.145 103.381C62.007 103.007 55.3022 100.591 55.243 107.72C55.1543 114.622 62.145 113.281 62.145 113.084C62.145 112.886 62.145 103.381 62.145 103.381Z" fill="#FFBE9D"/>
<path d="M60.0151 110.431C60.0151 110.431 59.8968 110.52 59.6897 110.609C59.4018 110.725 59.0804 110.725 58.7925 110.609C58.3451 110.324 57.9827 109.923 57.7433 109.449C57.5039 108.976 57.3963 108.447 57.4318 107.917C57.4225 107.323 57.5436 106.734 57.7868 106.192C57.8543 105.976 57.973 105.78 58.1327 105.621C58.2924 105.461 58.4883 105.342 58.7037 105.275C58.8437 105.241 58.9911 105.257 59.1206 105.32C59.2501 105.383 59.3537 105.489 59.4137 105.62C59.5024 105.807 59.4137 105.945 59.4925 105.965C59.5714 105.985 59.6404 105.847 59.5911 105.561C59.5542 105.39 59.4603 105.237 59.3249 105.127C59.1316 104.985 58.8933 104.918 58.6544 104.939C58.3697 104.995 58.1036 105.122 57.8812 105.308C57.6588 105.494 57.4872 105.734 57.3825 106.004C57.0856 106.601 56.9368 107.261 56.9487 107.927C56.9487 109.327 57.6783 110.638 58.684 110.934C58.8692 110.989 59.064 111.002 59.2548 110.973C59.4455 110.944 59.6277 110.874 59.7883 110.767C60.0053 110.599 60.0447 110.451 60.0151 110.431Z" fill="#EB996E"/>
<path d="M59.2265 111.664C58.9728 111.611 58.7092 111.631 58.4668 111.723C58.2244 111.815 58.0131 111.973 57.858 112.181C57.7028 112.389 57.6101 112.636 57.5909 112.895C57.5717 113.153 57.6267 113.412 57.7494 113.64C57.8721 113.868 58.0575 114.057 58.2837 114.183C58.5099 114.31 58.7675 114.369 59.0263 114.354C59.285 114.339 59.5341 114.251 59.7442 114.099C59.9544 113.947 60.1168 113.739 60.2125 113.498C60.326 113.173 60.3175 112.818 60.1888 112.498C60.06 112.179 59.8196 111.918 59.5124 111.762" fill="white"/>
<path d="M59.5518 111.762C59.8515 111.998 60.069 112.322 60.173 112.689C60.2221 112.88 60.2236 113.079 60.1771 113.27C60.1307 113.461 60.0378 113.637 59.9067 113.784C59.7443 113.955 59.5385 114.08 59.3111 114.144C59.0837 114.208 58.8433 114.21 58.6151 114.149C58.3926 114.069 58.1965 113.929 58.0486 113.744C57.9007 113.56 57.8067 113.338 57.777 113.103C57.7509 112.909 57.7743 112.712 57.845 112.529C57.9156 112.346 58.0313 112.184 58.1812 112.058C58.4784 111.818 58.8448 111.68 59.2264 111.664C59.2264 111.664 59.1278 111.585 58.901 111.585C58.5902 111.586 58.2884 111.69 58.0432 111.881C57.8513 112.025 57.6991 112.215 57.6008 112.434C57.5025 112.653 57.4614 112.894 57.4812 113.133C57.5011 113.432 57.6105 113.717 57.7952 113.953C57.9799 114.188 58.2313 114.363 58.5166 114.453C58.8019 114.544 59.1078 114.546 59.3945 114.46C59.6812 114.374 59.9353 114.204 60.1236 113.971C60.2815 113.79 60.3892 113.571 60.4359 113.336C60.4826 113.101 60.4667 112.857 60.3899 112.63C60.2991 112.331 60.1119 112.071 59.8574 111.891C59.6701 111.762 59.5616 111.743 59.5518 111.762Z" fill="#263238"/>
<path d="M61.1293 101.774C61.0208 103.667 60.9321 105.669 61.8096 107.345C62.6872 109.021 64.886 110.175 66.5326 109.228C67.8735 108.469 68.2778 106.744 68.5046 105.215C69.1553 100.808 69.4906 96.3414 70.1512 91.9438L61.1293 101.774Z" fill="#263238"/>
<path d="M83.8073 116.061C83.4709 116.499 83.2456 117.012 83.1504 117.556C83.0552 118.099 83.093 118.658 83.2606 119.184C83.4282 119.71 83.7206 120.188 84.1128 120.576C84.505 120.965 84.9854 121.253 85.513 121.415C85.9314 121.56 86.3863 121.56 86.8047 121.415C87.143 121.227 87.4392 120.972 87.675 120.665C87.9107 120.358 88.081 120.006 88.1752 119.631C88.4217 119.029 88.6584 118.438 88.895 117.836C88.9993 117.646 89.0241 117.423 88.964 117.215C88.8654 116.998 88.6091 116.929 88.3823 116.87L83.9354 115.795" fill="#EB996E"/>
<path d="M86.7061 121.218C86.0377 121.308 85.3574 121.22 84.7341 120.962C83.9846 120.724 83.3514 120.214 82.9593 119.532C82.7322 119.11 82.6393 118.628 82.6931 118.152C82.7222 117.662 82.8391 117.181 83.0382 116.732C83.2426 116.298 83.5269 115.907 83.8763 115.578L83.9946 115.47L84.1425 115.519C87.1005 116.554 89.388 117.087 89.3585 117.205C87.5133 117.086 85.6975 116.684 83.9749 116.012L84.2313 115.953C83.9369 116.234 83.6992 116.568 83.5312 116.939C83.3432 117.298 83.2337 117.693 83.2099 118.097C83.1861 118.502 83.2485 118.907 83.3931 119.286C83.7212 119.879 84.2434 120.342 84.8721 120.597C85.937 121.06 86.7258 121.12 86.7061 121.218Z" fill="#263238"/>
<path d="M62.855 102.119L61.6718 102.632C61.5365 102.697 61.3943 102.747 61.2478 102.78C61.3719 102.692 61.504 102.616 61.6422 102.553L62.7958 101.991C63.7818 101.488 65.2608 100.798 67.006 99.8319C69.0595 98.7345 70.9842 97.4117 72.7446 95.8879C73.7632 94.9697 74.673 93.9375 75.4561 92.8116C76.2843 91.6481 77.0534 90.3762 77.9506 89.1239C79.6565 86.7888 81.6435 84.6727 83.8666 82.8234C84.8271 82.0121 85.8346 81.2581 86.8838 80.5655C87.8139 79.9731 88.8057 79.4837 89.8418 79.1062C91.3335 78.5334 92.9301 78.2847 94.5253 78.3765C94.9571 78.3965 95.3861 78.456 95.8071 78.554C95.9546 78.5819 96.0997 78.6215 96.2409 78.6723C96.2409 78.6723 95.6296 78.554 94.5154 78.5244C92.9468 78.4989 91.3887 78.7837 89.9305 79.3625C88.9247 79.7531 87.9629 80.2488 87.0613 80.8415C86.0316 81.5352 85.0439 82.2891 84.1033 83.0995C81.927 84.9431 79.9804 87.042 78.3056 89.3507C77.4281 90.5832 76.6491 91.8552 75.8012 93.0285C75.0031 94.1782 74.0696 95.2276 73.0206 96.1541" fill="#455A64"/>
<path d="M58.3982 137.418L49.968 145.129L44.9788 191.579L29.824 264.297C34.754 268.615 54.0303 278.012 73.3362 277.036C97.4537 275.813 101.398 264.297 101.398 264.297C106.328 266.21 110.844 268.241 110.844 268.241C110.844 268.241 101.309 186.136 100.491 173.506C99.6328 160.362 90.3742 144.843 90.3742 144.843L90.039 139.834L88.6487 143.778L83.9061 140.051L61.3858 129.816L58.3982 137.418Z" fill="#E07A5F"/>
<path d="M58.3982 137.418C58.3982 137.418 48.3508 141.076 41.015 148.55C36.7062 152.938 17.6665 211.743 17.0059 216.377C15.9114 224.078 24.2628 238.463 37.7119 236.275C51.1609 234.086 87.6133 223.378 87.6133 223.378L78.0393 190.79L48.3903 203.608L63.8606 167.393C63.8606 167.393 70.5654 139.913 58.3982 137.418Z" fill="#E07A5F"/>
<path d="M59.5912 177.262C59.5912 177.262 59.5912 177.42 59.4236 177.726C59.256 178.031 59.1081 178.485 58.8714 179.067L56.7121 184.253C54.7894 188.799 52.0089 195.385 48.5086 203.648L48.3015 203.431L77.8815 190.613L78.1083 190.514L78.1773 190.751L87.781 223.289L87.85 223.535L87.6133 223.604C78.2956 226.316 68.3469 229.126 58.0333 231.828C53.8428 232.922 49.6819 233.967 45.5604 234.904C43.4997 235.387 41.4488 235.831 39.3979 236.205L37.8696 236.482C37.3471 236.57 36.8245 236.59 36.3019 236.639C35.2659 236.743 34.2221 236.743 33.1861 236.639C31.137 236.411 29.1514 235.789 27.3392 234.805C26.4462 234.326 25.5894 233.782 24.7756 233.178C23.9953 232.551 23.2575 231.872 22.5669 231.147C19.8716 228.318 17.9762 224.823 17.0749 221.021C16.6088 219.18 16.5751 217.257 16.9763 215.401C17.42 213.616 17.9623 211.891 18.4553 210.185C19.4413 206.773 20.5456 203.48 21.5711 200.325C23.6318 193.965 25.6235 188.069 27.4871 182.695C31.1944 171.958 34.3891 163.32 36.7456 157.424C37.9387 154.466 38.9345 152.218 39.7036 150.729C40.0783 149.98 40.4135 149.428 40.6896 149.063C40.9657 148.698 41.0939 148.55 41.0939 148.55C41.0939 148.55 40.9755 148.747 40.729 149.092C40.4825 149.437 40.2065 150.019 39.8416 150.769C39.1219 152.277 38.1556 154.545 36.9921 157.503C34.6651 163.419 31.5494 172.066 27.8913 182.814C26.0672 188.197 24.0952 194.093 22.0542 200.453C21.0682 203.638 19.9935 206.931 18.968 210.313C18.4652 212.019 17.982 213.744 17.5087 215.509C17.1276 217.295 17.1647 219.144 17.6172 220.913C18.523 224.62 20.394 228.022 23.0402 230.773C23.7121 231.481 24.4337 232.14 25.1995 232.745C25.9866 233.338 26.8209 233.865 27.6941 234.322C29.4465 235.278 31.3693 235.881 33.3538 236.097C34.3601 236.201 35.3744 236.201 36.3808 236.097C36.8836 236.048 37.3668 236.028 37.8992 235.949L39.4275 235.663C41.4685 235.288 43.5096 234.845 45.5604 234.372C49.6753 233.425 53.8297 232.396 58.0235 231.285C68.3173 228.594 78.2661 225.793 87.6035 223.082L87.4359 223.397C84.0144 211.703 80.7902 200.719 77.9012 190.8L78.197 190.938L48.4198 203.766L48.0452 203.934L48.2029 203.559L56.5346 184.224C57.5206 181.985 58.27 180.28 58.7827 179.067L59.3743 177.746C59.5123 177.41 59.5912 177.262 59.5912 177.262Z" fill="#263238"/>
<path d="M48.3509 203.579C47.6912 203.914 47.0092 204.204 46.3099 204.447C44.6974 205.143 43.2495 206.171 42.0602 207.464C40.9101 208.794 40.0564 210.353 39.5558 212.039C39.3872 212.757 39.1765 213.465 38.9248 214.159C38.8933 213.408 38.99 212.658 39.2107 211.94C39.626 210.156 40.4724 208.5 41.6757 207.119C42.9155 205.77 44.4607 204.739 46.1817 204.111C46.8711 203.817 47.6037 203.637 48.3509 203.579Z" fill="#263238"/>
<path d="M95.6887 183.228C95.5704 182.716 95.4978 182.194 95.4718 181.67C95.3732 180.684 95.2056 179.205 94.9689 177.41C94.5154 173.821 93.7069 168.891 92.642 163.478C91.5771 158.065 90.5024 153.165 89.753 149.674C89.4079 147.958 89.1121 146.548 88.8952 145.464C88.7746 144.951 88.6922 144.431 88.6487 143.906C88.8388 144.399 88.9872 144.907 89.0924 145.424C89.3487 146.499 89.6938 147.899 90.0784 149.595C90.9165 153.115 92.0504 157.996 93.1153 163.399C94.1801 168.803 94.9394 173.782 95.3042 177.391C95.4915 179.195 95.6 180.664 95.6394 181.68C95.7041 182.193 95.7206 182.711 95.6887 183.228Z" fill="#263238"/>
<path d="M101.398 264.296C101.353 264.083 101.333 263.864 101.339 263.646C101.339 263.163 101.339 262.541 101.25 261.772C101.191 260.076 101.112 257.74 101.013 254.87C100.806 249.043 100.471 240.997 99.9779 232.123C99.4849 223.249 98.8933 215.213 98.42 209.445C98.1932 206.586 97.996 204.249 97.858 202.543C97.7988 201.774 97.7495 201.153 97.7199 200.67C97.6962 200.45 97.6962 200.229 97.7199 200.009C97.7829 200.221 97.8226 200.439 97.8383 200.66L98.0749 202.524C98.2721 204.141 98.5285 206.468 98.8045 209.426C99.3666 215.233 100.007 223.23 100.51 232.153C101.013 241.076 101.279 249.092 101.388 254.92C101.447 257.828 101.477 260.195 101.477 261.822C101.477 262.591 101.477 263.222 101.477 263.705C101.47 263.904 101.443 264.102 101.398 264.296Z" fill="#263238"/>
<path d="M110.843 268.28C110.619 268.223 110.398 268.15 110.183 268.063L108.3 267.363C106.673 266.712 104.267 265.825 101.329 264.405L101.545 264.326C100.58 266.395 99.2044 268.246 97.5029 269.769C95.4532 271.585 93.0959 273.021 90.5417 274.009C89.1412 274.553 87.6962 274.975 86.223 275.271L83.9355 275.783C83.1566 275.931 82.3678 276.05 81.5691 276.188C78.2622 276.727 74.921 277.03 71.5711 277.095C65.7928 277.188 60.0238 276.595 54.3851 275.33C49.7816 274.3 45.2952 272.803 40.9952 270.863C39.1514 270.055 37.5541 269.177 36.1539 268.428C34.7538 267.678 33.6002 266.89 32.6438 266.298L30.5337 264.898L29.9914 264.494C29.8731 264.405 29.814 264.356 29.8238 264.346L30.021 264.454L30.5929 264.809L32.7522 266.219C33.7382 266.781 34.8919 267.501 36.292 268.26C37.6921 269.019 39.25 269.838 41.1431 270.617C45.4335 272.506 49.9028 273.959 54.4837 274.955C60.0911 276.183 65.8216 276.759 71.5612 276.671C74.8876 276.608 78.2054 276.311 81.4902 275.783C82.2889 275.645 83.0678 275.537 83.8369 275.389L86.1047 274.886C87.5614 274.606 88.9902 274.197 90.3741 273.664C92.8997 272.712 95.2366 271.32 97.2761 269.552C98.961 268.085 100.33 266.29 101.299 264.277L101.368 264.129L101.526 264.198C104.415 265.608 106.811 266.545 108.428 267.245L110.281 268.033C110.477 268.096 110.665 268.179 110.843 268.28Z" fill="#263238"/>
<path d="M78.4041 243.788C78.1415 244.073 77.8508 244.33 77.5365 244.557C76.9547 245.03 76.087 245.661 74.9729 246.401C69.1214 250.221 62.4413 252.588 55.4895 253.303C54.4447 253.415 53.3949 253.475 52.3441 253.48C51.9577 253.526 51.5671 253.526 51.1807 253.48C51.1807 253.391 52.8273 253.342 55.45 252.997C62.2987 252.095 68.8821 249.767 74.7757 246.164C76.9942 244.715 78.3055 243.719 78.4041 243.788Z" fill="#263238"/>
<path d="M76.7773 225.951C76.5398 225.611 76.3444 225.244 76.1956 224.857C75.8505 224.127 75.387 223.072 74.825 221.751C73.7207 219.118 72.3009 215.43 70.9599 211.27C69.6189 207.109 68.5935 203.293 68.0019 200.512C67.6765 199.122 67.43 197.988 67.292 197.199C67.1852 196.797 67.1256 196.383 67.1145 195.967C67.2788 196.347 67.4011 196.743 67.4793 197.15C67.716 198.028 68.0019 199.122 68.347 200.424C69.0865 203.184 70.1514 206.971 71.4923 211.112C72.8333 215.253 74.194 219 75.2194 221.623L76.4322 224.778C76.5817 225.158 76.6972 225.551 76.7773 225.951Z" fill="#263238"/>
<path d="M87.7022 145.799C87.2607 145.452 86.8454 145.073 86.4598 144.665L83.1666 141.392L83.4722 141.293C83.1173 144.251 82.6637 148.037 82.1609 152.307V152.691L81.8355 152.494L77.2703 149.733C71.8966 146.47 67.0554 143.492 63.5551 141.323L59.3843 138.69L58.2701 137.96C58.1375 137.884 58.0149 137.791 57.9053 137.684C57.9053 137.684 58.063 137.734 58.3293 137.872L59.4829 138.522L63.6931 140.978C67.2427 143.078 72.1135 146.006 77.4971 149.26L82.0524 152.031L81.6777 152.218C82.2397 147.958 82.7426 144.162 83.1271 141.224V140.849L83.3835 141.116L86.5584 144.498C86.9755 144.899 87.3581 145.334 87.7022 145.799Z" fill="#263238"/>
<path d="M61.4844 139.597C61.7442 138.262 62.1681 136.963 62.7465 135.732C63.1689 134.437 63.7554 133.201 64.4917 132.054C64.2319 133.39 63.808 134.688 63.2296 135.919C62.798 137.211 62.212 138.446 61.4844 139.597Z" fill="white"/>
<path d="M70.033 133.553C70.1611 133.642 68.899 135.417 67.6863 137.793C66.4735 140.169 65.7143 142.21 65.5959 142.161C65.8516 140.538 66.4066 138.976 67.2327 137.556C67.9044 136.057 68.8547 134.698 70.033 133.553Z" fill="white"/>
<path d="M75.2193 136.462C74.7978 138.096 74.2165 139.684 73.4839 141.204C72.9067 142.787 72.1699 144.307 71.2852 145.74C71.7003 144.105 72.2784 142.516 73.0107 140.997C73.5839 139.411 74.3243 137.891 75.2193 136.462Z" fill="white"/>
<path d="M80.376 138.808C80.0758 140.629 79.607 142.418 78.9759 144.152C78.5125 145.941 77.8786 147.681 77.0828 149.349C77.383 147.528 77.8517 145.739 78.4829 144.005C78.9611 142.221 79.5945 140.482 80.376 138.808Z" fill="white"/>
<path d="M19.6779 225.951C19.6779 225.951 19.6779 225.882 19.5695 225.724C19.4755 225.495 19.3932 225.262 19.323 225.024C19.0333 224.116 18.8545 223.175 18.7905 222.224C18.7074 220.715 18.8368 219.201 19.1751 217.728C19.5596 216.002 20.1611 214.109 20.7625 211.979C23.2374 203.51 26.9546 191.895 31.7663 179.303C34.1623 173.013 36.578 167.067 38.9148 161.713C40.9031 156.905 43.5585 152.401 46.8028 148.333C49.0097 145.63 51.7016 143.363 54.7401 141.648C55.8506 141.003 57.0361 140.496 58.27 140.139L58.0432 140.258L57.3628 140.544C56.4955 140.918 55.6525 141.346 54.8387 141.825C51.8515 143.578 49.2059 145.856 47.0296 148.55C43.8674 152.619 41.2827 157.105 39.3486 161.881C37.0414 167.284 34.6355 173.2 32.2396 179.491C27.4476 192.062 23.6712 203.648 21.1076 212.088C20.4864 214.198 19.8653 216.101 19.4511 217.797C19.0961 219.241 18.9402 220.727 18.9877 222.214C19.0692 223.483 19.3009 224.737 19.6779 225.951Z" fill="white"/>
<path d="M71.5711 216.584C71.4755 216.656 71.369 216.713 71.2556 216.752L70.2696 217.195C69.4414 217.59 68.2089 218.181 66.6115 218.822C63.407 220.183 58.7235 222.047 52.8075 223.94C49.8495 224.926 46.5662 225.843 43.0264 226.74C41.2516 227.184 39.4078 227.627 37.5048 228.032C36.5304 228.268 35.5426 228.446 34.5468 228.564C33.5028 228.716 32.4376 228.614 31.4409 228.268C30.3973 227.871 29.5535 227.077 29.0942 226.06C28.6704 225.04 28.4914 223.936 28.5717 222.835C28.7903 220.632 29.2398 218.457 29.9126 216.347C31.0564 212.029 32.3185 207.572 33.6989 203.037C36.4597 193.955 39.4078 185.397 42.5137 177.785C45.2269 171.022 48.3146 164.416 51.7624 157.996C54.0998 153.677 56.6637 149.483 59.4433 145.434C60.4293 144.024 61.2773 142.95 61.8196 142.21L62.4506 141.382C62.5887 141.195 62.6675 141.106 62.6774 141.116C62.6243 141.22 62.5616 141.319 62.4901 141.412L61.8985 142.269C61.366 143.048 60.5969 144.143 59.6109 145.553C57.7277 148.511 54.9669 152.672 52.0779 158.174C48.683 164.602 45.6352 171.208 42.9475 177.963C39.9501 185.555 36.9921 194.103 34.251 203.175C32.8903 207.7 31.6184 212.157 30.4746 216.476C29.7922 218.544 29.3327 220.679 29.1041 222.845C29.0237 223.871 29.1859 224.901 29.5774 225.853C29.9789 226.758 30.7236 227.468 31.648 227.825C32.5795 228.141 33.5714 228.239 34.5468 228.11C35.5157 227.992 36.477 227.817 37.4259 227.588C39.3289 227.194 41.1727 226.76 42.9377 226.326C46.5169 225.458 49.8101 224.472 52.7681 223.585C58.6841 221.741 63.3873 219.927 66.5721 218.655L70.2696 217.126L71.2556 216.722C71.3552 216.664 71.4611 216.618 71.5711 216.584Z" fill="white"/>
<path d="M41.9221 205.886C41.9411 205.659 41.9807 205.435 42.0404 205.216C42.1588 204.723 42.3165 204.091 42.5039 203.303C42.6912 202.514 42.987 201.469 43.3222 200.345C43.6575 199.221 44.0519 197.85 44.535 196.401C47.058 188.845 49.984 181.429 53.3006 174.186C57.146 165.707 61.0012 158.203 63.9592 152.869C65.4284 150.187 66.6806 148.057 67.5581 146.598L68.5441 144.922C68.652 144.719 68.7845 144.53 68.9385 144.36C68.8542 144.575 68.752 144.783 68.6329 144.981L67.6469 146.696C66.8285 148.185 65.6749 150.345 64.2057 153.036C61.4055 158.41 57.6094 165.933 53.7541 174.403C49.8989 182.873 46.8521 190.711 44.8801 196.48C44.3773 197.919 43.8941 199.231 43.5983 200.424C43.3025 201.617 42.9081 202.573 42.6912 203.382L42.1489 205.265C42.0932 205.479 42.0173 205.687 41.9221 205.886Z" fill="white"/>
<path d="M67.913 202.327C67.6038 202.533 67.2732 202.704 66.927 202.839C66.2566 203.135 65.2903 203.549 64.0775 204.032C61.6618 205.018 58.2897 206.271 54.5034 207.503C50.7172 208.736 47.2563 209.702 44.7322 210.343C43.4602 210.658 42.4348 210.895 41.7742 211.043C41.4082 211.149 41.0309 211.212 40.6501 211.23C40.9918 211.062 41.3527 210.936 41.7249 210.856L44.6829 209.988C47.1775 209.268 50.5989 208.243 54.395 207.03C58.1911 205.817 61.5533 204.604 63.9986 203.717L66.8975 202.672C67.2198 202.514 67.5611 202.398 67.913 202.327Z" fill="white"/>
<path d="M56.5247 199.398C56.1645 197.423 55.9797 195.42 55.9725 193.413C55.7956 191.412 55.7956 189.399 55.9725 187.398C56.3218 189.375 56.5065 191.377 56.5247 193.383C56.6897 195.385 56.6897 197.397 56.5247 199.398Z" fill="white"/>
<path d="M64.7579 196.026C64.6199 196.026 64.1466 189.311 63.7128 181.009C63.2789 172.707 63.0324 165.963 63.1705 165.963C63.3085 165.963 63.7818 172.678 64.2255 180.98C64.6692 189.282 64.9058 196.016 64.7579 196.026Z" fill="white"/>
<path d="M74.2137 188.68C74.0927 188.128 74.0136 187.568 73.977 187.004C73.8489 185.92 73.701 184.352 73.5432 182.409C73.208 178.534 72.853 173.161 72.498 167.225C72.1431 161.289 71.8374 156.004 71.6008 152.041C71.4923 150.157 71.3937 148.609 71.3247 147.436C71.2772 146.872 71.2772 146.304 71.3247 145.74C71.4435 146.292 71.5226 146.853 71.5613 147.416C71.6895 148.501 71.8374 150.069 72.005 152.011C72.3304 155.896 72.6952 161.27 73.0502 167.195C73.4052 173.121 73.7108 178.416 73.9376 182.39C74.0559 184.263 74.1447 185.811 74.2137 186.984C74.2614 187.549 74.2614 188.116 74.2137 188.68Z" fill="white"/>
<path d="M91.8038 264.297C91.7913 264.202 91.7913 264.106 91.8038 264.011V263.153C91.8038 262.374 91.7249 261.279 91.6658 259.889C91.5474 257.01 91.3798 252.908 91.1826 247.85C90.7488 237.694 90.0191 223.664 88.905 208.193C87.7908 192.723 86.4301 178.731 85.3061 168.625C84.744 163.577 84.2609 159.485 83.9059 156.665C83.7383 155.284 83.6101 154.2 83.5115 153.411C83.5115 153.066 83.4524 152.79 83.4228 152.563C83.4141 152.468 83.4141 152.372 83.4228 152.277C83.4554 152.37 83.4785 152.466 83.4918 152.563C83.4918 152.78 83.5707 153.056 83.6299 153.401C83.7383 154.18 83.9059 155.265 84.113 156.635C84.5271 159.455 85.099 163.537 85.6709 168.586C86.8935 178.682 88.3035 192.674 89.4177 208.154C90.5319 223.634 91.2122 237.675 91.5474 247.84C91.7348 252.918 91.8235 257.04 91.8728 259.879C91.8728 261.27 91.8728 262.374 91.8728 263.153V264.011C91.8652 264.109 91.8419 264.206 91.8038 264.297Z" fill="white"/>
<path d="M74.5685 245.888C74.3598 242.77 74.3236 239.643 74.4601 236.521C74.4244 233.397 74.5627 230.273 74.8742 227.164C75.0768 230.282 75.1097 233.409 74.9728 236.531C75.008 239.655 74.8731 242.779 74.5685 245.888Z" fill="white"/>
<path d="M70.7232 268.615C70.6914 267.627 70.7408 266.638 70.8711 265.657C71.019 263.853 71.2064 261.358 71.3543 258.607C71.5022 255.856 71.5909 253.342 71.6501 251.538C71.6205 250.549 71.6766 249.559 71.8177 248.58C71.979 249.557 72.0418 250.548 72.0051 251.538C72.0051 253.352 72.0051 255.866 71.867 258.637C71.729 261.408 71.4726 263.902 71.236 265.697C71.1613 266.684 70.9895 267.662 70.7232 268.615Z" fill="white"/>
<path d="M56.2093 252.198C56.1525 251.212 56.1789 250.222 56.2882 249.24C56.4065 247.426 56.6037 244.922 56.8502 242.161C57.0967 239.4 57.3531 236.905 57.5601 235.101C57.6203 234.12 57.7688 233.147 58.0038 232.192C58.0606 233.179 58.0342 234.168 57.9249 235.15C57.8066 236.965 57.6094 239.469 57.3629 242.23C57.1164 244.991 56.8601 247.485 56.653 249.29C56.5916 250.27 56.4431 251.244 56.2093 252.198Z" fill="white"/>
<path d="M51.7821 266.505C51.6904 264.497 51.7729 262.485 52.0286 260.491C52.1187 258.481 52.3759 256.482 52.7976 254.515C52.8827 256.524 52.7969 258.536 52.5413 260.53C52.4579 262.54 52.204 264.539 51.7821 266.505Z" fill="white"/>
<path d="M39.3389 260.382C39.291 260.055 39.291 259.723 39.3389 259.396C39.3389 258.765 39.4474 257.858 39.5558 256.744C39.7727 254.506 40.1376 251.42 40.6108 248.028C41.0841 244.636 41.5968 241.559 41.9912 239.351C42.1983 238.247 42.3758 237.379 42.504 236.738C42.5451 236.398 42.6348 236.066 42.7702 235.752C42.7886 236.082 42.7654 236.413 42.7012 236.738C42.6026 237.468 42.4842 238.345 42.3561 239.371C42.0208 241.727 41.587 244.734 41.1137 248.057C40.6404 251.38 40.246 254.387 39.9206 256.744L39.5361 259.377C39.5152 259.719 39.4489 260.057 39.3389 260.382Z" fill="white"/>
<path d="M106.722 258.726C106.722 258.726 106.722 258.647 106.673 258.469C106.623 258.292 106.614 258.016 106.564 257.71L106.239 254.752L105.085 243.906C104.099 234.756 102.729 222.214 101.23 208.272C99.7313 194.33 98.1735 181.798 97.1184 172.648C96.5959 168.122 96.1324 164.444 95.8564 161.851C95.7183 160.609 95.6099 159.633 95.5408 158.893C95.5408 158.578 95.4817 158.321 95.462 158.124C95.4489 158.036 95.4489 157.946 95.462 157.858L95.5211 158.114C95.5211 158.321 95.5901 158.568 95.6394 158.873C95.738 159.583 95.8761 160.569 96.0536 161.831C96.3987 164.415 96.8818 168.083 97.4833 172.608C98.6467 181.709 100.185 194.3 101.733 208.213C103.281 222.125 104.573 234.736 105.45 243.877L106.436 254.723C106.535 255.975 106.614 256.961 106.673 257.681C106.673 257.996 106.673 258.243 106.722 258.45C106.737 258.541 106.737 258.634 106.722 258.726Z" fill="white"/>
<g opacity="0.3">
<path opacity="0.3" d="M90.453 221.632C89.3585 215.825 87.8894 209.406 83.0185 206.063L86.3019 219.867C86.6513 220.883 86.6513 221.987 86.3019 223.003C85.73 224.255 84.251 224.778 82.9298 225.162C67.3727 229.801 51.573 233.583 35.6018 236.491C44.4758 240.81 55.3218 239.262 64.8466 236.61C71.9984 234.638 79.068 232.4 86.0554 229.895C87.5344 229.363 89.112 228.751 89.9994 227.46C91.1432 225.803 90.8178 223.595 90.453 221.632Z" fill="black"/>
</g>
<g opacity="0.3">
<path opacity="0.3" d="M60.0645 177.607C55.4398 185.742 51.4478 194.22 48.124 202.967H48.8635C53.7935 201.824 57.7375 197.554 59.4137 192.743C61.0899 187.931 60.942 182.646 60.0645 177.607Z" fill="black"/>
</g>
<path d="M110.193 261.003C109.415 260.247 108.463 259.692 107.422 259.386C106.204 259.041 104.927 258.96 103.675 259.15C102.019 259.443 100.42 260.002 98.9424 260.806C95.1186 263.039 91.0866 264.895 86.9033 266.347C81.7396 268.043 76.3538 268.966 70.9203 269.088C65.4849 269.228 60.0564 268.614 54.7893 267.264C50.5042 266.131 46.3576 264.527 42.4249 262.482C39.7947 261.072 37.288 259.442 34.9313 257.611L33.048 256.024C32.8246 255.852 32.6137 255.664 32.417 255.462C32.661 255.607 32.8949 255.768 33.1171 255.945L35.0891 257.424C37.4836 259.176 40.0048 260.748 42.632 262.127C46.5579 264.114 50.6869 265.671 54.9471 266.771C60.1723 268.089 65.5531 268.686 70.94 268.546C76.3157 268.425 81.6457 267.528 86.7653 265.884C90.9319 264.467 94.9534 262.654 98.7748 260.471C100.295 259.668 101.938 259.122 103.636 258.854C104.927 258.682 106.239 258.796 107.481 259.189C108.265 259.431 108.991 259.834 109.611 260.372C109.833 260.554 110.029 260.767 110.193 261.003Z" fill="#263238"/>
<g opacity="0.3">
<path opacity="0.3" d="M83.3341 141.431L81.8847 152.277L58.2207 137.803C65.0448 146.624 73.8195 153.745 83.8567 158.607L85.247 146.253L89.0036 149.566C87.8374 146.416 85.8859 143.616 83.3341 141.431Z" fill="black"/>
</g>
<path d="M111.731 175.547L103.222 181.364V188.384C105.509 186.856 106.801 185.042 109.138 183.514C109.956 182.961 110.755 181.285 111.336 180.486C112.51 178.761 112.145 177.144 111.731 175.547Z" fill="#FFBE9D"/>
<path d="M117.844 200.976C116.016 200.961 114.211 200.569 112.541 199.824C110.872 199.079 109.374 197.998 108.142 196.647C106.933 195.275 106.08 193.626 105.658 191.847C105.237 190.067 105.26 188.211 105.726 186.442C106.234 184.685 107.233 183.109 108.606 181.9C109.979 180.692 111.669 179.9 113.476 179.619L114.61 183.257C114.61 183.257 108.97 186.018 110.045 190.948C111.12 195.878 118.13 196.401 118.13 196.401L117.844 200.976Z" fill="#E07A5F"/>
<path d="M113.299 178.485L115.931 204.476H137.564L140.502 178.505L113.299 178.485Z" fill="#E07A5F"/>
<path d="M112.727 192.279C111.455 192.171 110.163 191.944 110.084 191.5L109.936 190.613C109.936 190.613 114.512 190.031 114.807 188.996C114.893 188.314 114.85 187.621 114.679 186.955C114.594 186.492 114.416 186.05 114.156 185.657C113.896 185.265 113.559 184.928 113.166 184.669C112.773 184.409 112.331 184.231 111.868 184.146C111.404 184.061 110.929 184.071 110.469 184.174H110.41C109.435 184.407 108.447 184.585 107.452 184.707L103.764 183.671L103.32 181.315L93.7365 187.655L80.1987 196.864L83.7385 208.548L91.0546 204.456C91.0546 204.456 106.988 205.334 108.024 204.752C109.059 204.17 109.641 201.508 109.641 201.508C109.641 201.508 114.512 199.29 113.92 197.564C114.248 197.185 114.545 196.779 114.807 196.351C115.047 195.96 115.181 195.514 115.199 195.055C115.216 194.597 115.116 194.141 114.907 193.733C114.698 193.324 114.388 192.976 114.007 192.722C113.625 192.467 113.184 192.315 112.727 192.279Z" fill="#FFBE9D"/>
<path d="M131.402 192.506C131.288 191.683 131.262 190.85 131.323 190.021C131.323 188.493 131.431 186.373 131.451 184.046C131.492 182.962 131.44 181.877 131.293 180.802C131.193 179.955 130.76 179.182 130.09 178.653C129.635 178.302 129.067 178.13 128.493 178.17C128.089 178.17 127.882 178.337 127.852 178.298C127.823 178.258 128.01 178.091 128.454 177.972C128.771 177.91 129.098 177.912 129.414 177.978C129.731 178.044 130.031 178.173 130.297 178.357C130.687 178.631 131.017 178.981 131.267 179.386C131.518 179.791 131.685 180.243 131.757 180.713C131.938 181.814 132.007 182.931 131.964 184.046C131.964 186.393 131.796 188.513 131.688 190.041C131.679 190.87 131.583 191.697 131.402 192.506Z" fill="#263238"/>
<path d="M134.241 191.638L129.252 191.609L127.852 194.419V200.443H135.07L135.326 194.419L134.241 191.638Z" fill="#E0E0E0"/>
<path d="M124.45 147.485C124.557 147.501 124.658 147.542 124.746 147.603C125.015 147.758 125.25 147.966 125.436 148.215C125.754 148.693 125.961 149.235 126.043 149.803C126.125 150.371 126.079 150.95 125.909 151.498C125.584 152.908 124.549 154.298 124.026 156.004C123.734 156.875 123.755 157.82 124.085 158.676C124.556 159.568 125.143 160.394 125.831 161.131C126.595 161.937 127.059 162.982 127.142 164.089C127.099 165.109 126.756 166.094 126.156 166.919C125.091 168.487 123.849 169.601 123.306 170.863C123.077 171.342 122.958 171.866 122.958 172.396C122.958 172.927 123.077 173.451 123.306 173.93C123.504 174.269 123.757 174.572 124.056 174.827C124.056 174.827 123.947 174.827 123.76 174.699C123.507 174.519 123.293 174.292 123.129 174.028C122.851 173.526 122.696 172.965 122.675 172.391C122.655 171.817 122.77 171.246 123.011 170.725C123.543 169.355 124.805 168.171 125.791 166.683C126.316 165.925 126.611 165.031 126.639 164.109C126.545 163.127 126.121 162.206 125.436 161.496C124.707 160.726 124.096 159.852 123.622 158.903C123.254 157.954 123.237 156.905 123.573 155.945C124.174 154.121 125.209 152.79 125.545 151.469C125.72 150.967 125.785 150.433 125.736 149.904C125.687 149.375 125.524 148.863 125.259 148.402C125.038 148.056 124.766 147.747 124.45 147.485Z" fill="#263238"/>
<path d="M130.908 147.485C131.015 147.501 131.116 147.542 131.204 147.603C131.474 147.758 131.709 147.966 131.894 148.215C132.207 148.695 132.411 149.237 132.493 149.804C132.575 150.371 132.532 150.949 132.368 151.498C132.033 152.908 131.007 154.298 130.485 156.004C130.189 156.873 130.207 157.818 130.534 158.676C131.008 159.568 131.598 160.394 132.289 161.131C133.054 161.937 133.517 162.982 133.6 164.089C133.558 165.109 133.215 166.094 132.614 166.919C131.549 168.487 130.297 169.601 129.765 170.863C129.538 171.343 129.421 171.866 129.421 172.396C129.421 172.927 129.538 173.45 129.765 173.93C129.964 174.271 130.221 174.574 130.524 174.827C130.524 174.827 130.406 174.827 130.228 174.699C129.973 174.522 129.758 174.294 129.597 174.028C129.32 173.526 129.164 172.965 129.142 172.392C129.12 171.818 129.232 171.248 129.469 170.725C130.001 169.355 131.273 168.171 132.249 166.683C132.774 165.923 133.071 165.031 133.107 164.109C133.009 163.126 132.582 162.205 131.894 161.496C131.172 160.721 130.561 159.848 130.08 158.903C129.733 157.948 129.733 156.9 130.08 155.945C130.672 154.121 131.717 152.79 132.052 151.469C132.223 150.966 132.285 150.433 132.236 149.905C132.187 149.376 132.027 148.864 131.766 148.402C131.531 148.053 131.242 147.743 130.908 147.485Z" fill="#263238"/>
<path d="M130.83 198.264C131.368 198.318 131.909 198.182 132.358 197.88C132.8 197.522 133.084 197.005 133.147 196.44C133.214 195.735 133.062 195.026 132.713 194.409L132.555 194.133L132.9 194.222C132.282 194.54 131.706 194.934 131.185 195.395C130.78 195.756 130.492 196.23 130.356 196.756C130.271 197.255 130.333 197.769 130.534 198.235C130.534 198.235 130.366 198.165 130.218 197.909C130.022 197.537 129.949 197.112 130.011 196.696C130.11 196.076 130.403 195.502 130.849 195.06C131.386 194.548 131.994 194.116 132.654 193.778L132.871 193.65L132.999 193.867L133.167 194.172C133.568 194.885 133.724 195.709 133.61 196.519C133.561 196.854 133.442 197.175 133.26 197.46C133.078 197.746 132.838 197.989 132.555 198.175C132.175 198.42 131.721 198.521 131.273 198.461C130.958 198.402 130.82 198.294 130.83 198.264Z" fill="#263238"/>
<path d="M132.476 195.878C132.575 195.987 131.934 196.706 131.323 197.712C130.711 198.718 130.337 199.605 130.189 199.566C130.166 198.797 130.409 198.045 130.879 197.436C131.54 196.342 132.388 195.74 132.476 195.878Z" fill="#263238"/>
<path d="M100.382 171.297C100.403 169.684 100.29 168.071 100.047 166.476C99.5834 163.518 98.0748 159.662 96.1028 155.521C94.1308 151.38 92.4546 147.633 91.2418 144.833C90.6699 143.531 90.1966 142.437 89.822 141.569C89.6237 141.181 89.4715 140.77 89.3684 140.347C89.6178 140.705 89.8292 141.088 89.9994 141.49C90.4136 142.329 90.9854 143.403 91.5672 144.685C92.8687 147.387 94.6435 151.143 96.5662 155.304C98.4889 159.465 100.007 163.399 100.382 166.426C100.562 167.607 100.619 168.803 100.55 169.996C100.547 170.435 100.49 170.872 100.382 171.297Z" fill="#263238"/>
<path d="M401.556 402.11C401.84 403.863 402.392 405.562 403.192 407.148C404.326 409.031 404.573 412.936 404.454 415.46C404.336 417.984 404.198 424.896 405.204 426.917C406.21 428.939 409.276 432.833 410.134 435.851C410.992 438.868 411.268 443.029 410.134 445.711C409 448.392 407.984 452.258 406.19 452.889C404.395 453.52 399.012 452.889 399.012 452.889C399.012 452.889 399.012 451.005 399.771 450.374C400.53 449.743 403.173 448.481 403.419 446.43C403.666 444.379 404.05 441.017 404.05 441.017C404.05 441.017 397.631 438.375 394.358 435.219C391.084 432.064 386.933 427.617 386.933 427.617C386.246 430.178 385.36 432.68 384.281 435.101C383.862 435.919 383.644 436.825 383.644 437.744C383.644 438.663 383.862 439.568 384.281 440.386C384.665 441.264 379.873 446.519 374.589 450.463C369.304 454.407 364.896 451.972 364.896 451.972C364.896 451.972 364.137 448.698 365.527 448.028C366.874 447.636 368.283 447.508 369.678 447.653C369.678 447.653 376.225 442.861 375.466 439.341C374.707 435.821 372.449 431.788 372.193 429.136C371.936 426.484 371.818 425.241 371.818 425.241C367.759 425.788 363.667 426.039 359.572 425.991C356.978 425.902 354.407 425.481 351.92 424.738C351.92 424.738 349.781 437.832 351.171 439.716C352.561 441.599 356.959 445.129 357.343 447.525C357.728 449.921 357.087 453.372 354.316 453.096C351.546 452.82 351.674 451.124 351.802 448.905C350.075 447.22 348.473 445.411 347.01 443.492C346.133 441.983 341.35 428.761 341.35 428.761C341.35 428.761 333.916 443.117 333.67 445.632C333.574 446.529 333.275 447.393 332.795 448.157C332.315 448.92 331.666 449.564 330.899 450.039C330.396 450.167 329.262 454.368 327.497 454.368C325.468 454.222 323.45 453.955 321.453 453.569C321.453 453.569 321.581 450.798 323.425 449.921C325.269 449.043 327.961 448.659 327.961 444.991C327.961 441.323 330.1 426.977 329.933 426.474C329.765 425.971 325.91 418.793 325.279 416.278C324.648 413.764 323.307 407.966 323.307 407.966C323.307 407.966 320.782 400.078 318.771 398.018C316.76 395.957 313.841 396.046 311.721 395.75C309.601 395.454 309.473 394.616 308.822 393.236C308.172 391.855 306.702 388.828 307.442 388.454C308.181 388.079 312.096 386.432 312.599 385.683C313.102 384.934 313.486 383.287 315.123 382.656C316.76 382.025 320.782 379.382 322.804 379.382C324.825 379.382 328.72 382.912 329.597 383.662C331.309 385.271 332.907 386.997 334.379 388.828C335.77 390.593 336.775 395.375 341.942 395.503C347.109 395.632 391.548 396.637 393.687 395.375C395.827 394.113 398.617 395.503 399.485 385.298C400.353 375.093 400.865 368.428 399.732 366.791C398.598 365.154 399.732 364.819 397.592 364.405C395.452 363.991 392.81 363.518 392.051 362.009C391.291 360.5 391.804 358.262 393.816 358.262C395.827 358.262 405.145 358.262 406.634 370.567C408.122 382.873 404.119 390.593 403.242 395.375C402.364 400.157 401.112 400.138 401.556 402.11Z" fill="#263238"/>
<path d="M368.189 424.521C369.183 424.546 370.177 424.45 371.147 424.235C372.196 423.962 373.23 423.633 374.243 423.249C375.507 422.753 376.835 422.438 378.187 422.313C379.576 422.261 380.955 422.556 382.2 423.17C383.209 423.654 384.139 424.285 384.961 425.044C385.519 425.539 386.027 426.087 386.48 426.681C386.805 427.095 386.953 427.351 386.923 427.371C386.894 427.391 386.144 426.493 384.725 425.31C383.896 424.623 382.981 424.046 382.003 423.594C380.821 423.039 379.522 422.775 378.217 422.825C376.902 422.947 375.609 423.242 374.372 423.703C373.351 424.079 372.307 424.388 371.246 424.63C370.511 424.786 369.756 424.829 369.008 424.758C368.723 424.729 368.446 424.649 368.189 424.521Z" fill="#455A64"/>
<path d="M328.266 385.022C327.641 381.728 326.556 378.538 325.042 375.547C324.865 375.202 324.638 374.827 324.253 374.768C323.681 374.699 323.346 375.379 323.208 375.941C322.836 377.408 322.605 378.907 322.518 380.418" fill="#263238"/>
<path d="M320.28 380.516C319.931 379.195 319.233 377.993 318.258 377.036C317.992 376.779 317.627 376.513 317.272 376.661C316.917 376.809 316.858 377.213 316.819 377.568C316.673 379.21 316.7 380.862 316.898 382.498" fill="#263238"/>
<path d="M308.142 391.352C308.82 391.027 309.349 390.456 309.621 389.755C309.774 389.042 309.647 388.297 309.266 387.675C309.266 387.675 307.501 388.207 307.373 388.72C307.245 389.232 308.142 391.352 308.142 391.352Z" fill="#455A64"/>
<path d="M323.198 380.082C323.138 379.571 323.171 379.053 323.297 378.554C323.385 378.002 323.474 377.46 323.553 376.907C323.573 376.726 323.623 376.55 323.701 376.385C323.73 376.319 323.773 376.26 323.825 376.211C323.877 376.162 323.939 376.124 324.007 376.099C324.089 376.071 324.177 376.066 324.261 376.083C324.346 376.101 324.425 376.14 324.49 376.197C324.63 376.36 324.731 376.552 324.786 376.76L324.963 377.272C325.349 378.453 325.581 379.68 325.653 380.92C325.707 381.31 325.663 381.706 325.525 382.074C325.397 382.34 325.239 382.419 325.219 382.39C325.2 382.36 325.279 382.252 325.338 382.015C325.382 381.663 325.365 381.306 325.288 380.96C325.116 379.762 324.843 378.581 324.47 377.43L324.302 376.927C324.267 376.802 324.213 376.683 324.145 376.572C324.079 376.709 324.036 376.856 324.016 377.006L323.661 378.613C323.585 379.124 323.429 379.62 323.198 380.082Z" fill="#455A64"/>
<path d="M314.797 382.833C315.648 382.165 316.596 381.63 317.607 381.246C318.551 380.696 319.576 380.3 320.644 380.073C319.796 380.758 318.849 381.31 317.834 381.709C316.888 382.242 315.863 382.621 314.797 382.833Z" fill="#455A64"/>
<path d="M329.587 415.647C329.877 416.594 330.26 417.509 330.731 418.379C332.024 420.385 333.699 422.118 335.661 423.476C336.805 424.235 338.097 424.758 339.073 425.567C339.952 426.26 340.671 427.134 341.183 428.13C341.523 428.792 341.797 429.486 342.001 430.201C342.096 430.454 342.152 430.72 342.169 430.99C342.07 430.99 341.765 429.905 340.867 428.308C340.337 427.389 339.63 426.584 338.787 425.941C337.85 425.202 336.598 424.699 335.375 423.91C333.362 422.505 331.68 420.678 330.445 418.556C330.091 417.9 329.835 417.196 329.686 416.466C329.596 416.203 329.562 415.924 329.587 415.647Z" fill="#455A64"/>
<path d="M327.418 413.064C327.576 413.064 327.586 414.543 328.168 416.229C328.749 417.915 329.617 419.098 329.499 419.187C328.603 418.478 327.966 417.494 327.684 416.387C327.242 415.337 327.148 414.172 327.418 413.064Z" fill="#455A64"/>
<path d="M318.988 385.89C318.99 386.064 318.94 386.234 318.845 386.38C318.75 386.526 318.613 386.64 318.453 386.708C318.293 386.776 318.116 386.794 317.945 386.762C317.774 386.729 317.617 386.646 317.493 386.524C317.37 386.401 317.285 386.245 317.251 386.075C317.216 385.904 317.233 385.727 317.299 385.566C317.365 385.405 317.477 385.268 317.622 385.171C317.766 385.074 317.936 385.022 318.11 385.022C318.341 385.022 318.563 385.113 318.727 385.276C318.892 385.438 318.985 385.659 318.988 385.89Z" fill="#455A64"/>
<path d="M320.073 386.176C319.964 386.294 319.215 385.456 317.992 385.505C317.507 385.565 317.064 385.813 316.76 386.196C316.464 386.482 316.277 386.679 316.217 386.639C316.158 386.6 316.217 386.344 316.474 385.969C316.616 385.74 316.796 385.537 317.006 385.367C317.279 385.127 317.629 384.994 317.992 384.993C318.604 384.968 319.203 385.176 319.668 385.574C319.974 385.831 320.122 386.077 320.073 386.176Z" fill="#455A64"/>
</svg>
