<svg width="1588" height="1402" viewBox="0 0 1588 1402" fill="none" xmlns="http://www.w3.org/2000/svg">
<path d="M189.63 1168.54C-40.37 1048.04 -35.87 649.043 69.63 531.543C170.17 419.567 423 358.544 538 231.044C653 103.544 868.26 -2.4569 1047.13 0.0433449C1226 2.54359 1361.76 -17.4568 1505.63 269.543C1649.5 556.544 1585.26 995.543 1456.63 1122.04C1328 1248.54 1189.23 1281.44 1061.63 1291.04C902.13 1303.04 419.63 1289.04 189.63 1168.54Z" fill="#3D405B" fill-opacity="0.03"/>
<g clip-path="url(#clip0_44:20)">
<path d="M1349.63 1163.22H338.63V1163.72H1349.63V1163.22Z" fill="#EBEBEB"/>
<path d="M1248.33 1195.75H1181.36V1196.26H1248.33V1195.75Z" fill="#EBEBEB"/>
<path d="M1096.74 1188.92H979.503V1189.42H1096.74V1188.92Z" fill="#EBEBEB"/>
<path d="M1179.34 1176.99H1069.93V1177.49H1179.34V1176.99Z" fill="#EBEBEB"/>
<path d="M474.852 1180.38H444.704V1180.89H474.852V1180.38Z" fill="#EBEBEB"/>
<path d="M623.064 1180.38H492.848V1180.89H623.064V1180.38Z" fill="#EBEBEB"/>
<path d="M793.883 1188.92H706.634V1189.42H793.883V1188.92Z" fill="#EBEBEB"/>
<path d="M817.844 1073.04H427.416C424.357 1073.03 421.426 1071.81 419.265 1069.65C417.104 1067.48 415.891 1064.55 415.891 1061.49V512.658C415.917 509.617 417.143 506.709 419.301 504.567C421.459 502.424 424.375 501.219 427.416 501.214H817.844C820.906 501.214 823.843 502.43 826.008 504.595C828.173 506.761 829.39 509.697 829.39 512.759V1061.49C829.39 1064.55 828.173 1067.49 826.008 1069.65C823.843 1071.82 820.906 1073.04 817.844 1073.04V1073.04ZM427.416 501.618C424.492 501.623 421.689 502.789 419.623 504.859C417.556 506.929 416.396 509.734 416.396 512.658V1061.49C416.396 1064.41 417.556 1067.22 419.623 1069.29C421.689 1071.36 424.492 1072.52 427.416 1072.53H817.844C820.77 1072.52 823.575 1071.36 825.645 1069.29C827.714 1067.22 828.879 1064.42 828.884 1061.49V512.658C828.879 509.732 827.714 506.927 825.645 504.858C823.575 502.788 820.77 501.623 817.844 501.618H427.416Z" fill="#EBEBEB"/>
<path d="M1255.22 1073.04H864.775C861.714 1073.03 858.781 1071.81 856.617 1069.65C854.453 1067.48 853.234 1064.55 853.229 1061.49V512.658C853.261 509.615 854.491 506.708 856.652 504.565C858.813 502.423 861.732 501.219 864.775 501.214H1255.22C1258.26 501.224 1261.17 502.431 1263.33 504.574C1265.48 506.716 1266.7 509.621 1266.73 512.658V1061.49C1266.73 1064.54 1265.52 1067.48 1263.36 1069.64C1261.2 1071.8 1258.28 1073.02 1255.22 1073.04V1073.04ZM864.775 501.618C861.848 501.623 859.043 502.788 856.974 504.858C854.905 506.927 853.74 509.732 853.735 512.658V1061.49C853.74 1064.42 854.905 1067.22 856.974 1069.29C859.043 1071.36 861.848 1072.52 864.775 1072.53H1255.22C1258.15 1072.52 1260.95 1071.36 1263.02 1069.29C1265.09 1067.22 1266.26 1064.42 1266.26 1061.49V512.658C1266.26 509.732 1265.09 506.927 1263.02 504.858C1260.95 502.788 1258.15 501.623 1255.22 501.618H864.775Z" fill="#EBEBEB"/>
<path d="M634.388 747.817H741.089V574.39H634.388V747.817Z" fill="#F0F0F0"/>
<path d="M612.793 747.817H728.431V574.39H612.793V747.817Z" fill="#F5F5F5"/>
<path d="M718.746 738.131V584.075H622.478V738.131H718.746Z" fill="white"/>
<path d="M695.412 713.018V609.168H645.812V713.018H695.412Z" fill="#F5F5F5"/>
<path d="M473.336 693.728H580.037V520.301H473.336V693.728Z" fill="#F0F0F0"/>
<path d="M451.72 693.728H567.358V520.301H451.72V693.728Z" fill="#F5F5F5"/>
<path d="M557.693 684.063V530.007H461.426V684.063H557.693Z" fill="white"/>
<path d="M534.359 634.16V579.89C534.359 566.199 523.261 555.1 509.57 555.1H509.549C495.858 555.1 484.76 566.199 484.76 579.89V634.16C484.76 647.851 495.858 658.95 509.549 658.95H509.57C523.261 658.95 534.359 647.851 534.359 634.16Z" fill="#F5F5F5"/>
<path d="M605.961 1160.37C663.597 1146.76 699.292 1089.01 685.689 1031.37C672.086 973.739 614.335 938.043 556.699 951.647C499.063 965.25 463.367 1023 476.97 1080.64C490.574 1138.27 548.325 1173.97 605.961 1160.37Z" fill="#E6E6E6"/>
<g style="mix-blend-mode:multiply" opacity="0.7">
<path d="M528.859 992.095C535.229 985.483 537.797 977.577 534.541 974.463C531.286 971.349 523.501 974.159 517.132 980.792C510.763 987.424 508.195 995.31 511.43 998.423C514.665 1001.54 522.47 998.626 528.859 992.095Z" fill="#E6E6E6"/>
</g>
<g style="mix-blend-mode:multiply" opacity="0.7">
<path d="M573.401 971.984C582.427 970.249 589.055 965.26 588.205 960.841C587.356 956.421 579.351 954.245 570.325 955.98C561.3 957.715 554.672 962.704 555.521 967.123C556.371 971.543 564.376 973.719 573.401 971.984Z" fill="#E6E6E6"/>
</g>
<g style="mix-blend-mode:multiply" opacity="0.7">
<path d="M564.245 1009.4C572.919 1006.37 578.399 999.576 576.559 994.258C574.719 988.94 566.145 987.08 557.471 990.214C548.797 993.348 543.317 1000.04 545.137 1005.36C546.957 1010.68 555.57 1012.46 564.245 1009.4Z" fill="#E6E6E6"/>
</g>
<path d="M659.926 1163.22H761.269V862.707H659.926V1163.22Z" fill="#E6E6E6"/>
<path d="M679.175 1163.22H659.926V1125.26H699.355L679.175 1163.22Z" fill="#F0F0F0"/>
<path d="M1209.63 1163.22H1310.97V862.707H1209.63V1163.22Z" fill="#E6E6E6"/>
<path d="M659.946 1146.41H1226.45V862.687H659.946V1146.41Z" fill="#F0F0F0"/>
<path d="M1207.2 1163.22H1226.45V1125.26H1187.02L1207.2 1163.22Z" fill="#F0F0F0"/>
<path d="M1210.54 896.312V995.391H675.819V896.312H1210.54V896.312ZM1211.51 895.362H674.868V996.462H1211.51V895.362V895.362Z" fill="#FDFEFF"/>
<path d="M1210.54 1013.69V1112.77H675.819V1013.69H1210.54ZM1211.51 1012.72H674.868V1113.82H1211.51V1012.78V1012.72Z" fill="#FDFEFF"/>
<path d="M902.02 910.709H984.356C986.373 910.712 988.37 910.317 990.235 909.547C992.099 908.777 993.793 907.647 995.221 906.221C996.648 904.796 997.78 903.103 998.553 901.24C999.325 899.377 999.723 897.379 999.723 895.362H886.592C886.592 897.384 886.991 899.387 887.768 901.254C888.544 903.121 889.682 904.817 891.115 906.243C892.549 907.669 894.25 908.798 896.122 909.564C897.993 910.331 899.997 910.72 902.02 910.709V910.709Z" fill="#FDFEFF"/>
<path d="M902.02 1028.09H984.356C986.377 1028.1 988.381 1027.71 990.253 1026.95C992.125 1026.19 993.829 1025.06 995.266 1023.64C996.703 1022.22 997.845 1020.53 998.627 1018.67C999.409 1016.8 999.816 1014.8 999.824 1012.78H886.592C886.6 1014.8 887.005 1016.79 887.785 1018.66C888.564 1020.52 889.703 1022.21 891.136 1023.63C892.568 1025.05 894.267 1026.17 896.134 1026.94C898.002 1027.7 900.002 1028.09 902.02 1028.09V1028.09Z" fill="#FDFEFF"/>
<path d="M1039.66 842.143C1036.38 779.724 1032.9 717.649 1040.04 686.328L1051.69 680.262C1051.69 680.262 1049.14 686.105 1047.79 781.746C1046.43 877.387 1044.79 827.949 1046.21 842.163L1039.66 842.143Z" fill="#E6E6E6"/>
<path d="M1065.82 612.08C1093.2 576.129 1154.22 539.996 1219.21 523.456C1244.71 517.006 1201.48 637.497 1109.7 648.961C1064.87 654.643 1047.46 715.546 1038.24 744.824C1039.03 687.945 1038.44 648.031 1065.82 612.08Z" fill="#E6E6E6"/>
<path d="M1023.85 663.803C1001.91 635.009 953.075 606.054 900.988 592.871C880.546 587.695 915.142 684.225 988.703 693.405C1024.61 697.894 1038.55 746.664 1045.93 770.119C1045.32 724.564 1045.78 692.596 1023.85 663.803Z" fill="#E6E6E6"/>
<path d="M1043.94 862.687C1020.89 862.687 1001.85 861.453 1000.53 838.423L996.69 808.214H1091.18L1087.34 838.423C1086.02 861.453 1066.97 862.687 1043.94 862.687Z" fill="#F0F0F0"/>
<path d="M1097.28 820.71H990.583L987.53 782.292H1100.36L1097.28 820.71Z" fill="#F0F0F0"/>
<path d="M844.13 1254.53C1060.65 1254.53 1236.18 1244.28 1236.18 1231.64C1236.18 1219 1060.65 1208.75 844.13 1208.75C627.609 1208.75 452.084 1219 452.084 1231.64C452.084 1244.28 627.609 1254.53 844.13 1254.53Z" fill="#F5F5F5"/>
<path d="M897.292 741.213C916.101 722.404 916.101 691.908 897.292 673.099C878.483 654.29 847.987 654.29 829.178 673.099C810.369 691.908 810.369 722.404 829.178 741.213C847.987 760.022 878.483 760.022 897.292 741.213Z" fill="#E07A5F"/>
<path d="M895.893 673.913C895.027 673.915 894.162 673.854 893.305 673.731L893.568 671.709C904.669 673.225 921.977 663.621 931.319 650.68C932.512 649.042 933.624 647.384 934.756 645.726C942.844 633.736 951.316 621.341 979.24 621.341C1010.06 621.341 1033.09 603.345 1037.23 591.011L1039.15 591.638C1034.8 604.639 1010.99 623.444 979.24 623.444C952.449 623.444 944.704 634.848 936.495 646.939C935.363 648.617 934.21 650.296 933.017 651.934C923.938 664.389 907.621 673.913 895.893 673.913Z" fill="#E07A5F"/>
<path d="M911.685 709.096C911.8 709.027 911.9 708.936 911.979 708.828C912.058 708.72 912.114 708.597 912.145 708.467C912.175 708.337 912.178 708.202 912.155 708.07C912.132 707.938 912.082 707.812 912.008 707.7C911.863 707.475 911.635 707.317 911.373 707.26C911.112 707.203 910.839 707.253 910.613 707.397C907.538 709.336 904.359 711.104 901.09 712.695C901.09 712.169 901.09 711.623 900.948 711.077C904.547 709.338 908.126 707.437 911.624 705.375C911.85 705.237 912.013 705.015 912.077 704.758C912.142 704.501 912.102 704.229 911.968 704C911.903 703.884 911.815 703.783 911.711 703.702C911.606 703.62 911.486 703.561 911.357 703.527C911.229 703.493 911.095 703.485 910.964 703.504C910.833 703.523 910.707 703.568 910.593 703.636C907.358 705.557 904.062 707.276 900.746 708.893C900.341 705.385 899.74 701.901 898.946 698.46C901.722 693.997 904.201 689.357 906.367 684.569C906.424 684.448 906.456 684.318 906.461 684.184C906.467 684.051 906.445 683.919 906.398 683.794C906.351 683.669 906.279 683.556 906.187 683.459C906.095 683.363 905.984 683.287 905.861 683.234C905.617 683.125 905.34 683.117 905.09 683.211C904.84 683.306 904.637 683.496 904.527 683.74C902.679 687.845 900.585 691.835 898.259 695.69C897.875 694.193 897.43 692.697 896.944 691.181C899.227 687.307 901.253 683.288 903.01 679.15C903.112 678.9 903.111 678.621 903.009 678.371C902.907 678.122 902.712 677.922 902.465 677.815C902.218 677.715 901.941 677.715 901.695 677.818C901.449 677.92 901.253 678.115 901.15 678.361C899.661 681.871 897.973 685.294 896.095 688.613C894.164 683.059 891.692 677.709 888.715 672.639C891.849 671.284 893.689 670.617 893.79 670.617C893.915 670.572 894.029 670.503 894.126 670.413C894.224 670.323 894.302 670.214 894.357 670.094C894.411 669.973 894.441 669.843 894.445 669.71C894.448 669.578 894.425 669.446 894.377 669.323C894.285 669.071 894.098 668.865 893.855 668.752C893.612 668.638 893.334 668.625 893.082 668.716C893.082 668.716 891.06 669.505 887.643 670.961C887.225 670.246 886.78 669.572 886.309 668.939C888.331 667.928 889.483 667.402 889.544 667.361C889.666 667.309 889.777 667.232 889.869 667.136C889.961 667.04 890.033 666.926 890.08 666.802C890.128 666.677 890.149 666.544 890.144 666.411C890.138 666.278 890.106 666.147 890.049 666.027C889.939 665.783 889.737 665.593 889.487 665.499C889.236 665.404 888.959 665.412 888.715 665.521C888.715 665.521 887.36 666.148 885.156 667.26C883.761 665.238 882.265 663.216 880.647 661.316C880.563 661.213 880.46 661.129 880.342 661.067C880.225 661.005 880.097 660.967 879.965 660.956C879.833 660.945 879.7 660.96 879.574 661.001C879.448 661.042 879.332 661.108 879.232 661.194C879.124 661.284 879.036 661.395 878.973 661.52C878.911 661.645 878.875 661.782 878.868 661.922C878.423 661.356 877.958 660.81 877.493 660.264C877.409 660.162 877.305 660.077 877.188 660.015C877.071 659.954 876.943 659.916 876.811 659.905C876.679 659.893 876.546 659.909 876.42 659.949C876.294 659.99 876.177 660.056 876.077 660.143C875.874 660.319 875.747 660.568 875.724 660.836C875.702 661.104 875.785 661.371 875.956 661.579C878.017 663.956 879.935 666.454 881.699 669.06L880.708 669.586C878.281 665.875 875.577 662.354 872.62 659.051C872.526 658.956 872.414 658.881 872.291 658.83C872.168 658.778 872.035 658.752 871.902 658.752C871.768 658.752 871.636 658.778 871.513 658.83C871.39 658.881 871.278 658.956 871.184 659.051C871.053 659.16 870.961 659.309 870.921 659.476C870.782 659.288 870.653 659.092 870.537 658.889C870.464 658.777 870.368 658.68 870.257 658.605C870.146 658.529 870.021 658.477 869.889 658.451C869.757 658.424 869.621 658.424 869.49 658.451C869.358 658.478 869.233 658.531 869.122 658.606C868.903 658.751 868.75 658.976 868.697 659.233L868.414 658.707C868.282 658.475 868.065 658.303 867.808 658.227C867.552 658.152 867.276 658.179 867.039 658.303C866.806 658.435 866.635 658.653 866.563 658.911C866.491 659.169 866.524 659.444 866.655 659.678C869.263 664.389 871.649 668.999 873.813 673.569L873.267 673.892C870.997 668.538 868.292 663.378 865.179 658.465C865.111 658.345 865.019 658.241 864.91 658.159C864.8 658.076 864.675 658.016 864.541 657.984C864.408 657.951 864.27 657.946 864.134 657.968C863.999 657.991 863.869 658.041 863.754 658.115C863.638 658.189 863.539 658.286 863.463 658.4C863.386 658.514 863.333 658.642 863.307 658.777C863.282 658.912 863.284 659.051 863.314 659.185C863.343 659.319 863.4 659.445 863.48 659.557C866.571 664.452 869.243 669.599 871.467 674.944L870.113 675.753C867.606 669.834 864.715 664.086 861.458 658.546C861.393 658.43 861.306 658.328 861.201 658.247C861.096 658.166 860.976 658.107 860.848 658.073C860.72 658.039 860.586 658.031 860.455 658.05C860.323 658.068 860.197 658.113 860.083 658.182C859.852 658.32 859.685 658.544 859.617 658.805C859.549 659.066 859.586 659.343 859.719 659.577C862.993 665.123 865.884 670.885 868.374 676.824C866.493 677.997 864.512 679.251 862.469 680.606C859.396 673.432 855.659 666.561 851.308 660.082C851.235 659.972 851.14 659.877 851.03 659.804C850.92 659.731 850.796 659.681 850.666 659.656C850.536 659.632 850.402 659.634 850.273 659.662C850.143 659.69 850.021 659.743 849.913 659.819C849.691 659.968 849.537 660.197 849.484 660.459C849.431 660.72 849.483 660.992 849.63 661.215C853.975 667.693 857.705 674.564 860.771 681.738C859.012 682.911 857.232 684.124 855.392 685.438C851.664 677.783 847.485 670.356 842.876 663.196C842.729 662.971 842.498 662.813 842.234 662.758C841.971 662.703 841.696 662.755 841.471 662.903C841.246 663.05 841.088 663.281 841.033 663.545C840.978 663.808 841.03 664.083 841.178 664.308C845.797 671.469 849.99 678.896 853.734 686.55L850.782 688.694C847.507 680.767 844.069 672.518 840.672 664.43C840.619 664.307 840.543 664.196 840.447 664.104C840.351 664.011 840.238 663.938 840.114 663.889C839.99 663.84 839.858 663.816 839.725 663.819C839.591 663.821 839.46 663.85 839.338 663.904C839.095 664.01 838.905 664.208 838.806 664.454C838.708 664.699 838.71 664.974 838.812 665.218C842.33 673.468 845.828 681.778 849.185 689.846L847.325 691.241C844.069 683.153 840.915 674.722 838.084 666.067C838.041 665.941 837.973 665.824 837.884 665.724C837.796 665.624 837.688 665.542 837.568 665.484C837.447 665.425 837.317 665.392 837.183 665.384C837.05 665.377 836.916 665.396 836.79 665.441C836.597 665.499 836.427 665.616 836.304 665.776C836.181 665.935 836.111 666.129 836.102 666.33C835.93 666.29 835.75 666.29 835.577 666.33C835.447 666.357 835.323 666.409 835.213 666.483C835.103 666.557 835.009 666.653 834.935 666.763C834.862 666.874 834.811 666.998 834.786 667.129C834.761 667.259 834.762 667.393 834.788 667.523C836.707 676.888 839.288 686.104 842.512 695.103C838.933 697.995 835.314 701.169 831.715 704.425C830.283 692.892 830.968 681.195 833.737 669.909C833.767 669.776 833.771 669.639 833.749 669.505C833.726 669.37 833.677 669.242 833.605 669.126C833.459 668.893 833.226 668.727 832.958 668.666C832.69 668.604 832.408 668.651 832.175 668.797C831.942 668.943 831.776 669.176 831.715 669.444C828.819 681.457 828.222 693.909 829.956 706.143L828.621 707.377C826.871 695.952 827.213 684.305 829.632 673.003C829.662 672.874 829.665 672.74 829.642 672.61C829.62 672.48 829.571 672.355 829.499 672.244C829.428 672.133 829.335 672.037 829.226 671.963C829.116 671.888 828.993 671.836 828.864 671.81C828.732 671.78 828.596 671.777 828.463 671.801C828.331 671.825 828.204 671.875 828.091 671.949C827.978 672.022 827.881 672.117 827.805 672.229C827.729 672.341 827.677 672.466 827.651 672.598C825.077 684.604 824.809 696.99 826.862 709.096L825.871 710.066C823.992 699.042 824.28 687.758 826.72 676.845C826.769 676.58 826.715 676.306 826.568 676.081C826.421 675.855 826.194 675.694 825.932 675.631C825.67 675.583 825.399 675.638 825.176 675.785C824.954 675.932 824.797 676.16 824.739 676.42C822.126 688.063 821.912 700.117 824.112 711.845L823.121 712.856C820.751 702.466 820.89 691.66 823.526 681.333C823.598 681.065 823.561 680.779 823.423 680.539C823.284 680.298 823.056 680.122 822.788 680.05C822.519 679.977 822.234 680.014 821.993 680.153C821.752 680.291 821.576 680.519 821.504 680.788C818.681 691.875 818.639 703.488 821.382 714.595L820.088 715.991C817.56 707.669 817.164 698.846 818.936 690.331C818.997 690.069 818.953 689.793 818.813 689.562C818.673 689.332 818.449 689.165 818.188 689.098C817.928 689.037 817.654 689.082 817.427 689.222C817.199 689.362 817.037 689.586 816.974 689.846C815.061 699.115 815.583 708.722 818.491 717.729C817.722 718.579 816.954 719.428 816.206 720.297C816.032 720.503 815.946 720.768 815.965 721.036C815.984 721.304 816.106 721.554 816.307 721.733C816.37 721.781 816.438 721.821 816.509 721.854C816.406 722.056 816.371 722.286 816.412 722.509C816.452 722.732 816.564 722.935 816.732 723.088C816.917 723.247 817.155 723.333 817.399 723.33C817.541 723.331 817.682 723.301 817.811 723.242C817.941 723.182 818.055 723.095 818.147 722.987L819.643 721.329C819.926 722.151 820.23 722.98 820.553 723.816C819.825 723.715 819.057 723.634 818.349 723.512C818.217 723.491 818.081 723.496 817.95 723.527C817.819 723.559 817.696 723.615 817.587 723.694C817.478 723.773 817.386 723.873 817.315 723.987C817.245 724.102 817.198 724.229 817.177 724.362C817.155 724.494 817.16 724.63 817.192 724.761C817.223 724.892 817.279 725.015 817.358 725.124C817.437 725.233 817.537 725.325 817.651 725.396C817.766 725.466 817.893 725.513 818.026 725.534C817.945 725.652 817.884 725.782 817.844 725.919C817.798 726.162 817.842 726.413 817.969 726.625C818.095 726.838 818.296 726.996 818.531 727.071C818.52 727.124 818.52 727.179 818.531 727.233C818.501 727.363 818.498 727.498 818.52 727.629C818.543 727.761 818.591 727.887 818.663 728C818.734 728.112 818.827 728.21 818.936 728.287C819.046 728.363 819.169 728.417 819.3 728.446L822.919 729.214C823.061 729.538 823.222 729.861 823.384 730.185L821.463 729.821C821.333 729.791 821.198 729.787 821.067 729.81C820.935 729.833 820.809 729.881 820.696 729.952C820.584 730.024 820.486 730.117 820.409 730.226C820.333 730.336 820.279 730.459 820.25 730.589C820.196 730.855 820.248 731.131 820.396 731.358C820.543 731.584 820.774 731.744 821.039 731.803C822.232 732.045 823.364 732.227 824.537 732.429L824.82 732.996L823.222 732.692C823.09 732.666 822.953 732.666 822.82 732.692C822.687 732.718 822.561 732.77 822.448 732.845C822.336 732.921 822.239 733.017 822.163 733.13C822.088 733.242 822.036 733.368 822.009 733.501C821.983 733.634 821.982 733.771 822.009 733.903C822.035 734.036 822.087 734.163 822.162 734.275C822.237 734.388 822.334 734.485 822.446 734.56C822.559 734.635 822.685 734.688 822.818 734.714C823.93 734.957 825.002 735.119 826.114 735.321L826.66 736.271L825.649 735.907C825.524 735.859 825.391 735.835 825.257 735.838C825.123 735.841 824.991 735.871 824.869 735.926C824.747 735.98 824.636 736.059 824.545 736.156C824.453 736.254 824.381 736.368 824.334 736.494C824.242 736.743 824.252 737.019 824.362 737.261C824.472 737.503 824.673 737.692 824.921 737.788C826.033 738.212 827.185 738.597 828.358 738.96C828.48 739.122 828.581 739.284 828.682 739.446C828.445 739.369 828.188 739.382 827.961 739.483C827.733 739.584 827.551 739.765 827.448 739.992C827.395 740.114 827.366 740.245 827.363 740.379C827.361 740.512 827.385 740.644 827.434 740.768C827.482 740.892 827.555 741.006 827.648 741.101C827.741 741.197 827.852 741.273 827.974 741.326C828.823 741.71 829.774 742.054 830.764 742.398C831.917 743.975 833.11 745.492 834.404 746.947C834.404 746.947 834.404 746.947 834.404 747.048H834.505C834.647 747.129 834.807 747.171 834.97 747.17V747.17C835.07 747.189 835.173 747.189 835.273 747.17L836.709 746.725C837.659 747.918 838.731 749.091 839.661 750.223C839.756 750.329 839.871 750.414 839.999 750.473C840.128 750.532 840.268 750.564 840.409 750.567C840.662 750.56 840.904 750.467 841.097 750.304C841.192 750.21 841.267 750.098 841.318 749.975C841.369 749.852 841.396 749.72 841.396 749.586C841.396 749.453 841.369 749.32 841.318 749.197C841.267 749.074 841.192 748.962 841.097 748.868C840.288 747.958 839.499 746.988 838.711 746.037L839.358 745.815C841.38 748.626 843.685 751.396 846.152 754.125C846.245 754.232 846.36 754.318 846.489 754.377C846.618 754.436 846.758 754.468 846.9 754.469C847.147 754.464 847.383 754.371 847.567 754.206C847.679 754.097 847.769 753.966 847.83 753.822V753.822C847.948 753.728 848.042 753.608 848.105 753.471C848.168 753.334 848.199 753.184 848.194 753.034C848.416 753.317 848.619 753.62 848.821 753.903C848.918 754.03 849.044 754.133 849.188 754.203C849.331 754.273 849.49 754.309 849.65 754.307C849.863 754.309 850.07 754.238 850.236 754.105C850.344 754.027 850.435 753.928 850.505 753.815C850.574 753.701 850.621 753.575 850.641 753.444C850.662 753.312 850.657 753.178 850.625 753.049C850.594 752.919 850.537 752.797 850.459 752.69C848.653 750.242 846.973 747.705 845.424 745.087C847.183 745.208 848.983 745.289 850.863 745.289C856.064 745.26 861.253 744.779 866.372 743.854C870.76 750.789 873.793 754.773 873.873 754.894C873.97 755.016 874.093 755.114 874.233 755.18C874.373 755.247 874.527 755.28 874.682 755.278C874.902 755.283 875.116 755.211 875.289 755.076C875.411 754.98 875.509 754.857 875.575 754.716C875.642 754.576 875.675 754.422 875.673 754.267C875.74 754.279 875.808 754.279 875.875 754.267C875.996 754.286 876.119 754.286 876.239 754.267V754.267H876.34L876.482 754.146L876.603 753.984V753.802C876.603 753.802 876.603 753.681 876.603 753.62V753.741L876.805 753.863H876.906C877.027 753.882 877.15 753.882 877.27 753.863H877.473H877.574H877.776L877.917 753.741L878.059 753.62C878.1 753.571 878.134 753.516 878.16 753.458C878.168 753.398 878.168 753.337 878.16 753.276C878.171 753.209 878.171 753.141 878.16 753.074C878.169 753.034 878.169 752.993 878.16 752.953C878.16 752.811 877.998 748.403 877.23 741.346C878.2 741.063 879.151 740.76 880.101 740.437C879.973 744.243 879.616 748.037 879.03 751.8C879.006 751.932 879.009 752.066 879.039 752.197C879.068 752.327 879.123 752.45 879.2 752.559C879.277 752.668 879.375 752.761 879.488 752.832C879.601 752.903 879.727 752.951 879.859 752.973H880.526C880.763 752.976 880.993 752.894 881.175 752.742C881.357 752.59 881.478 752.378 881.517 752.144C881.631 752.226 881.762 752.281 881.901 752.306H882.103C882.312 752.301 882.516 752.233 882.685 752.11C882.855 751.987 882.984 751.816 883.053 751.618H883.215H883.437C883.667 751.616 883.889 751.537 884.068 751.394C884.248 751.251 884.374 751.053 884.428 750.83C885.419 746.381 886.167 742.135 886.713 738.01L887.684 737.585C887.219 741.144 886.592 744.824 885.803 748.666C885.777 748.796 885.776 748.93 885.801 749.061C885.826 749.191 885.877 749.315 885.95 749.426C886.024 749.537 886.118 749.632 886.228 749.706C886.338 749.781 886.462 749.833 886.592 749.859H886.794C887.027 749.859 887.253 749.779 887.434 749.631C887.614 749.484 887.738 749.279 887.785 749.05C888.674 744.723 889.362 740.578 889.807 736.574L890.514 736.251C889.989 739.709 889.402 743.227 888.634 746.867C888.607 746.997 888.607 747.131 888.632 747.261C888.657 747.391 888.708 747.516 888.781 747.626C888.854 747.737 888.949 747.832 889.059 747.907C889.169 747.981 889.292 748.033 889.423 748.059H889.625C889.857 748.056 890.081 747.974 890.261 747.827C890.441 747.68 890.566 747.477 890.616 747.251C891.485 743.085 892.152 739.041 892.638 735.119L894.66 734.067C893.963 737.589 892.989 741.051 891.748 744.42C891.699 744.543 891.676 744.675 891.68 744.807C891.683 744.94 891.713 745.07 891.768 745.191C891.822 745.311 891.901 745.42 891.998 745.51C892.095 745.6 892.21 745.669 892.334 745.714C892.454 745.742 892.579 745.742 892.698 745.714C892.905 745.708 893.105 745.642 893.274 745.523C893.443 745.405 893.573 745.239 893.649 745.047C895.121 741.029 896.231 736.888 896.965 732.672C897.329 732.45 897.693 732.268 898.036 732.045C897.471 735.182 896.562 738.247 895.327 741.185C895.261 741.339 895.234 741.506 895.247 741.673C895.261 741.84 895.315 742.001 895.404 742.142C895.494 742.283 895.616 742.401 895.761 742.484C895.906 742.567 896.07 742.614 896.237 742.62C896.434 742.621 896.627 742.564 896.793 742.456C896.958 742.348 897.088 742.195 897.167 742.014C898.702 738.355 899.769 734.516 900.341 730.589C903.233 728.729 906.014 726.704 908.672 724.523C908.775 724.44 908.859 724.336 908.921 724.219C908.983 724.102 909.02 723.973 909.032 723.841C909.043 723.709 909.028 723.576 908.987 723.451C908.946 723.325 908.88 723.208 908.793 723.108C908.705 722.999 908.594 722.911 908.468 722.848C908.343 722.785 908.206 722.75 908.065 722.744C908.611 722.279 909.198 721.854 909.744 721.369C909.845 721.284 909.928 721.179 909.988 721.061C910.048 720.943 910.083 720.815 910.093 720.683C910.102 720.551 910.085 720.418 910.042 720.293C910 720.168 909.933 720.052 909.845 719.954C909.669 719.75 909.42 719.623 909.152 719.601C908.883 719.578 908.617 719.661 908.409 719.832C906.036 721.898 903.537 723.816 900.928 725.575L901.049 724.2C904.53 721.848 907.834 719.247 910.937 716.415C911.031 716.323 911.106 716.213 911.157 716.091C911.208 715.97 911.234 715.839 911.234 715.707C911.234 715.576 911.208 715.445 911.157 715.324C911.106 715.202 911.031 715.092 910.937 715C910.819 714.868 910.664 714.776 910.492 714.737L911.098 714.332C911.32 714.184 911.474 713.954 911.527 713.693C911.58 713.432 911.528 713.16 911.382 712.937C911.23 712.726 911.008 712.575 910.755 712.513L911.28 712.23C911.516 712.098 911.69 711.879 911.764 711.619C911.838 711.359 911.806 711.081 911.675 710.845C911.543 710.609 911.324 710.435 911.064 710.361C910.804 710.287 910.526 710.319 910.29 710.45C907.176 712.189 904.102 713.807 901.049 715.364C901.06 715.182 901.06 715 901.049 714.818C904.705 713.124 908.257 711.213 911.685 709.096ZM899.148 713.605L898.299 713.989C898.299 713.443 898.299 712.897 898.299 712.351L899.128 711.967C899.088 712.513 899.128 713.059 899.148 713.524V713.605ZM899.33 718.639V719.307L898.34 719.853C898.34 719.59 898.34 719.347 898.34 719.084L899.33 718.639ZM882.669 731.418C882.669 730.67 882.669 729.902 882.548 729.134L882.892 729.012C882.892 729.801 882.892 730.549 882.892 731.338L882.669 731.418ZM882.892 733.319C882.892 733.865 882.892 734.391 882.892 734.916H882.75V733.36L882.892 733.319ZM871.953 740.72L871.75 740.214L873.509 739.81L873.631 740.295C873.065 740.437 872.438 740.598 871.953 740.72ZM874.136 742.216C875.41 747.19 876.158 750.688 876.482 752.184L872.701 742.58L874.136 742.216ZM853.755 736.049L855.918 734.512L859.376 734.249L856.282 736.029L853.755 736.049ZM888.129 709.763C887.785 710.187 887.421 710.612 887.057 711.016C886.895 709.379 886.693 707.761 886.43 706.164C886.794 705.739 887.138 705.294 887.481 704.849C887.805 706.528 888.007 708.165 888.189 709.844L888.129 709.763ZM889.18 702.666C889.726 701.958 890.252 701.23 890.777 700.482C891.06 702.16 891.283 703.838 891.485 705.557C890.959 706.245 890.454 706.912 889.928 707.579C889.787 705.982 889.524 704.344 889.241 702.746L889.18 702.666ZM840.652 741.488H841.056L840.773 741.63L840.652 741.488ZM839.398 739.264C838.994 738.556 838.59 737.808 838.205 737.06H838.953C839.317 737.828 839.661 738.576 840.045 739.304L839.398 739.264ZM837.113 734.916C836.992 734.633 836.851 734.35 836.709 734.067H837.599C837.74 734.35 837.862 734.633 837.983 734.916H837.113ZM835.739 731.964C835.597 731.641 835.435 731.317 835.294 730.974L836.345 731.095C836.466 731.418 836.588 731.742 836.729 732.065L835.739 731.964ZM834.667 726.586V726.707H833.494H834.647L834.667 726.586ZM834.343 728.709H835.435V728.911H834.303L834.343 728.709ZM869.162 725.453C869.344 725.999 869.526 726.545 869.688 727.071C868.677 727.314 867.666 727.516 866.655 727.718L866.149 726.464L866.756 725.939L869.162 725.453ZM865.462 730.205L864.896 730.589L864.673 730.165L865.401 730.043L865.462 730.205ZM864.026 728.183L864.512 727.799C864.533 727.897 864.567 727.992 864.613 728.082L864.026 728.183ZM862.591 730.488C862.773 730.893 862.975 731.257 863.157 731.641L861.438 731.883L860.811 730.751L862.591 730.488ZM875.349 725.251C876.057 724.665 876.765 724.079 877.371 723.452L879.859 722.744L879.98 724.2C878.443 724.705 876.886 725.191 875.329 725.615L875.349 725.251ZM881.638 719.63C881.84 719.448 882.022 719.246 882.204 719.064C882.204 719.367 882.204 719.65 882.204 719.954L881.618 720.115L881.638 719.63ZM881.901 722.198L882.467 722.016V723.371L881.961 723.533C882.123 723.169 882.103 722.724 882.042 722.279L881.901 722.198ZM884.428 721.389L885.561 721.025V722.259L884.509 722.663C884.57 722.319 884.57 721.895 884.57 721.47L884.428 721.389ZM884.246 719.367C884.246 718.862 884.246 718.376 884.105 717.871L885.459 717.426C885.459 717.911 885.459 718.417 885.459 718.922L884.246 719.367ZM876.482 721.652L874.763 722.077C874.763 721.672 874.622 721.268 874.541 720.864L878.686 719.65C878.099 720.399 877.371 721.066 876.623 721.713L876.482 721.652ZM871.407 725.858C871.407 725.595 871.245 725.312 871.144 725.029L873.004 724.604L871.407 725.858ZM861.297 727.88L860.063 728.83H859.76L858.931 727.294L860.953 726.99L861.297 727.88ZM857.596 729.134C850.999 729.752 844.358 729.752 837.761 729.134C837.761 729.012 837.76 728.891 837.619 728.749H838.59C844.676 728.732 850.755 728.32 856.788 727.516L857.596 729.134ZM838.61 731.338C841.582 731.56 844.474 731.702 847.304 731.702C850.56 731.702 853.734 731.54 856.848 731.257L855.109 732.51C849.719 732.827 844.314 732.76 838.933 732.308L838.61 731.338ZM859.194 732.025V732.187H858.83L859.194 732.025ZM870.355 729.255C870.476 729.639 870.578 730.003 870.699 730.367L868.091 730.893C868.98 730.387 869.728 729.841 870.416 729.275L870.355 729.255ZM872.377 728.648L873.894 728.244C873.894 728.689 874.035 729.134 874.116 729.558L872.741 729.902L872.377 728.648ZM875.855 727.718C877.371 727.294 878.868 726.849 880.364 726.363V727.678C878.949 728.163 877.493 728.608 876.017 729.032C876.037 728.628 875.976 728.183 875.895 727.678L875.855 727.718ZM882.325 725.696L882.73 725.555V726.869L882.346 727.01C882.426 726.586 882.386 726.161 882.366 725.656L882.325 725.696ZM884.711 724.847L885.682 724.483C885.682 724.908 885.682 725.373 885.682 725.797L884.833 726.121L884.711 724.847ZM887.704 723.715L888.735 723.31C888.735 723.715 888.735 724.119 888.735 724.523L887.744 724.948L887.704 723.715ZM887.704 721.531V720.398L888.776 720.014V721.106L887.704 721.531ZM887.704 718.255C887.704 717.75 887.704 717.244 887.603 716.739L888.715 716.314C888.715 716.84 888.715 717.366 888.715 717.891L887.704 718.255ZM887.461 714.616C887.461 714.353 887.461 714.09 887.461 713.827L888.513 712.634L888.634 714.191L887.461 714.616ZM885.338 713.14L883.923 714.636C883.741 713.099 883.559 711.542 883.316 710.005C883.801 709.459 884.287 708.914 884.752 708.347C884.954 709.945 885.156 711.502 885.318 713.16L885.338 713.14ZM882.143 716.496L881.456 716.718C881.274 715.404 881.072 714.09 880.849 712.674L881.577 711.886C881.739 713.524 881.961 715.02 882.123 716.516L882.143 716.496ZM879.474 717.406C877.998 717.871 876.502 718.296 875.026 718.72C876.401 717.386 877.756 716.011 879.07 714.676C879.232 715.546 879.333 716.496 879.454 717.426L879.474 717.406ZM872.741 721.45C872.741 721.854 872.903 722.259 872.964 722.643L870.699 723.169C870.656 723.064 870.622 722.956 870.598 722.845L871.851 721.713L872.741 721.45ZM866.008 724.159L865.381 724.281C865.26 723.957 865.138 723.613 864.997 723.29C865.887 723.108 866.796 722.926 867.686 722.704L866.008 724.159ZM863.359 724.625L862.186 724.827L861.762 723.957L862.995 723.715L863.359 724.625ZM860.104 725.191L858.082 725.453L857.677 724.685C858.365 724.584 859.032 724.443 859.699 724.321C859.821 724.624 859.962 724.887 860.083 725.191H860.104ZM855.938 725.737C849.662 726.535 843.339 726.9 837.012 726.828V726.647C843.242 726.505 849.456 725.958 855.615 725.009L855.938 725.737ZM836.244 724.625C834.481 719.4 833.129 714.045 832.2 708.61C836.062 705.173 839.964 701.958 843.847 698.986C846.974 707.217 850.538 715.276 854.523 723.128C848.462 724.021 842.349 724.52 836.224 724.625H836.244ZM834.222 724.625H833.009C831.465 720.304 830.235 715.878 829.329 711.38L830.582 710.187C831.425 715.083 832.607 719.914 834.121 724.645L834.222 724.625ZM830.825 724.625H829.976C828.609 721.18 827.5 717.638 826.66 714.029L827.59 713.099C828.402 716.987 829.449 720.822 830.724 724.584L830.825 724.625ZM833.231 730.852C833.373 731.156 833.494 731.499 833.636 731.803H833.191L832.665 730.812L833.231 730.852ZM834.606 733.946L834.97 734.694H834.748C834.606 734.451 834.465 734.209 834.343 733.946H834.606ZM842.694 739.79C842.29 739.021 841.906 738.253 841.521 737.444C843.543 737.646 845.565 737.788 847.587 737.889L844.251 739.911L842.694 739.79ZM840.531 735.382L840.106 734.451C843.099 734.674 846.051 734.815 848.861 734.815C850.014 734.815 851.106 734.815 852.218 734.815L850.196 736.13C847.041 735.927 843.786 735.766 840.45 735.341L840.531 735.382ZM861.337 735.523L861.519 735.806H860.771L861.337 735.523ZM863.056 734.451C863.46 734.209 863.865 733.966 864.249 733.703L865.138 735.442L863.642 735.604L863.056 734.451ZM866.432 733.36H866.877C867.12 733.986 867.363 734.613 867.605 735.2H867.363L866.432 733.36ZM868.333 736.918C868.434 737.161 868.515 737.383 868.596 737.626C868.494 737.391 868.379 737.161 868.252 736.938L868.333 736.918ZM871.083 738.374C870.861 737.788 870.618 737.201 870.375 736.595L872.579 736.19C872.741 736.757 872.903 737.363 873.065 737.909L871.083 738.374ZM869.647 734.775L868.899 732.894C869.769 732.733 870.638 732.571 871.487 732.369C871.69 733.056 871.872 733.724 872.054 734.391C871.184 734.492 870.416 734.613 869.567 734.735L869.647 734.775ZM873.449 731.904L874.541 731.621C874.642 732.328 874.763 733.036 874.844 733.643L874.035 733.845C873.772 733.218 873.57 732.551 873.368 731.863L873.449 731.904ZM876.502 731.115C877.917 730.731 879.292 730.306 880.546 729.861C880.546 730.589 880.647 731.358 880.667 732.086C879.353 732.51 878.059 732.915 876.724 733.258C876.644 732.531 876.482 731.722 876.482 731.075L876.502 731.115ZM884.994 728.325L885.641 728.062C885.641 728.83 885.641 729.599 885.54 730.367L884.994 730.589C884.893 729.7 884.914 729.053 884.914 728.284L884.994 728.325ZM887.724 727.253L888.755 726.808C888.755 727.556 888.755 728.325 888.614 729.073C888.27 729.235 887.947 729.417 887.603 729.558C887.583 728.749 887.603 727.981 887.643 727.213L887.724 727.253ZM890.818 725.919L891.849 725.453C891.849 726.181 891.748 726.889 891.687 727.617L890.696 728.082L890.818 725.919ZM890.818 723.674C890.818 723.29 890.818 722.906 890.818 722.522C891.202 722.36 891.586 722.218 891.97 722.036V723.148L890.818 723.674ZM890.818 720.318V719.347L892.092 718.862C892.092 719.165 892.092 719.448 892.092 719.772L890.818 720.318ZM890.818 717.204C890.818 716.658 890.818 716.132 890.818 715.606L892.253 715.04C892.253 715.586 892.253 716.132 892.253 716.658L890.818 717.204ZM890.636 713.524C890.636 712.533 890.474 711.502 890.373 710.551L891.91 708.671C891.91 710.066 892.051 711.522 892.112 712.958L890.636 713.524ZM893.588 706.487L895.367 704.02C895.731 706.426 895.994 708.812 896.176 711.178L893.992 712.129C893.851 710.127 893.709 708.226 893.527 706.386L893.588 706.487ZM893.264 703.495C893.042 701.796 892.759 700.138 892.435 698.48L893.851 696.458C894.235 698.035 894.579 699.633 894.882 701.23L893.264 703.495ZM891.869 695.75C890.253 688.462 887.604 681.443 884.004 674.903L885.116 674.378C888.607 680.473 891.324 686.98 893.204 693.749L891.869 695.75ZM890.434 697.772C889.888 698.541 889.342 699.309 888.776 700.057C887.062 691.869 884.346 683.923 880.688 676.4L882.224 675.652C886.069 682.552 888.818 690.008 890.373 697.752L890.434 697.772ZM879.818 674.58L878.888 672.78L880.142 672.093L881.254 673.892L879.818 674.58ZM877.998 675.49L877.19 675.894C876.947 675.328 876.704 674.742 876.441 674.176L877.129 673.791C877.351 674.317 877.655 674.883 877.938 675.47L877.998 675.49ZM878.888 677.289C882.735 685.21 885.51 693.608 887.138 702.261L886.086 703.636C884.371 694.726 881.658 686.037 877.998 677.734L878.888 677.289ZM884.388 705.719L882.932 707.478C881.313 697.815 878.774 688.329 875.349 679.15L876.138 678.745C879.942 687.367 882.692 696.417 884.327 705.699L884.388 705.719ZM881.173 709.48L880.384 710.349C878.593 700.272 875.851 690.388 872.195 680.828L873.55 680.08C877.071 689.599 879.625 699.449 881.173 709.48V709.48ZM878.666 712.23C877.088 713.908 875.491 715.525 873.894 717.082C871.609 706.212 868.417 695.552 864.35 685.216C866.372 684.003 868.394 682.87 870.416 681.799C874.158 691.619 876.921 701.785 878.666 712.149V712.23ZM872.155 718.72L870.901 719.913L869.668 720.217C866.167 709.778 862.083 699.544 857.435 689.563C859.214 688.431 860.973 687.319 862.692 686.287C866.764 696.781 869.93 707.605 872.155 718.639V718.72ZM867.706 720.742L864.208 721.49C860.751 712.917 856.767 703.151 852.501 692.859L855.716 690.695C860.264 700.447 864.267 710.445 867.706 720.641V720.742ZM862.206 721.915L860.852 722.198C857.05 714.252 852.946 705.173 848.902 695.386L850.802 694.032C854.948 703.939 858.81 713.524 862.206 721.814V721.915ZM858.769 722.542L856.747 722.906C852.583 714.755 848.877 706.377 845.646 697.813L847.304 696.6C851.126 705.941 855.109 714.717 858.769 722.441V722.542ZM844.858 695.831L846.415 694.618V694.739L844.858 695.831ZM824.86 715.748C825.612 718.74 826.544 721.684 827.651 724.564H826.417C825.447 721.996 824.597 719.428 823.89 716.799L824.86 715.748ZM830.178 730.508C830.34 730.832 830.461 731.156 830.623 731.479L829.389 731.297L828.904 730.306L830.178 730.508ZM831.755 733.643L832.139 734.35L830.845 734.148C830.724 733.926 830.582 733.703 830.461 733.461L831.755 733.643ZM833.312 736.554C833.696 737.222 834.121 737.869 834.525 738.576L833.211 738.253C832.827 737.646 832.483 737.04 832.119 736.413L833.312 736.554ZM835.961 740.861C836.204 741.245 836.466 741.589 836.709 741.953L835.476 741.69C835.233 741.346 835.011 740.982 834.788 740.639L835.961 740.861ZM847.507 740.255C848.619 739.567 849.751 738.839 850.944 738.051H852.541C850.964 738.859 849.448 739.587 847.972 740.255H847.507ZM856.99 738.03C858.87 738.03 860.69 737.848 862.49 737.687C862.894 738.374 863.278 739.021 863.683 739.709C859.961 740.188 856.213 740.431 852.46 740.437C853.936 739.567 855.453 738.779 856.99 737.929V738.03ZM864.714 737.464L866.069 737.302L867.019 739.183L865.846 739.365L864.714 737.464ZM867.989 741.043L868.293 741.63L867.363 741.812L866.999 741.225L867.989 741.043ZM875.471 739.426C875.471 739.426 875.471 739.587 875.471 739.668V739.426ZM874.945 737.404C874.783 736.858 874.642 736.291 874.48 735.746L875.026 735.604C875.026 736.19 875.188 736.757 875.248 737.323L874.945 737.404ZM876.967 735.139C878.2 734.815 879.434 734.451 880.647 734.087C880.647 734.613 880.647 735.159 880.647 735.685C879.495 736.069 878.322 736.433 877.149 736.777C877.149 736.211 877.068 735.766 877.008 735.119L876.967 735.139ZM884.732 736.655C884.722 736.575 884.722 736.493 884.732 736.413C884.741 736.493 884.741 736.575 884.732 736.655ZM884.833 734.229C884.833 733.724 884.833 733.218 884.833 732.713L885.197 732.571C885.197 733.076 885.197 733.622 885.035 734.148L884.833 734.229ZM887.32 731.722L888.311 731.317C888.311 731.823 888.209 732.308 888.169 732.814L887.178 733.258C887.279 732.672 887.34 732.146 887.38 731.722H887.32ZM890.434 730.347L891.303 729.942C891.303 730.448 891.202 730.933 891.141 731.418L890.292 731.843C890.393 731.277 890.454 730.771 890.494 730.266L890.434 730.347ZM893.406 728.891C894.195 728.487 894.963 728.062 895.731 727.637L895.549 729.093C894.801 729.518 894.033 729.942 893.244 730.347C893.366 729.7 893.426 729.295 893.467 728.81L893.406 728.891ZM893.628 726.545C893.628 725.858 893.628 725.211 893.729 724.523L896.136 723.351C896.136 723.977 896.035 724.604 895.974 725.211C895.266 725.656 894.478 726.02 893.689 726.464L893.628 726.545ZM898.198 722.279L899.229 721.713C899.229 722.218 899.229 722.704 899.229 723.209L898.178 723.897C898.198 723.27 898.218 722.744 898.259 722.198L898.198 722.279ZM896.176 721.005C895.408 721.43 894.599 721.834 893.81 722.218V721.187L896.136 720.136C896.318 720.338 896.318 720.641 896.297 720.924L896.176 721.005ZM893.911 718.983V718.134L896.237 717.184V717.891L893.911 718.983ZM893.911 715.95C893.911 715.404 893.911 714.838 893.911 714.292L896.136 713.342V715L893.911 715.95ZM898.724 709.884L897.955 710.248C897.713 707.377 897.349 704.485 896.823 701.574L897.308 700.846C898.077 703.879 898.522 706.892 898.845 709.844L898.724 709.884ZM896.702 698.096C896.58 698.318 896.439 698.52 896.297 698.743C895.974 697.166 895.59 695.609 895.165 694.032L895.468 693.546C896.035 695.022 896.439 696.539 896.803 698.055L896.702 698.096ZM894.518 691.282C892.841 685.68 890.606 680.261 887.845 675.106C890.655 680.12 892.971 685.395 894.761 690.857L894.518 691.282ZM882.811 670.536L884.024 672.558L882.952 673.043L881.82 671.143L882.811 670.536ZM878.969 670.314L877.877 670.92C876.259 667.928 874.541 665.016 872.782 662.205C875.006 664.802 877.072 667.53 878.969 670.374V670.314ZM870.537 662.448C872.559 665.501 874.359 668.635 876.118 671.911L875.511 672.275C873.954 669.04 872.316 665.805 870.537 662.509V662.448ZM874.581 675.126C874.824 675.652 875.046 676.198 875.289 676.744L874.561 677.107C874.338 676.582 874.136 676.036 873.914 675.51L874.581 675.126ZM872.155 676.562C872.377 677.047 872.559 677.552 872.761 678.058L871.407 678.786C871.225 678.3 871.063 677.815 870.861 677.35L872.155 676.562ZM869.122 678.422C869.283 678.867 869.445 679.311 869.627 679.756C867.706 680.828 865.705 681.96 863.561 683.194C863.44 682.85 863.298 682.526 863.177 682.203C865.3 680.909 867.282 679.655 869.162 678.482L869.122 678.422ZM861.519 683.335L861.883 684.245C860.124 685.297 858.344 686.429 856.525 687.602L856.221 686.995C858.082 685.762 859.841 684.548 861.559 683.396L861.519 683.335ZM854.563 688.188L854.806 688.694C853.775 689.381 852.784 690.069 851.672 690.716L851.53 690.331C852.582 689.705 853.593 688.977 854.604 688.249L854.563 688.188ZM849.852 691.666L849.973 691.969L848.174 693.304C848.174 693.304 848.174 693.162 848.174 693.081L849.852 691.666ZM837.518 671.041C840.045 678.381 842.775 685.559 845.606 692.434L844.13 693.607C841.497 686.228 839.302 678.7 837.558 671.062L837.518 671.041ZM821.079 719.57C821.463 719.145 821.868 718.74 822.252 718.336C822.818 720.358 823.465 722.259 824.274 724.22L822.818 724.099C822.171 722.562 821.605 721.066 821.119 719.59L821.079 719.57ZM825.123 729.68L826.397 729.922L826.842 730.893L825.649 730.691C825.568 730.246 825.386 729.922 825.224 729.578L825.123 729.68ZM826.821 732.915L827.954 733.137C827.954 733.319 828.136 733.521 828.237 733.703L827.145 733.501L826.821 732.915ZM828.48 735.786L829.47 735.968C829.753 736.494 830.036 736.999 830.32 737.484L829.41 737.222L828.48 735.786ZM831.998 739.81C832.2 740.113 832.402 740.416 832.584 740.72L831.937 740.517L831.29 739.648L831.998 739.81ZM834.323 743.288L835.435 744.784C834.97 744.258 834.525 743.712 834.08 743.166L834.323 743.288ZM845.707 748.99C844.797 747.716 843.827 746.321 842.836 744.764H843.139C843.907 746.3 844.777 747.696 845.646 749.05L845.707 748.99ZM846.374 743.065L848.396 742.175C849.69 742.175 850.984 742.175 852.299 742.175C856.5 742.165 860.695 741.867 864.855 741.286C864.997 741.508 865.118 741.731 865.26 741.933C859.008 743.033 852.654 743.433 846.314 743.126L846.374 743.065ZM869.324 743.288C870.78 746.078 872.013 748.343 872.964 750.061C871.791 748.403 870.315 746.179 868.576 743.449L869.324 743.288ZM877.574 739.122C877.574 739.001 877.574 738.859 877.574 738.718C878.645 738.415 879.737 738.071 880.809 737.727C880.809 737.848 880.809 737.949 880.809 738.071C879.636 738.516 878.504 738.859 877.513 739.183L877.574 739.122ZM887.037 735.604C887.047 735.53 887.047 735.455 887.037 735.382L888.027 734.977V735.159L887.037 735.604ZM890.191 734.148V734.007L890.98 733.643V733.744L890.191 734.148ZM893.123 732.611L895.145 731.56L893.123 732.652V732.611ZM898.966 726.97L897.854 727.658C897.854 727.172 897.976 726.707 898.016 726.222L899.108 725.575C899.007 726.101 898.946 726.566 898.906 727.031L898.966 726.97ZM901.332 721.693C901.332 721.288 901.332 720.884 901.332 720.459C903.516 719.226 905.639 717.952 907.722 716.638C905.578 718.498 903.455 720.217 901.272 721.753L901.332 721.693ZM907.398 714.494C905.43 715.734 903.408 716.948 901.332 718.134C901.342 717.952 901.342 717.77 901.332 717.588C903.294 716.658 905.295 715.546 907.317 714.555L907.398 714.494ZM899.31 716.334L898.38 716.779V716.132L899.29 715.728C899.27 715.991 899.29 716.193 899.29 716.395L899.31 716.334Z" fill="#E07A5F"/>
<path opacity="0.2" d="M911.685 709.096C911.8 709.027 911.9 708.936 911.979 708.828C912.058 708.72 912.114 708.597 912.145 708.467C912.175 708.337 912.178 708.202 912.155 708.07C912.132 707.938 912.082 707.812 912.008 707.7C911.863 707.475 911.635 707.317 911.373 707.26C911.112 707.203 910.839 707.253 910.613 707.397C907.538 709.336 904.359 711.104 901.09 712.695C901.09 712.169 901.09 711.623 900.948 711.077C904.547 709.338 908.126 707.437 911.624 705.375C911.85 705.237 912.013 705.015 912.077 704.758C912.142 704.501 912.102 704.229 911.968 704C911.903 703.884 911.815 703.783 911.711 703.702C911.606 703.62 911.486 703.561 911.357 703.527C911.229 703.493 911.095 703.485 910.964 703.504C910.833 703.523 910.707 703.568 910.593 703.636C907.358 705.557 904.062 707.276 900.746 708.893C900.341 705.385 899.74 701.901 898.946 698.46C901.722 693.997 904.201 689.357 906.367 684.569C906.424 684.448 906.456 684.318 906.461 684.184C906.467 684.051 906.445 683.919 906.398 683.794C906.351 683.669 906.279 683.556 906.187 683.459C906.095 683.363 905.984 683.287 905.861 683.234C905.617 683.125 905.34 683.117 905.09 683.211C904.84 683.306 904.637 683.496 904.527 683.74C902.679 687.845 900.585 691.835 898.259 695.69C897.875 694.193 897.43 692.697 896.944 691.181C899.227 687.307 901.253 683.288 903.01 679.15C903.112 678.9 903.111 678.621 903.009 678.371C902.907 678.122 902.712 677.922 902.465 677.815C902.218 677.715 901.941 677.715 901.695 677.818C901.449 677.92 901.253 678.115 901.15 678.361C899.661 681.871 897.973 685.294 896.095 688.613C894.164 683.059 891.692 677.709 888.715 672.639C891.849 671.284 893.689 670.617 893.79 670.617C893.915 670.572 894.029 670.503 894.126 670.413C894.224 670.323 894.302 670.214 894.357 670.094C894.411 669.973 894.441 669.843 894.445 669.71C894.448 669.578 894.425 669.446 894.377 669.323C894.285 669.071 894.098 668.865 893.855 668.752C893.612 668.638 893.334 668.625 893.082 668.716C893.082 668.716 891.06 669.505 887.643 670.961C887.225 670.246 886.78 669.572 886.309 668.939C888.331 667.928 889.483 667.402 889.544 667.361C889.666 667.309 889.777 667.232 889.869 667.136C889.961 667.04 890.033 666.926 890.08 666.802C890.128 666.677 890.149 666.544 890.144 666.411C890.138 666.278 890.106 666.147 890.049 666.027C889.939 665.783 889.737 665.593 889.487 665.499C889.236 665.404 888.959 665.412 888.715 665.521C888.715 665.521 887.36 666.148 885.156 667.26C883.761 665.238 882.265 663.216 880.647 661.316C880.563 661.213 880.46 661.129 880.342 661.067C880.225 661.005 880.097 660.967 879.965 660.956C879.833 660.945 879.7 660.96 879.574 661.001C879.448 661.042 879.332 661.108 879.232 661.194C879.124 661.284 879.036 661.395 878.973 661.52C878.911 661.645 878.875 661.782 878.868 661.922C878.423 661.356 877.958 660.81 877.493 660.264C877.409 660.162 877.305 660.077 877.188 660.015C877.071 659.954 876.943 659.916 876.811 659.905C876.679 659.893 876.546 659.909 876.42 659.949C876.294 659.99 876.177 660.056 876.077 660.143C875.874 660.319 875.747 660.568 875.724 660.836C875.702 661.104 875.785 661.371 875.956 661.579C878.017 663.956 879.935 666.454 881.699 669.06L880.708 669.586C878.281 665.875 875.577 662.354 872.62 659.051C872.526 658.956 872.414 658.881 872.291 658.83C872.168 658.778 872.035 658.752 871.902 658.752C871.768 658.752 871.636 658.778 871.513 658.83C871.39 658.881 871.278 658.956 871.184 659.051C871.053 659.16 870.961 659.309 870.921 659.476C870.782 659.288 870.653 659.092 870.537 658.889C870.464 658.777 870.368 658.68 870.257 658.605C870.146 658.529 870.021 658.477 869.889 658.451C869.757 658.424 869.621 658.424 869.49 658.451C869.358 658.478 869.233 658.531 869.122 658.606C868.903 658.751 868.75 658.976 868.697 659.233L868.414 658.707C868.282 658.475 868.065 658.303 867.808 658.227C867.552 658.152 867.276 658.179 867.039 658.303C866.806 658.435 866.635 658.653 866.563 658.911C866.491 659.169 866.524 659.444 866.655 659.678C869.263 664.389 871.649 668.999 873.813 673.569L873.267 673.892C870.997 668.538 868.292 663.378 865.179 658.465C865.111 658.345 865.019 658.241 864.91 658.159C864.8 658.076 864.675 658.016 864.541 657.984C864.408 657.951 864.27 657.946 864.134 657.968C863.999 657.991 863.869 658.041 863.754 658.115C863.638 658.189 863.539 658.286 863.463 658.4C863.386 658.514 863.333 658.642 863.307 658.777C863.282 658.912 863.284 659.051 863.314 659.185C863.343 659.319 863.4 659.445 863.48 659.557C866.571 664.452 869.243 669.599 871.467 674.944L870.113 675.753C867.606 669.834 864.715 664.086 861.458 658.546C861.393 658.43 861.306 658.328 861.201 658.247C861.096 658.166 860.976 658.107 860.848 658.073C860.72 658.039 860.586 658.031 860.455 658.05C860.323 658.068 860.197 658.113 860.083 658.182C859.852 658.32 859.685 658.544 859.617 658.805C859.549 659.066 859.586 659.343 859.719 659.577C862.993 665.123 865.884 670.885 868.374 676.824C866.493 677.997 864.512 679.251 862.469 680.606C859.396 673.432 855.659 666.561 851.308 660.082C851.235 659.972 851.14 659.877 851.03 659.804C850.92 659.731 850.796 659.681 850.666 659.656C850.536 659.632 850.402 659.634 850.273 659.662C850.143 659.69 850.021 659.743 849.913 659.819C849.691 659.968 849.537 660.197 849.484 660.459C849.431 660.72 849.483 660.992 849.63 661.215C853.975 667.693 857.705 674.564 860.771 681.738C859.012 682.911 857.232 684.124 855.392 685.438C851.664 677.783 847.485 670.356 842.876 663.196C842.729 662.971 842.498 662.813 842.234 662.758C841.971 662.703 841.696 662.755 841.471 662.903C841.246 663.05 841.088 663.281 841.033 663.545C840.978 663.808 841.03 664.083 841.178 664.308C845.797 671.469 849.99 678.896 853.734 686.55L850.782 688.694C847.507 680.767 844.069 672.518 840.672 664.43C840.619 664.307 840.543 664.196 840.447 664.104C840.351 664.011 840.238 663.938 840.114 663.889C839.99 663.84 839.858 663.816 839.725 663.819C839.591 663.821 839.46 663.85 839.338 663.904C839.095 664.01 838.905 664.208 838.806 664.454C838.708 664.699 838.71 664.974 838.812 665.218C842.33 673.468 845.828 681.778 849.185 689.846L847.325 691.241C844.069 683.153 840.915 674.722 838.084 666.067C838.041 665.941 837.973 665.824 837.884 665.724C837.796 665.624 837.688 665.542 837.568 665.484C837.447 665.425 837.317 665.392 837.183 665.384C837.05 665.377 836.916 665.396 836.79 665.441C836.597 665.499 836.427 665.616 836.304 665.776C836.181 665.935 836.111 666.129 836.102 666.33C835.93 666.29 835.75 666.29 835.577 666.33C835.447 666.357 835.323 666.409 835.213 666.483C835.103 666.557 835.009 666.653 834.935 666.763C834.862 666.874 834.811 666.998 834.786 667.129C834.761 667.259 834.762 667.393 834.788 667.523C836.707 676.888 839.288 686.104 842.512 695.103C838.933 697.995 835.314 701.169 831.715 704.425C830.283 692.892 830.968 681.195 833.737 669.909C833.767 669.776 833.771 669.639 833.749 669.505C833.726 669.37 833.677 669.242 833.605 669.126C833.459 668.893 833.226 668.727 832.958 668.666C832.69 668.604 832.408 668.651 832.175 668.797C831.942 668.943 831.776 669.176 831.715 669.444C828.819 681.457 828.222 693.909 829.956 706.143L828.621 707.377C826.871 695.952 827.213 684.305 829.632 673.003C829.662 672.874 829.665 672.74 829.642 672.61C829.62 672.48 829.571 672.355 829.499 672.244C829.428 672.133 829.335 672.037 829.226 671.963C829.116 671.888 828.993 671.836 828.864 671.81C828.732 671.78 828.596 671.777 828.463 671.801C828.331 671.825 828.204 671.875 828.091 671.949C827.978 672.022 827.881 672.117 827.805 672.229C827.729 672.341 827.677 672.466 827.651 672.598C825.077 684.604 824.809 696.99 826.862 709.096L825.871 710.066C823.992 699.042 824.28 687.758 826.72 676.845C826.769 676.58 826.715 676.306 826.568 676.081C826.421 675.855 826.194 675.694 825.932 675.631C825.67 675.583 825.399 675.638 825.176 675.785C824.954 675.932 824.797 676.16 824.739 676.42C822.126 688.063 821.912 700.117 824.112 711.845L823.121 712.856C820.751 702.466 820.89 691.66 823.526 681.333C823.598 681.065 823.561 680.779 823.423 680.539C823.284 680.298 823.056 680.122 822.788 680.05C822.519 679.977 822.234 680.014 821.993 680.153C821.752 680.291 821.576 680.519 821.504 680.788C818.681 691.875 818.639 703.488 821.382 714.595L820.088 715.991C817.56 707.669 817.164 698.846 818.936 690.331C818.997 690.069 818.953 689.793 818.813 689.562C818.673 689.332 818.449 689.165 818.188 689.098C817.928 689.037 817.654 689.082 817.427 689.222C817.199 689.362 817.037 689.586 816.974 689.846C815.061 699.115 815.583 708.722 818.491 717.729C817.722 718.579 816.954 719.428 816.206 720.297C816.032 720.503 815.946 720.768 815.965 721.036C815.984 721.304 816.106 721.554 816.307 721.733C816.37 721.781 816.438 721.821 816.509 721.854C816.406 722.056 816.371 722.286 816.412 722.509C816.452 722.732 816.564 722.935 816.732 723.088C816.917 723.247 817.155 723.333 817.399 723.33C817.541 723.331 817.682 723.301 817.811 723.242C817.941 723.182 818.055 723.095 818.147 722.987L819.643 721.329C819.926 722.151 820.23 722.98 820.553 723.816C819.825 723.715 819.057 723.634 818.349 723.512C818.217 723.491 818.081 723.496 817.95 723.527C817.819 723.559 817.696 723.615 817.587 723.694C817.478 723.773 817.386 723.873 817.315 723.987C817.245 724.102 817.198 724.229 817.177 724.362C817.155 724.494 817.16 724.63 817.192 724.761C817.223 724.892 817.279 725.015 817.358 725.124C817.437 725.233 817.537 725.325 817.651 725.396C817.766 725.466 817.893 725.513 818.026 725.534C817.945 725.652 817.884 725.782 817.844 725.919C817.798 726.162 817.842 726.413 817.969 726.625C818.095 726.838 818.296 726.996 818.531 727.071C818.52 727.124 818.52 727.179 818.531 727.233C818.501 727.363 818.498 727.498 818.52 727.629C818.543 727.761 818.591 727.887 818.663 728C818.734 728.112 818.827 728.21 818.936 728.287C819.046 728.363 819.169 728.417 819.3 728.446L822.919 729.214C823.061 729.538 823.222 729.861 823.384 730.185L821.463 729.821C821.333 729.791 821.198 729.787 821.067 729.81C820.935 729.833 820.809 729.881 820.696 729.952C820.584 730.024 820.486 730.117 820.409 730.226C820.333 730.336 820.279 730.459 820.25 730.589C820.196 730.855 820.248 731.131 820.396 731.358C820.543 731.584 820.774 731.744 821.039 731.803C822.232 732.045 823.364 732.227 824.537 732.429L824.82 732.996L823.222 732.692C823.09 732.666 822.953 732.666 822.82 732.692C822.687 732.718 822.561 732.77 822.448 732.845C822.336 732.921 822.239 733.017 822.163 733.13C822.088 733.242 822.036 733.368 822.009 733.501C821.983 733.634 821.982 733.771 822.009 733.903C822.035 734.036 822.087 734.163 822.162 734.275C822.237 734.388 822.334 734.485 822.446 734.56C822.559 734.635 822.685 734.688 822.818 734.714C823.93 734.957 825.002 735.119 826.114 735.321L826.66 736.271L825.649 735.907C825.524 735.859 825.391 735.835 825.257 735.838C825.123 735.841 824.991 735.871 824.869 735.926C824.747 735.98 824.636 736.059 824.545 736.156C824.453 736.254 824.381 736.368 824.334 736.494C824.242 736.743 824.252 737.019 824.362 737.261C824.472 737.503 824.673 737.692 824.921 737.788C826.033 738.212 827.185 738.597 828.358 738.96C828.48 739.122 828.581 739.284 828.682 739.446C828.445 739.369 828.188 739.382 827.961 739.483C827.733 739.584 827.551 739.765 827.448 739.992C827.395 740.114 827.366 740.245 827.363 740.379C827.361 740.512 827.385 740.644 827.434 740.768C827.482 740.892 827.555 741.006 827.648 741.101C827.741 741.197 827.852 741.273 827.974 741.326C828.823 741.71 829.774 742.054 830.764 742.398C831.917 743.975 833.11 745.492 834.404 746.947C834.404 746.947 834.404 746.947 834.404 747.048H834.505C834.647 747.129 834.807 747.171 834.97 747.17V747.17C835.07 747.189 835.173 747.189 835.273 747.17L836.709 746.725C837.659 747.918 838.731 749.091 839.661 750.223C839.756 750.329 839.871 750.414 839.999 750.473C840.128 750.532 840.268 750.564 840.409 750.567C840.662 750.56 840.904 750.467 841.097 750.304C841.192 750.21 841.267 750.098 841.318 749.975C841.369 749.852 841.396 749.72 841.396 749.586C841.396 749.453 841.369 749.32 841.318 749.197C841.267 749.074 841.192 748.962 841.097 748.868C840.288 747.958 839.499 746.988 838.711 746.037L839.358 745.815C841.38 748.626 843.685 751.396 846.152 754.125C846.245 754.232 846.36 754.318 846.489 754.377C846.618 754.436 846.758 754.468 846.9 754.469C847.147 754.464 847.383 754.371 847.567 754.206C847.679 754.097 847.769 753.966 847.83 753.822V753.822C847.948 753.728 848.042 753.608 848.105 753.471C848.168 753.334 848.199 753.184 848.194 753.034C848.416 753.317 848.619 753.62 848.821 753.903C848.918 754.03 849.044 754.133 849.188 754.203C849.331 754.273 849.49 754.309 849.65 754.307C849.863 754.309 850.07 754.238 850.236 754.105C850.344 754.027 850.435 753.928 850.505 753.815C850.574 753.701 850.621 753.575 850.641 753.444C850.662 753.312 850.657 753.178 850.625 753.049C850.594 752.919 850.537 752.797 850.459 752.69C848.653 750.242 846.973 747.705 845.424 745.087C847.183 745.208 848.983 745.289 850.863 745.289C856.064 745.26 861.253 744.779 866.372 743.854C870.76 750.789 873.793 754.773 873.873 754.894C873.97 755.016 874.093 755.114 874.233 755.18C874.373 755.247 874.527 755.28 874.682 755.278C874.902 755.283 875.116 755.211 875.289 755.076C875.411 754.98 875.509 754.857 875.575 754.716C875.642 754.576 875.675 754.422 875.673 754.267C875.74 754.279 875.808 754.279 875.875 754.267C875.996 754.286 876.119 754.286 876.239 754.267V754.267H876.34L876.482 754.146L876.603 753.984V753.802C876.603 753.802 876.603 753.681 876.603 753.62V753.741L876.805 753.863H876.906C877.027 753.882 877.15 753.882 877.27 753.863H877.473H877.574H877.776L877.917 753.741L878.059 753.62C878.1 753.571 878.134 753.516 878.16 753.458C878.168 753.398 878.168 753.337 878.16 753.276C878.171 753.209 878.171 753.141 878.16 753.074C878.169 753.034 878.169 752.993 878.16 752.953C878.16 752.811 877.998 748.403 877.23 741.346C878.2 741.063 879.151 740.76 880.101 740.437C879.973 744.243 879.616 748.037 879.03 751.8C879.006 751.932 879.009 752.066 879.039 752.197C879.068 752.327 879.123 752.45 879.2 752.559C879.277 752.668 879.375 752.761 879.488 752.832C879.601 752.903 879.727 752.951 879.859 752.973H880.526C880.763 752.976 880.993 752.894 881.175 752.742C881.357 752.59 881.478 752.378 881.517 752.144C881.631 752.226 881.762 752.281 881.901 752.306H882.103C882.312 752.301 882.516 752.233 882.685 752.11C882.855 751.987 882.984 751.816 883.053 751.618H883.215H883.437C883.667 751.616 883.889 751.537 884.068 751.394C884.248 751.251 884.374 751.053 884.428 750.83C885.419 746.381 886.167 742.135 886.713 738.01L887.684 737.585C887.219 741.144 886.592 744.824 885.803 748.666C885.777 748.796 885.776 748.93 885.801 749.061C885.826 749.191 885.877 749.315 885.95 749.426C886.024 749.537 886.118 749.632 886.228 749.706C886.338 749.781 886.462 749.833 886.592 749.859H886.794C887.027 749.859 887.253 749.779 887.434 749.631C887.614 749.484 887.738 749.279 887.785 749.05C888.674 744.723 889.362 740.578 889.807 736.574L890.514 736.251C889.989 739.709 889.402 743.227 888.634 746.867C888.607 746.997 888.607 747.131 888.632 747.261C888.657 747.391 888.708 747.516 888.781 747.626C888.854 747.737 888.949 747.832 889.059 747.907C889.169 747.981 889.292 748.033 889.423 748.059H889.625C889.857 748.056 890.081 747.974 890.261 747.827C890.441 747.68 890.566 747.477 890.616 747.251C891.485 743.085 892.152 739.041 892.638 735.119L894.66 734.067C893.963 737.589 892.989 741.051 891.748 744.42C891.699 744.543 891.676 744.675 891.68 744.807C891.683 744.94 891.713 745.07 891.768 745.191C891.822 745.311 891.901 745.42 891.998 745.51C892.095 745.6 892.21 745.669 892.334 745.714C892.454 745.742 892.579 745.742 892.698 745.714C892.905 745.708 893.105 745.642 893.274 745.523C893.443 745.405 893.573 745.239 893.649 745.047C895.121 741.029 896.231 736.888 896.965 732.672C897.329 732.45 897.693 732.268 898.036 732.045C897.471 735.182 896.562 738.247 895.327 741.185C895.261 741.339 895.234 741.506 895.247 741.673C895.261 741.84 895.315 742.001 895.404 742.142C895.494 742.283 895.616 742.401 895.761 742.484C895.906 742.567 896.07 742.614 896.237 742.62C896.434 742.621 896.627 742.564 896.793 742.456C896.958 742.348 897.088 742.195 897.167 742.014C898.702 738.355 899.769 734.516 900.341 730.589C903.233 728.729 906.014 726.704 908.672 724.523C908.775 724.44 908.859 724.336 908.921 724.219C908.983 724.102 909.02 723.973 909.032 723.841C909.043 723.709 909.028 723.576 908.987 723.451C908.946 723.325 908.88 723.208 908.793 723.108C908.705 722.999 908.594 722.911 908.468 722.848C908.343 722.785 908.206 722.75 908.065 722.744C908.611 722.279 909.198 721.854 909.744 721.369C909.845 721.284 909.928 721.179 909.988 721.061C910.048 720.943 910.083 720.815 910.093 720.683C910.102 720.551 910.085 720.418 910.042 720.293C910 720.168 909.933 720.052 909.845 719.954C909.669 719.75 909.42 719.623 909.152 719.601C908.883 719.578 908.617 719.661 908.409 719.832C906.036 721.898 903.537 723.816 900.928 725.575L901.049 724.2C904.53 721.848 907.834 719.247 910.937 716.415C911.031 716.323 911.106 716.213 911.157 716.091C911.208 715.97 911.234 715.839 911.234 715.707C911.234 715.576 911.208 715.445 911.157 715.324C911.106 715.202 911.031 715.092 910.937 715C910.819 714.868 910.664 714.776 910.492 714.737L911.098 714.332C911.32 714.184 911.474 713.954 911.527 713.693C911.58 713.432 911.528 713.16 911.382 712.937C911.23 712.726 911.008 712.575 910.755 712.513L911.28 712.23C911.516 712.098 911.69 711.879 911.764 711.619C911.838 711.359 911.806 711.081 911.675 710.845C911.543 710.609 911.324 710.435 911.064 710.361C910.804 710.287 910.526 710.319 910.29 710.45C907.176 712.189 904.102 713.807 901.049 715.364C901.06 715.182 901.06 715 901.049 714.818C904.705 713.124 908.257 711.213 911.685 709.096ZM899.148 713.605L898.299 713.989C898.299 713.443 898.299 712.897 898.299 712.351L899.128 711.967C899.088 712.513 899.128 713.059 899.148 713.524V713.605ZM899.33 718.639V719.307L898.34 719.853C898.34 719.59 898.34 719.347 898.34 719.084L899.33 718.639ZM882.669 731.418C882.669 730.67 882.669 729.902 882.548 729.134L882.892 729.012C882.892 729.801 882.892 730.549 882.892 731.338L882.669 731.418ZM882.892 733.319C882.892 733.865 882.892 734.391 882.892 734.916H882.75V733.36L882.892 733.319ZM871.953 740.72L871.75 740.214L873.509 739.81L873.631 740.295C873.065 740.437 872.438 740.598 871.953 740.72ZM874.136 742.216C875.41 747.19 876.158 750.688 876.482 752.184L872.701 742.58L874.136 742.216ZM853.755 736.049L855.918 734.512L859.376 734.249L856.282 736.029L853.755 736.049ZM888.129 709.763C887.785 710.187 887.421 710.612 887.057 711.016C886.895 709.379 886.693 707.761 886.43 706.164C886.794 705.739 887.138 705.294 887.481 704.849C887.805 706.528 888.007 708.165 888.189 709.844L888.129 709.763ZM889.18 702.666C889.726 701.958 890.252 701.23 890.777 700.482C891.06 702.16 891.283 703.838 891.485 705.557C890.959 706.245 890.454 706.912 889.928 707.579C889.787 705.982 889.524 704.344 889.241 702.746L889.18 702.666ZM840.652 741.488H841.056L840.773 741.63L840.652 741.488ZM839.398 739.264C838.994 738.556 838.59 737.808 838.205 737.06H838.953C839.317 737.828 839.661 738.576 840.045 739.304L839.398 739.264ZM837.113 734.916C836.992 734.633 836.851 734.35 836.709 734.067H837.599C837.74 734.35 837.862 734.633 837.983 734.916H837.113ZM835.739 731.964C835.597 731.641 835.435 731.317 835.294 730.974L836.345 731.095C836.466 731.418 836.588 731.742 836.729 732.065L835.739 731.964ZM834.667 726.586V726.707H833.494H834.647L834.667 726.586ZM834.343 728.709H835.435V728.911H834.303L834.343 728.709ZM869.162 725.453C869.344 725.999 869.526 726.545 869.688 727.071C868.677 727.314 867.666 727.516 866.655 727.718L866.149 726.464L866.756 725.939L869.162 725.453ZM865.462 730.205L864.896 730.589L864.673 730.165L865.401 730.043L865.462 730.205ZM864.026 728.183L864.512 727.799C864.533 727.897 864.567 727.992 864.613 728.082L864.026 728.183ZM862.591 730.488C862.773 730.893 862.975 731.257 863.157 731.641L861.438 731.883L860.811 730.751L862.591 730.488ZM875.349 725.251C876.057 724.665 876.765 724.079 877.371 723.452L879.859 722.744L879.98 724.2C878.443 724.705 876.886 725.191 875.329 725.615L875.349 725.251ZM881.638 719.63C881.84 719.448 882.022 719.246 882.204 719.064C882.204 719.367 882.204 719.65 882.204 719.954L881.618 720.115L881.638 719.63ZM881.901 722.198L882.467 722.016V723.371L881.961 723.533C882.123 723.169 882.103 722.724 882.042 722.279L881.901 722.198ZM884.428 721.389L885.561 721.025V722.259L884.509 722.663C884.57 722.319 884.57 721.895 884.57 721.47L884.428 721.389ZM884.246 719.367C884.246 718.862 884.246 718.376 884.105 717.871L885.459 717.426C885.459 717.911 885.459 718.417 885.459 718.922L884.246 719.367ZM876.482 721.652L874.763 722.077C874.763 721.672 874.622 721.268 874.541 720.864L878.686 719.65C878.099 720.399 877.371 721.066 876.623 721.713L876.482 721.652ZM871.407 725.858C871.407 725.595 871.245 725.312 871.144 725.029L873.004 724.604L871.407 725.858ZM861.297 727.88L860.063 728.83H859.76L858.931 727.294L860.953 726.99L861.297 727.88ZM857.596 729.134C850.999 729.752 844.358 729.752 837.761 729.134C837.761 729.012 837.76 728.891 837.619 728.749H838.59C844.676 728.732 850.755 728.32 856.788 727.516L857.596 729.134ZM838.61 731.338C841.582 731.56 844.474 731.702 847.304 731.702C850.56 731.702 853.734 731.54 856.848 731.257L855.109 732.51C849.719 732.827 844.314 732.76 838.933 732.308L838.61 731.338ZM859.194 732.025V732.187H858.83L859.194 732.025ZM870.355 729.255C870.476 729.639 870.578 730.003 870.699 730.367L868.091 730.893C868.98 730.387 869.728 729.841 870.416 729.275L870.355 729.255ZM872.377 728.648L873.894 728.244C873.894 728.689 874.035 729.134 874.116 729.558L872.741 729.902L872.377 728.648ZM875.855 727.718C877.371 727.294 878.868 726.849 880.364 726.363V727.678C878.949 728.163 877.493 728.608 876.017 729.032C876.037 728.628 875.976 728.183 875.895 727.678L875.855 727.718ZM882.325 725.696L882.73 725.555V726.869L882.346 727.01C882.426 726.586 882.386 726.161 882.366 725.656L882.325 725.696ZM884.711 724.847L885.682 724.483C885.682 724.908 885.682 725.373 885.682 725.797L884.833 726.121L884.711 724.847ZM887.704 723.715L888.735 723.31C888.735 723.715 888.735 724.119 888.735 724.523L887.744 724.948L887.704 723.715ZM887.704 721.531V720.398L888.776 720.014V721.106L887.704 721.531ZM887.704 718.255C887.704 717.75 887.704 717.244 887.603 716.739L888.715 716.314C888.715 716.84 888.715 717.366 888.715 717.891L887.704 718.255ZM887.461 714.616C887.461 714.353 887.461 714.09 887.461 713.827L888.513 712.634L888.634 714.191L887.461 714.616ZM885.338 713.14L883.923 714.636C883.741 713.099 883.559 711.542 883.316 710.005C883.801 709.459 884.287 708.914 884.752 708.347C884.954 709.945 885.156 711.502 885.318 713.16L885.338 713.14ZM882.143 716.496L881.456 716.718C881.274 715.404 881.072 714.09 880.849 712.674L881.577 711.886C881.739 713.524 881.961 715.02 882.123 716.516L882.143 716.496ZM879.474 717.406C877.998 717.871 876.502 718.296 875.026 718.72C876.401 717.386 877.756 716.011 879.07 714.676C879.232 715.546 879.333 716.496 879.454 717.426L879.474 717.406ZM872.741 721.45C872.741 721.854 872.903 722.259 872.964 722.643L870.699 723.169C870.656 723.064 870.622 722.956 870.598 722.845L871.851 721.713L872.741 721.45ZM866.008 724.159L865.381 724.281C865.26 723.957 865.138 723.613 864.997 723.29C865.887 723.108 866.796 722.926 867.686 722.704L866.008 724.159ZM863.359 724.625L862.186 724.827L861.762 723.957L862.995 723.715L863.359 724.625ZM860.104 725.191L858.082 725.453L857.677 724.685C858.365 724.584 859.032 724.443 859.699 724.321C859.821 724.624 859.962 724.887 860.083 725.191H860.104ZM855.938 725.737C849.662 726.535 843.339 726.9 837.012 726.828V726.647C843.242 726.505 849.456 725.958 855.615 725.009L855.938 725.737ZM836.244 724.625C834.481 719.4 833.129 714.045 832.2 708.61C836.062 705.173 839.964 701.958 843.847 698.986C846.974 707.217 850.538 715.276 854.523 723.128C848.462 724.021 842.349 724.52 836.224 724.625H836.244ZM834.222 724.625H833.009C831.465 720.304 830.235 715.878 829.329 711.38L830.582 710.187C831.425 715.083 832.607 719.914 834.121 724.645L834.222 724.625ZM830.825 724.625H829.976C828.609 721.18 827.5 717.638 826.66 714.029L827.59 713.099C828.402 716.987 829.449 720.822 830.724 724.584L830.825 724.625ZM833.231 730.852C833.373 731.156 833.494 731.499 833.636 731.803H833.191L832.665 730.812L833.231 730.852ZM834.606 733.946L834.97 734.694H834.748C834.606 734.451 834.465 734.209 834.343 733.946H834.606ZM842.694 739.79C842.29 739.021 841.906 738.253 841.521 737.444C843.543 737.646 845.565 737.788 847.587 737.889L844.251 739.911L842.694 739.79ZM840.531 735.382L840.106 734.451C843.099 734.674 846.051 734.815 848.861 734.815C850.014 734.815 851.106 734.815 852.218 734.815L850.196 736.13C847.041 735.927 843.786 735.766 840.45 735.341L840.531 735.382ZM861.337 735.523L861.519 735.806H860.771L861.337 735.523ZM863.056 734.451C863.46 734.209 863.865 733.966 864.249 733.703L865.138 735.442L863.642 735.604L863.056 734.451ZM866.432 733.36H866.877C867.12 733.986 867.363 734.613 867.605 735.2H867.363L866.432 733.36ZM868.333 736.918C868.434 737.161 868.515 737.383 868.596 737.626C868.494 737.391 868.379 737.161 868.252 736.938L868.333 736.918ZM871.083 738.374C870.861 737.788 870.618 737.201 870.375 736.595L872.579 736.19C872.741 736.757 872.903 737.363 873.065 737.909L871.083 738.374ZM869.647 734.775L868.899 732.894C869.769 732.733 870.638 732.571 871.487 732.369C871.69 733.056 871.872 733.724 872.054 734.391C871.184 734.492 870.416 734.613 869.567 734.735L869.647 734.775ZM873.449 731.904L874.541 731.621C874.642 732.328 874.763 733.036 874.844 733.643L874.035 733.845C873.772 733.218 873.57 732.551 873.368 731.863L873.449 731.904ZM876.502 731.115C877.917 730.731 879.292 730.306 880.546 729.861C880.546 730.589 880.647 731.358 880.667 732.086C879.353 732.51 878.059 732.915 876.724 733.258C876.644 732.531 876.482 731.722 876.482 731.075L876.502 731.115ZM884.994 728.325L885.641 728.062C885.641 728.83 885.641 729.599 885.54 730.367L884.994 730.589C884.893 729.7 884.914 729.053 884.914 728.284L884.994 728.325ZM887.724 727.253L888.755 726.808C888.755 727.556 888.755 728.325 888.614 729.073C888.27 729.235 887.947 729.417 887.603 729.558C887.583 728.749 887.603 727.981 887.643 727.213L887.724 727.253ZM890.818 725.919L891.849 725.453C891.849 726.181 891.748 726.889 891.687 727.617L890.696 728.082L890.818 725.919ZM890.818 723.674C890.818 723.29 890.818 722.906 890.818 722.522C891.202 722.36 891.586 722.218 891.97 722.036V723.148L890.818 723.674ZM890.818 720.318V719.347L892.092 718.862C892.092 719.165 892.092 719.448 892.092 719.772L890.818 720.318ZM890.818 717.204C890.818 716.658 890.818 716.132 890.818 715.606L892.253 715.04C892.253 715.586 892.253 716.132 892.253 716.658L890.818 717.204ZM890.636 713.524C890.636 712.533 890.474 711.502 890.373 710.551L891.91 708.671C891.91 710.066 892.051 711.522 892.112 712.958L890.636 713.524ZM893.588 706.487L895.367 704.02C895.731 706.426 895.994 708.812 896.176 711.178L893.992 712.129C893.851 710.127 893.709 708.226 893.527 706.386L893.588 706.487ZM893.264 703.495C893.042 701.796 892.759 700.138 892.435 698.48L893.851 696.458C894.235 698.035 894.579 699.633 894.882 701.23L893.264 703.495ZM891.869 695.75C890.253 688.462 887.604 681.443 884.004 674.903L885.116 674.378C888.607 680.473 891.324 686.98 893.204 693.749L891.869 695.75ZM890.434 697.772C889.888 698.541 889.342 699.309 888.776 700.057C887.062 691.869 884.346 683.923 880.688 676.4L882.224 675.652C886.069 682.552 888.818 690.008 890.373 697.752L890.434 697.772ZM879.818 674.58L878.888 672.78L880.142 672.093L881.254 673.892L879.818 674.58ZM877.998 675.49L877.19 675.894C876.947 675.328 876.704 674.742 876.441 674.176L877.129 673.791C877.351 674.317 877.655 674.883 877.938 675.47L877.998 675.49ZM878.888 677.289C882.735 685.21 885.51 693.608 887.138 702.261L886.086 703.636C884.371 694.726 881.658 686.037 877.998 677.734L878.888 677.289ZM884.388 705.719L882.932 707.478C881.313 697.815 878.774 688.329 875.349 679.15L876.138 678.745C879.942 687.367 882.692 696.417 884.327 705.699L884.388 705.719ZM881.173 709.48L880.384 710.349C878.593 700.272 875.851 690.388 872.195 680.828L873.55 680.08C877.071 689.599 879.625 699.449 881.173 709.48V709.48ZM878.666 712.23C877.088 713.908 875.491 715.525 873.894 717.082C871.609 706.212 868.417 695.552 864.35 685.216C866.372 684.003 868.394 682.87 870.416 681.799C874.158 691.619 876.921 701.785 878.666 712.149V712.23ZM872.155 718.72L870.901 719.913L869.668 720.217C866.167 709.778 862.083 699.544 857.435 689.563C859.214 688.431 860.973 687.319 862.692 686.287C866.764 696.781 869.93 707.605 872.155 718.639V718.72ZM867.706 720.742L864.208 721.49C860.751 712.917 856.767 703.151 852.501 692.859L855.716 690.695C860.264 700.447 864.267 710.445 867.706 720.641V720.742ZM862.206 721.915L860.852 722.198C857.05 714.252 852.946 705.173 848.902 695.386L850.802 694.032C854.948 703.939 858.81 713.524 862.206 721.814V721.915ZM858.769 722.542L856.747 722.906C852.583 714.755 848.877 706.377 845.646 697.813L847.304 696.6C851.126 705.941 855.109 714.717 858.769 722.441V722.542ZM844.858 695.831L846.415 694.618V694.739L844.858 695.831ZM824.86 715.748C825.612 718.74 826.544 721.684 827.651 724.564H826.417C825.447 721.996 824.597 719.428 823.89 716.799L824.86 715.748ZM830.178 730.508C830.34 730.832 830.461 731.156 830.623 731.479L829.389 731.297L828.904 730.306L830.178 730.508ZM831.755 733.643L832.139 734.35L830.845 734.148C830.724 733.926 830.582 733.703 830.461 733.461L831.755 733.643ZM833.312 736.554C833.696 737.222 834.121 737.869 834.525 738.576L833.211 738.253C832.827 737.646 832.483 737.04 832.119 736.413L833.312 736.554ZM835.961 740.861C836.204 741.245 836.466 741.589 836.709 741.953L835.476 741.69C835.233 741.346 835.011 740.982 834.788 740.639L835.961 740.861ZM847.507 740.255C848.619 739.567 849.751 738.839 850.944 738.051H852.541C850.964 738.859 849.448 739.587 847.972 740.255H847.507ZM856.99 738.03C858.87 738.03 860.69 737.848 862.49 737.687C862.894 738.374 863.278 739.021 863.683 739.709C859.961 740.188 856.213 740.431 852.46 740.437C853.936 739.567 855.453 738.779 856.99 737.929V738.03ZM864.714 737.464L866.069 737.302L867.019 739.183L865.846 739.365L864.714 737.464ZM867.989 741.043L868.293 741.63L867.363 741.812L866.999 741.225L867.989 741.043ZM875.471 739.426C875.471 739.426 875.471 739.587 875.471 739.668V739.426ZM874.945 737.404C874.783 736.858 874.642 736.291 874.48 735.746L875.026 735.604C875.026 736.19 875.188 736.757 875.248 737.323L874.945 737.404ZM876.967 735.139C878.2 734.815 879.434 734.451 880.647 734.087C880.647 734.613 880.647 735.159 880.647 735.685C879.495 736.069 878.322 736.433 877.149 736.777C877.149 736.211 877.068 735.766 877.008 735.119L876.967 735.139ZM884.732 736.655C884.722 736.575 884.722 736.493 884.732 736.413C884.741 736.493 884.741 736.575 884.732 736.655ZM884.833 734.229C884.833 733.724 884.833 733.218 884.833 732.713L885.197 732.571C885.197 733.076 885.197 733.622 885.035 734.148L884.833 734.229ZM887.32 731.722L888.311 731.317C888.311 731.823 888.209 732.308 888.169 732.814L887.178 733.258C887.279 732.672 887.34 732.146 887.38 731.722H887.32ZM890.434 730.347L891.303 729.942C891.303 730.448 891.202 730.933 891.141 731.418L890.292 731.843C890.393 731.277 890.454 730.771 890.494 730.266L890.434 730.347ZM893.406 728.891C894.195 728.487 894.963 728.062 895.731 727.637L895.549 729.093C894.801 729.518 894.033 729.942 893.244 730.347C893.366 729.7 893.426 729.295 893.467 728.81L893.406 728.891ZM893.628 726.545C893.628 725.858 893.628 725.211 893.729 724.523L896.136 723.351C896.136 723.977 896.035 724.604 895.974 725.211C895.266 725.656 894.478 726.02 893.689 726.464L893.628 726.545ZM898.198 722.279L899.229 721.713C899.229 722.218 899.229 722.704 899.229 723.209L898.178 723.897C898.198 723.27 898.218 722.744 898.259 722.198L898.198 722.279ZM896.176 721.005C895.408 721.43 894.599 721.834 893.81 722.218V721.187L896.136 720.136C896.318 720.338 896.318 720.641 896.297 720.924L896.176 721.005ZM893.911 718.983V718.134L896.237 717.184V717.891L893.911 718.983ZM893.911 715.95C893.911 715.404 893.911 714.838 893.911 714.292L896.136 713.342V715L893.911 715.95ZM898.724 709.884L897.955 710.248C897.713 707.377 897.349 704.485 896.823 701.574L897.308 700.846C898.077 703.879 898.522 706.892 898.845 709.844L898.724 709.884ZM896.702 698.096C896.58 698.318 896.439 698.52 896.297 698.743C895.974 697.166 895.59 695.609 895.165 694.032L895.468 693.546C896.035 695.022 896.439 696.539 896.803 698.055L896.702 698.096ZM894.518 691.282C892.841 685.68 890.606 680.261 887.845 675.106C890.655 680.12 892.971 685.395 894.761 690.857L894.518 691.282ZM882.811 670.536L884.024 672.558L882.952 673.043L881.82 671.143L882.811 670.536ZM878.969 670.314L877.877 670.92C876.259 667.928 874.541 665.016 872.782 662.205C875.006 664.802 877.072 667.53 878.969 670.374V670.314ZM870.537 662.448C872.559 665.501 874.359 668.635 876.118 671.911L875.511 672.275C873.954 669.04 872.316 665.805 870.537 662.509V662.448ZM874.581 675.126C874.824 675.652 875.046 676.198 875.289 676.744L874.561 677.107C874.338 676.582 874.136 676.036 873.914 675.51L874.581 675.126ZM872.155 676.562C872.377 677.047 872.559 677.552 872.761 678.058L871.407 678.786C871.225 678.3 871.063 677.815 870.861 677.35L872.155 676.562ZM869.122 678.422C869.283 678.867 869.445 679.311 869.627 679.756C867.706 680.828 865.705 681.96 863.561 683.194C863.44 682.85 863.298 682.526 863.177 682.203C865.3 680.909 867.282 679.655 869.162 678.482L869.122 678.422ZM861.519 683.335L861.883 684.245C860.124 685.297 858.344 686.429 856.525 687.602L856.221 686.995C858.082 685.762 859.841 684.548 861.559 683.396L861.519 683.335ZM854.563 688.188L854.806 688.694C853.775 689.381 852.784 690.069 851.672 690.716L851.53 690.331C852.582 689.705 853.593 688.977 854.604 688.249L854.563 688.188ZM849.852 691.666L849.973 691.969L848.174 693.304C848.174 693.304 848.174 693.162 848.174 693.081L849.852 691.666ZM837.518 671.041C840.045 678.381 842.775 685.559 845.606 692.434L844.13 693.607C841.497 686.228 839.302 678.7 837.558 671.062L837.518 671.041ZM821.079 719.57C821.463 719.145 821.868 718.74 822.252 718.336C822.818 720.358 823.465 722.259 824.274 724.22L822.818 724.099C822.171 722.562 821.605 721.066 821.119 719.59L821.079 719.57ZM825.123 729.68L826.397 729.922L826.842 730.893L825.649 730.691C825.568 730.246 825.386 729.922 825.224 729.578L825.123 729.68ZM826.821 732.915L827.954 733.137C827.954 733.319 828.136 733.521 828.237 733.703L827.145 733.501L826.821 732.915ZM828.48 735.786L829.47 735.968C829.753 736.494 830.036 736.999 830.32 737.484L829.41 737.222L828.48 735.786ZM831.998 739.81C832.2 740.113 832.402 740.416 832.584 740.72L831.937 740.517L831.29 739.648L831.998 739.81ZM834.323 743.288L835.435 744.784C834.97 744.258 834.525 743.712 834.08 743.166L834.323 743.288ZM845.707 748.99C844.797 747.716 843.827 746.321 842.836 744.764H843.139C843.907 746.3 844.777 747.696 845.646 749.05L845.707 748.99ZM846.374 743.065L848.396 742.175C849.69 742.175 850.984 742.175 852.299 742.175C856.5 742.165 860.695 741.867 864.855 741.286C864.997 741.508 865.118 741.731 865.26 741.933C859.008 743.033 852.654 743.433 846.314 743.126L846.374 743.065ZM869.324 743.288C870.78 746.078 872.013 748.343 872.964 750.061C871.791 748.403 870.315 746.179 868.576 743.449L869.324 743.288ZM877.574 739.122C877.574 739.001 877.574 738.859 877.574 738.718C878.645 738.415 879.737 738.071 880.809 737.727C880.809 737.848 880.809 737.949 880.809 738.071C879.636 738.516 878.504 738.859 877.513 739.183L877.574 739.122ZM887.037 735.604C887.047 735.53 887.047 735.455 887.037 735.382L888.027 734.977V735.159L887.037 735.604ZM890.191 734.148V734.007L890.98 733.643V733.744L890.191 734.148ZM893.123 732.611L895.145 731.56L893.123 732.652V732.611ZM898.966 726.97L897.854 727.658C897.854 727.172 897.976 726.707 898.016 726.222L899.108 725.575C899.007 726.101 898.946 726.566 898.906 727.031L898.966 726.97ZM901.332 721.693C901.332 721.288 901.332 720.884 901.332 720.459C903.516 719.226 905.639 717.952 907.722 716.638C905.578 718.498 903.455 720.217 901.272 721.753L901.332 721.693ZM907.398 714.494C905.43 715.734 903.408 716.948 901.332 718.134C901.342 717.952 901.342 717.77 901.332 717.588C903.294 716.658 905.295 715.546 907.317 714.555L907.398 714.494ZM899.31 716.334L898.38 716.779V716.132L899.29 715.728C899.27 715.991 899.29 716.193 899.29 716.395L899.31 716.334Z" fill="black"/>
<path d="M779.244 832.478C783.389 822.004 791.982 804.311 805.752 793.736C807.066 792.725 809.472 794.667 809.129 796.486C806.48 810.762 810.362 831.386 811.939 838.706C812.263 840.242 811.434 841.415 810.059 841.395L785.492 841.092C781.569 841.051 777.848 835.996 779.244 832.478Z" fill="#E07A5F"/>
<path opacity="0.3" d="M779.244 832.478C783.389 822.004 791.982 804.311 805.752 793.736C807.066 792.725 809.472 794.667 809.129 796.486C806.48 810.762 810.362 831.386 811.939 838.706C812.263 840.242 811.434 841.415 810.059 841.395L785.492 841.092C781.569 841.051 777.848 835.996 779.244 832.478Z" fill="black"/>
<path d="M807.188 902.419C827.408 893.522 841.42 885.778 842.694 877.285C843.968 868.793 843.22 855.953 841.602 853.426C842.249 853.797 842.925 854.115 843.624 854.376C842.382 850.388 839.672 847.02 836.042 844.954C829.852 841.401 824.206 836.975 819.279 831.811C813.213 825.421 801.445 819.032 788.949 821.923C776.454 824.815 746.649 832.417 741.574 854.578C736.499 876.74 744.708 890.974 752.432 898.456C760.156 905.937 782.358 913.318 807.188 902.419Z" fill="#E07A5F"/>
<path d="M743.636 865.457C740.159 854.174 735.245 833.489 737.57 812.056C737.793 810.034 740.361 808.78 741.19 810.337C747.741 822.469 761.875 832.114 767.011 835.289C767.546 835.745 767.887 836.389 767.962 837.088C768.037 837.788 767.842 838.49 767.415 839.049L752.392 864.527C749.945 868.672 744.789 869.218 743.636 865.457Z" fill="#E07A5F"/>
<path opacity="0.3" d="M743.636 865.457C740.159 854.174 735.245 833.489 737.57 812.056C737.793 810.034 740.361 808.78 741.19 810.337C747.741 822.469 761.875 832.114 767.011 835.289C767.546 835.745 767.887 836.389 767.962 837.088C768.037 837.788 767.842 838.49 767.415 839.049L752.392 864.527C749.945 868.672 744.789 869.218 743.636 865.457Z" fill="black"/>
<path d="M851.126 1175.37C872.64 1185.96 892.88 1205.01 950.689 1204.81C990.603 1204.69 1027.53 1182.04 1035.49 1186.75C1043.46 1191.46 1016.71 1211.52 979.442 1218.96C931.783 1228.47 879.393 1222.87 863.966 1215.42C848.538 1207.98 821.888 1207.82 821.888 1207.82L851.126 1175.37Z" fill="#E07A5F"/>
<path opacity="0.3" d="M851.126 1175.37C872.64 1185.96 892.88 1205.01 950.689 1204.81C990.603 1204.69 1027.53 1182.04 1035.49 1186.75C1043.46 1191.46 1016.71 1211.52 979.442 1218.96C931.783 1228.47 879.393 1222.87 863.966 1215.42C848.538 1207.98 821.888 1207.82 821.888 1207.82L851.126 1175.37Z" fill="black"/>
<path d="M837.437 879.328C839.702 883.372 850.095 886.748 853.35 893.623C856.606 900.498 869.809 947.307 868.536 959.419C867.262 971.531 862.47 1014.15 867.464 1029.1C872.458 1044.04 877.574 1069.54 876.866 1087.92C876.158 1106.3 894.7 1163.6 892.294 1181.92C889.888 1200.24 906.266 1208.93 905.538 1221.23C904.81 1233.52 882.386 1231.58 874.318 1231.58C866.251 1231.58 852.986 1226.28 853.472 1218.21C853.524 1212.88 851.835 1207.67 848.659 1203.37C848.659 1203.37 836.527 1222.18 806.945 1222.18H749.824C741.615 1222.18 732.94 1206.29 760.419 1202.18C742.585 1193.51 723.538 1177.59 734.396 1154.44C745.254 1131.29 751.502 1112.26 749.824 1102.86C748.146 1093.46 747.64 1075.87 753.201 1065.01C758.761 1054.15 769.821 1028.13 762.118 1014.88C754.414 1001.64 756.052 936.53 756.8 921.102C757.548 905.674 751.805 900.316 749.885 897.89C750.101 899.905 750.479 901.9 751.017 903.855C751.017 903.855 740.058 888.022 743.677 878.559C747.296 869.096 837.437 879.328 837.437 879.328Z" fill="#E07A5F"/>
<path d="M860.589 949.127C864.026 956.588 863.784 966.233 868.677 958.529C873.57 950.826 887.664 924.418 891.283 919.343C894.902 914.268 906.953 898.254 910.694 889.579C914.435 880.905 920.804 842.305 923.857 835.875C926.911 829.445 934.311 827.504 931.662 818.223C929.013 808.942 919.004 799.418 908.632 804.837C898.259 810.256 897.187 827.383 893.81 836.663C890.434 845.944 885.722 865.558 882.366 867.984C879.009 870.411 860.912 876.8 854.887 876.315C848.861 875.83 837.639 870.775 837.033 877.649C836.426 884.524 855.635 938.39 860.589 949.127Z" fill="#E07A5F"/>
<path d="M929.195 815.372C933.361 811.328 938.962 810.58 940.943 815.372C942.925 820.164 929.195 827.504 929.195 827.504V815.372Z" fill="#E07A5F"/>
<path d="M921.512 808.901C923.857 802.835 934.574 795.961 939.144 801.46C942.763 805.848 929.6 817.434 929.6 817.434L921.512 808.901Z" fill="#E07A5F"/>
<path d="M915.668 804.514C915.668 797.942 923.312 787.792 929.539 791.33C934.473 794.161 926.243 809.528 926.243 809.528L915.668 804.514Z" fill="#E07A5F"/>
<path d="M904.79 809.043C902.242 801.258 905.356 789.086 912.493 789.086C919.267 789.086 918.559 807.162 918.559 807.162L904.79 809.043Z" fill="#E07A5F"/>
<path d="M898.461 823.804C894.073 818.041 893.123 807.001 899.088 804.918C904.729 802.896 909.319 818.263 909.319 818.263L898.461 823.804Z" fill="#E07A5F"/>
<path d="M789.091 1013.73C787.635 1020.46 789.596 1028.29 784.258 1022.87C778.92 1017.45 766.889 991.144 757.588 993.449C749.5 995.471 743.191 983.602 737.368 974.2C733.203 967.487 720.505 937.4 716.825 932.729C713.144 928.058 706.715 927.775 707.22 919.707C707.726 911.639 713.61 892.814 722.891 895.969C732.171 899.123 738.622 912.387 742.605 919.626C746.588 926.865 750.996 926.42 760.419 924.054C767.264 922.384 773.807 919.655 779.81 915.966C783.854 912.954 791.052 912.347 794.53 916.957C798.008 921.567 791.173 1004.06 789.091 1013.73Z" fill="#E07A5F"/>
<path d="M710.496 916.593C706.29 912.549 700.386 908.95 700.002 914.126C699.395 921.588 713.873 929.453 713.873 929.453L710.496 916.593Z" fill="#E07A5F"/>
<path d="M718.382 909.819C714.762 904.34 702.832 900.033 699.577 906.402C696.969 911.477 712.356 919.909 712.356 919.909L718.382 909.819Z" fill="#E07A5F"/>
<path d="M721.597 904.279C720.141 897.849 710.496 889.62 705.198 894.432C700.993 898.254 712.397 911.579 712.397 911.579L721.597 904.279Z" fill="#E07A5F"/>
<path d="M729.26 907.858C730.048 899.77 724.367 888.528 717.391 890.085C710.779 891.541 715.51 909.011 715.51 909.011L729.26 907.858Z" fill="#E07A5F"/>
<path d="M736.195 916.33C739.208 909.779 737.732 898.779 731.464 898.132C725.519 897.445 724.387 913.378 724.387 913.378L736.195 916.33Z" fill="#E07A5F"/>
<path opacity="0.7" d="M926.203 820.548C927.881 814.482 924.706 809.832 918.923 807.526C912.696 805.039 905.821 808.74 906.791 812.541C907.742 815.978 911.947 815.473 915.122 817.374C917.427 818.668 922.624 833.55 926.203 820.548Z" fill="#FAFAFA"/>
<path opacity="0.7" d="M936.575 815.635C936.879 812.844 933.138 813.047 931.237 814.785C929.337 816.524 929.215 819.557 931.723 819.011C934.23 818.465 936.333 817.859 936.575 815.635Z" fill="#FAFAFA"/>
<path opacity="0.7" d="M900.099 809.265C901.717 807.425 903.799 809.973 903.779 812.218C903.759 814.462 901.878 816.262 900.766 814.401C899.654 812.541 898.724 810.741 900.099 809.265Z" fill="#FAFAFA"/>
<path opacity="0.7" d="M933.866 805.08C933.866 802.047 929.822 802.775 928.023 804.918C926.223 807.061 926.547 810.297 929.094 809.387C931.642 808.477 933.927 807.526 933.866 805.08Z" fill="#FAFAFA"/>
<path opacity="0.7" d="M911.867 795.415C909.178 794.02 907.823 797.882 908.935 800.47C910.047 803.058 912.979 804.352 913.383 801.663C913.788 798.973 914.03 796.527 911.867 795.415Z" fill="#FAFAFA"/>
<path opacity="0.7" d="M926.527 795.839C924.848 792.725 921.087 795.597 920.359 798.771C919.632 801.946 921.694 805.141 923.858 802.815C926.021 800.49 927.861 798.448 926.527 795.839Z" fill="#FAFAFA"/>
<path opacity="0.7" d="M713.832 919.99C713.286 918.842 712.977 917.595 712.924 916.324C712.871 915.054 713.076 913.786 713.525 912.596C713.975 911.406 714.66 910.32 715.539 909.401C716.419 908.483 717.475 907.752 718.644 907.252C723.881 904.522 730.453 907.595 730.008 911.296C729.604 914.591 725.802 914.389 723.214 916.371C721.394 917.746 718.766 932.061 713.832 919.99Z" fill="#FAFAFA"/>
<path opacity="0.7" d="M703.944 915.582C703.641 913.135 706.937 913.237 708.615 914.753C710.293 916.27 710.435 918.898 708.271 918.453C706.108 918.009 704.187 917.544 703.944 915.582Z" fill="#FAFAFA"/>
<path opacity="0.7" d="M732.738 902.156C730.331 900.801 729.32 903.511 730.291 905.533C731.262 907.555 733.951 908.869 734.335 906.928C734.719 904.987 734.679 903.228 732.738 902.156Z" fill="#FAFAFA"/>
<path opacity="0.7" d="M705.036 906.807C704.814 904.158 708.393 904.421 710.152 906.139C711.911 907.858 711.931 910.709 709.606 910.183C707.281 909.658 705.218 908.95 705.036 906.807Z" fill="#FAFAFA"/>
<path opacity="0.7" d="M719.878 893.684C721.677 891.662 723.922 894.513 723.922 896.96C723.922 899.406 721.778 901.388 720.626 899.285C719.473 897.182 718.442 895.261 719.878 893.684Z" fill="#FAFAFA"/>
<path opacity="0.7" d="M710.112 897.303C711.285 894.432 714.843 896.616 715.753 899.325C716.663 902.035 715.167 905.007 713.064 903.187C710.961 901.367 709.161 899.548 710.112 897.303Z" fill="#FAFAFA"/>
<path opacity="0.2" d="M777.828 1031.93C776.617 1016.12 778.534 1000.23 783.47 985.159C789.536 966.112 776.292 940.251 804.094 929.453C828.682 919.909 842.512 982.611 834.161 1002.25C825.81 1021.88 826.073 1059.41 829.592 1075.58C833.11 1091.76 838.468 1108.82 837.336 1129.25C836.204 1149.67 834.202 1167.18 829.45 1183.09C824.698 1199.01 809.715 1202.58 803.892 1195.75C794.975 1185.26 776.13 1151.99 785.209 1121.6C794.146 1091.88 778.88 1047.9 777.828 1031.93Z" fill="#FAFAFA"/>
<path opacity="0.1" d="M775.22 862.1C757.326 867.317 771.54 836.704 786.281 835.592C801.021 834.48 826.033 847.259 775.22 862.1Z" fill="black"/>
<path opacity="0.3" d="M787.878 849.341C786.988 845.035 788.404 839.595 794.672 839.696C796.734 839.717 803.953 849.948 787.878 849.341Z" fill="black"/>
<path d="M818.733 839.939C817.075 836.461 817.116 832.66 822.312 834.015C824.011 834.48 831.997 843.7 818.733 839.939Z" fill="#E07A5F"/>
<path opacity="0.3" d="M818.733 839.939C817.075 836.461 817.116 832.66 822.312 834.015C824.011 834.48 831.997 843.7 818.733 839.939Z" fill="black"/>
<path opacity="0.7" d="M821.645 843.235C817.48 843.235 815.316 843.963 815.094 846.49C814.871 849.018 821.16 850.534 822.434 849.099C823.707 847.663 825.507 843.296 821.645 843.235Z" fill="#FAFAFA"/>
</g>
<defs>
<clipPath id="clip0_44:20">
<rect width="1011" height="1011" fill="white" transform="translate(338.63 390.004)"/>
</clipPath>
</defs>
</svg>
