<svg width="493" height="493" viewBox="0 0 493 493" fill="none" xmlns="http://www.w3.org/2000/svg">
<path d="M418.912 125.991L416.644 122.264C397.565 90.8205 363.075 71.8696 326.701 74.167C322.019 74.459 317.366 75.0984 312.779 76.0798C279.708 83.1593 250.937 108.164 239.006 140.17C231.986 159.012 230.034 180.694 216.723 195.642C199.399 215.106 169.986 215.717 144.124 214.909C118.261 214.1 88.8386 214.79 71.5934 234.323C60.7474 246.559 57.3655 263.952 58.243 280.34C60.5502 323.724 90.781 362.503 129.235 381.779C167.689 401.056 212.927 402.791 254.999 394.311C313.933 382.43 369.987 349.803 403.668 299.409C437.35 249.014 445.869 180.379 418.912 125.991Z" fill="#F5F5F5"/>
<path d="M460.561 459.89C460.561 460.038 365.155 460.147 247.496 460.147C129.836 460.147 34.4114 460.038 34.4114 459.89C34.4114 459.742 129.797 459.634 247.496 459.634C365.195 459.634 460.561 459.752 460.561 459.89Z" fill="#263238"/>
<path d="M354.122 24.7485H138.868V459.89H354.122V24.7485Z" fill="#F5F5F5"/>
<path d="M354.132 459.89C354.132 457.652 354.023 278.643 353.885 24.7485L354.132 24.9851H138.908L139.164 24.7288C139.164 192.802 139.164 345.958 139.105 459.87L138.908 459.683L354.171 459.87L138.908 460.067H138.72V459.87C138.72 345.958 138.72 192.802 138.651 24.7288V24.4724H354.368V24.7189C354.23 278.643 354.132 457.662 354.132 459.89Z" fill="#263238"/>
<path d="M338.868 39.9624H154.141V444.735H338.868V39.9624Z" fill="#455A64"/>
<g opacity="0.1">
<path opacity="0.1" d="M315.096 123.644C310.758 113.311 300.661 105.088 289.46 104.861C281.769 104.703 272.649 107.671 267.295 102.14C262.365 97.0419 264.83 88.3355 269.267 82.8041C272.047 79.3629 275.469 76.4444 277.875 72.737C280.28 69.0296 281.513 64.0996 279.442 60.1951C277.066 55.6398 271.298 54.2298 266.22 53.4903C253.116 51.6169 237.518 51.4098 224.808 56.2215C200.513 63.3503 181.907 90.4258 179.373 115.628C178.387 125.33 178.328 132.134 185.585 138.661C193.581 145.859 205.561 145.74 216.319 145.198L241.57 143.956C245.248 143.768 249.133 143.63 252.416 145.366C259.081 148.925 259.663 158.765 256.044 165.411C252.426 172.057 245.968 176.494 240.584 181.798C235.2 187.103 230.369 194.222 231.71 201.666C232.765 207.582 237.754 212.414 243.493 214.346C249.231 216.279 255.571 215.697 261.359 213.912C276.336 209.318 287.863 197.427 297.614 185.171C304.585 176.405 311.113 167.058 314.889 156.508C318.665 145.957 319.464 133.987 315.096 123.644Z" fill="white"/>
</g>
<path d="M205.384 99.1915C201.991 99.1944 198.663 98.2623 195.766 96.4974C192.868 94.7324 190.513 92.2031 188.959 89.1871C187.406 86.1712 186.713 82.7853 186.958 79.4015C187.203 76.0176 188.375 72.7667 190.347 70.0059C188.163 71.5628 186.345 73.5771 185.019 75.9083C183.693 78.2395 182.89 80.8318 182.668 83.5046C182.446 86.1775 182.808 88.8666 183.731 91.385C184.654 93.9034 186.114 96.1904 188.011 98.0869C189.907 99.9834 192.194 101.444 194.713 102.367C197.231 103.289 199.92 103.652 202.593 103.43C205.266 103.207 207.858 102.405 210.189 101.079C212.521 99.7525 214.535 97.9342 216.092 95.7503C212.971 97.9906 209.225 99.1942 205.384 99.1915Z" fill="white"/>
<path d="M211.99 104.585C211.732 104.825 211.443 105.031 211.132 105.196C210.32 105.699 209.465 106.132 208.578 106.488C205.624 107.673 202.428 108.13 199.261 107.819C196.088 107.495 193.042 106.402 190.387 104.634C189.585 104.109 188.829 103.515 188.129 102.859C187.858 102.64 187.622 102.381 187.429 102.09C187.488 102.011 188.543 103.076 190.584 104.329C193.223 105.973 196.203 106.991 199.297 107.306C202.39 107.62 205.515 107.222 208.431 106.143C210.659 105.324 211.911 104.516 211.99 104.585Z" fill="white"/>
<path d="M205.315 109.771C202.503 110.496 199.528 110.224 196.894 109.002C196.944 108.854 198.768 109.397 201.085 109.604C203.402 109.811 205.295 109.614 205.315 109.771Z" fill="white"/>
<path d="M258.943 444.42L194.203 444.696V239.785H258.943V444.42Z" fill="#263238"/>
<path d="M258.943 444.686L226.573 444.814V239.785H258.943V444.686Z" fill="#263238"/>
<path d="M224.463 219.641H201.598V239.785H224.463V219.641Z" fill="#263238"/>
<path d="M224.463 219.641H219.01V239.785H224.463V219.641Z" fill="#263238"/>
<path d="M188.799 239.785V238.612H260.846V239.785" fill="#263238"/>
<path d="M212.463 248.571H206.981V260.126H212.463V248.571Z" fill="#455A64"/>
<path d="M226.573 264.662C226.573 264.79 219.326 264.889 210.383 264.889C201.44 264.889 194.203 264.79 194.203 264.662C194.203 264.534 201.45 264.445 210.383 264.445C219.316 264.445 226.573 264.544 226.573 264.662Z" fill="#455A64"/>
<path d="M245.12 248.571H239.637V260.126H245.12V248.571Z" fill="#455A64"/>
<path d="M259.229 264.662C259.229 264.79 251.982 264.889 243.039 264.889C234.096 264.889 226.859 264.79 226.859 264.662C226.859 264.534 234.096 264.445 243.039 264.445C251.982 264.445 259.229 264.544 259.229 264.662Z" fill="#455A64"/>
<path d="M245.12 271.515H239.637V283.071H245.12V271.515Z" fill="#455A64"/>
<path d="M259.229 287.606C259.229 287.734 251.982 287.833 243.039 287.833C234.096 287.833 226.859 287.734 226.859 287.606C226.859 287.478 234.096 287.389 243.039 287.389C251.982 287.389 259.229 287.488 259.229 287.606Z" fill="#455A64"/>
<path d="M245.12 295.149H239.637V306.705H245.12V295.149Z" fill="#F5F5F5"/>
<path d="M259.229 311.241C259.229 311.369 251.982 311.467 243.039 311.467C234.096 311.467 226.859 311.369 226.859 311.241C226.859 311.112 234.096 311.024 243.039 311.024C251.982 311.024 259.229 311.122 259.229 311.241Z" fill="#455A64"/>
<path d="M245.12 318.793H239.637V330.349H245.12V318.793Z" fill="#455A64"/>
<path d="M259.229 334.885C259.229 335.003 251.982 335.102 243.039 335.102C234.096 335.102 226.859 335.003 226.859 334.885C226.859 334.767 234.096 334.658 243.039 334.658C251.982 334.658 259.229 334.757 259.229 334.885Z" fill="#455A64"/>
<path d="M245.12 341.748H239.637V353.303H245.12V341.748Z" fill="#455A64"/>
<path d="M259.229 357.839C259.229 357.967 251.982 358.066 243.039 358.066C234.096 358.066 226.859 357.967 226.859 357.839C226.859 357.711 234.096 357.622 243.039 357.622C251.982 357.622 259.229 357.721 259.229 357.839Z" fill="#455A64"/>
<path d="M245.12 364.8H239.637V376.356H245.12V364.8Z" fill="#455A64"/>
<path d="M245.12 388.158H239.637V399.714H245.12V388.158Z" fill="#455A64"/>
<path d="M259.229 380.892C259.229 381.02 251.982 381.119 243.039 381.119C234.096 381.119 226.859 381.02 226.859 380.892C226.859 380.764 234.096 380.675 243.039 380.675C251.982 380.675 259.229 380.773 259.229 380.892Z" fill="#455A64"/>
<path d="M245.12 410.038H239.637V421.594H245.12V410.038Z" fill="#455A64"/>
<path d="M245.129 444.755H239.647L239.637 433.386H245.12L245.129 444.755Z" fill="#455A64"/>
<path d="M259.229 426.129C259.229 426.248 251.982 426.346 243.039 426.346C234.096 426.346 226.859 426.248 226.859 426.129C226.859 426.011 234.096 425.903 243.039 425.903C251.982 425.903 259.229 426.001 259.229 426.129Z" fill="#455A64"/>
<path d="M259.229 405.828C259.229 405.946 251.982 406.044 243.039 406.044C234.096 406.044 226.859 405.946 226.859 405.828C226.859 405.709 234.096 405.611 243.039 405.611C251.982 405.611 259.229 405.709 259.229 405.828Z" fill="#455A64"/>
<path d="M212.463 271.87H206.981V283.426H212.463V271.87Z" fill="#F5F5F5"/>
<path d="M226.573 287.961C226.573 288.079 219.326 288.178 210.383 288.178C201.44 288.178 194.203 288.079 194.203 287.961C194.203 287.843 201.45 287.734 210.383 287.734C219.316 287.734 226.573 287.833 226.573 287.961Z" fill="#455A64"/>
<path d="M212.463 295.159H206.981V306.715H212.463V295.159Z" fill="#455A64"/>
<path d="M226.573 311.251C226.573 311.379 219.326 311.477 210.383 311.477C201.44 311.477 194.203 311.379 194.203 311.251C194.203 311.122 201.45 311.034 210.383 311.034C219.316 311.034 226.573 311.132 226.573 311.251Z" fill="#455A64"/>
<path d="M212.463 318.458H206.981V330.014H212.463V318.458Z" fill="#455A64"/>
<path d="M226.573 334.55C226.573 334.668 219.326 334.767 210.383 334.767C201.44 334.767 194.203 334.668 194.203 334.55C194.203 334.431 201.45 334.323 210.383 334.323C219.316 334.323 226.573 334.422 226.573 334.55Z" fill="#455A64"/>
<path d="M212.463 341.748H206.981V353.303H212.463V341.748Z" fill="#455A64"/>
<path d="M226.573 357.839C226.573 357.967 219.326 358.066 210.383 358.066C201.44 358.066 194.203 357.967 194.203 357.839C194.203 357.711 201.45 357.622 210.383 357.622C219.316 357.622 226.573 357.721 226.573 357.839Z" fill="#455A64"/>
<path d="M212.463 365.047H206.981V376.603H212.463V365.047Z" fill="#455A64"/>
<path d="M226.573 381.138C226.573 381.256 219.326 381.355 210.383 381.355C201.44 381.355 194.203 381.256 194.203 381.138C194.203 381.02 201.45 380.911 210.383 380.911C219.316 380.911 226.573 381.01 226.573 381.138Z" fill="#455A64"/>
<path d="M212.463 388.336H206.981V399.892H212.463V388.336Z" fill="#455A64"/>
<path d="M225.133 444.696H154.427L154.122 332.952H224.818L225.133 444.696Z" fill="#263238"/>
<path d="M224.818 332.952H189.47V444.696H224.818V332.952Z" fill="#263238"/>
<path d="M187.153 310.955H162.187V332.952H187.153V310.955Z" fill="#263238"/>
<path d="M226.888 331.671H154.398V332.952H226.888V331.671Z" fill="#263238"/>
<path d="M174.059 342.546H168.074V355.167H174.059V342.546Z" fill="#455A64"/>
<path d="M189.47 360.126C189.47 360.255 181.582 360.363 171.791 360.363C162 360.363 154.122 360.255 154.122 360.126C154.122 359.998 162.01 359.88 171.791 359.88C181.572 359.88 189.47 359.988 189.47 360.126Z" fill="#455A64"/>
<path d="M209.722 342.546H203.737V355.167H209.722V342.546Z" fill="#455A64"/>
<path d="M225.133 360.126C225.133 360.255 217.245 360.363 207.454 360.363C197.663 360.363 189.775 360.255 189.775 360.126C189.775 359.998 197.663 359.88 207.454 359.88C217.245 359.88 225.133 359.988 225.133 360.126Z" fill="#455A64"/>
<path d="M209.722 367.6H203.737V380.221H209.722V367.6Z" fill="#455A64"/>
<path d="M225.133 385.181C225.133 385.309 217.245 385.418 207.454 385.418C197.663 385.418 189.775 385.309 189.775 385.181C189.775 385.053 197.663 384.934 207.454 384.934C217.245 384.934 225.133 385.043 225.133 385.181Z" fill="#455A64"/>
<path d="M209.722 393.414H203.737V406.035H209.722V393.414Z" fill="#455A64"/>
<path d="M225.133 410.984C225.133 411.122 217.245 411.231 207.454 411.231C197.663 411.231 189.775 411.122 189.775 410.984C189.775 410.846 197.663 410.748 207.454 410.748C217.245 410.748 225.133 410.856 225.133 410.984Z" fill="#455A64"/>
<path d="M209.722 419.227H203.737V431.848H209.722V419.227Z" fill="#F5F5F5"/>
<path d="M225.133 436.798C225.133 436.926 217.245 437.035 207.454 437.035C197.663 437.035 189.775 436.926 189.775 436.798C189.775 436.67 197.663 436.561 207.454 436.561C217.245 436.561 225.133 436.66 225.133 436.798Z" fill="#455A64"/>
<path d="M174.059 367.985H168.074V380.606H174.059V367.985Z" fill="#F5F5F5"/>
<path d="M189.47 385.526C189.47 385.664 181.582 385.772 171.791 385.772C162 385.772 154.122 385.664 154.122 385.526C154.122 385.388 162.01 385.289 171.791 385.289C181.572 385.289 189.47 385.427 189.47 385.526Z" fill="#455A64"/>
<path d="M174.059 393.424H168.074V406.045H174.059V393.424Z" fill="#455A64"/>
<path d="M189.47 410.994C189.47 411.132 181.582 411.241 171.791 411.241C162 411.241 154.122 411.132 154.122 410.994C154.122 410.856 162.01 410.758 171.791 410.758C181.572 410.758 189.47 410.866 189.47 410.994Z" fill="#455A64"/>
<path d="M174.059 418.863H168.074V431.483H174.059V418.863Z" fill="#455A64"/>
<path d="M189.47 436.433C189.47 436.561 181.582 436.67 171.791 436.67C162 436.67 154.122 436.561 154.122 436.433C154.122 436.305 162.01 436.197 171.791 436.197C181.572 436.197 189.47 436.305 189.47 436.433Z" fill="#455A64"/>
<path d="M180.27 331.73C180.011 328.404 179.925 325.067 180.014 321.732C179.925 318.397 180.011 315.06 180.27 311.734C180.524 315.06 180.61 318.397 180.527 321.732C180.61 325.067 180.524 328.403 180.27 331.73Z" fill="#455A64"/>
<path d="M219.227 237.567C218.974 234.738 218.888 231.897 218.971 229.058C218.888 226.219 218.973 223.377 219.227 220.548C219.481 223.377 219.567 226.219 219.484 229.058C219.567 231.897 219.481 234.738 219.227 237.567Z" fill="#455A64"/>
<path d="M228.752 238.267C228.752 238.405 222.698 238.523 215.234 238.523C207.77 238.523 201.716 238.405 201.716 238.267C201.716 238.129 207.77 238.01 215.234 238.01C222.698 238.01 228.752 238.119 228.752 238.267Z" fill="#455A64"/>
<path d="M258.943 240.357C258.943 240.505 244.469 240.614 226.612 240.614C208.756 240.614 194.281 240.505 194.281 240.357C194.281 240.209 208.756 240.101 226.612 240.101C244.469 240.101 258.943 240.219 258.943 240.357Z" fill="#455A64"/>
<path d="M226.593 443.453C226.445 443.453 226.336 398.097 226.336 342.073C226.336 286.048 226.445 240.683 226.593 240.683C226.741 240.683 226.849 286.039 226.849 342.073C226.849 398.107 226.78 443.453 226.593 443.453Z" fill="#455A64"/>
<path d="M154.398 331.671C154.519 331.656 154.641 331.656 154.763 331.671H155.827L159.919 331.621L174.985 331.542L224.818 331.464H225.074V331.72C225.074 332.075 225.074 332.459 225.074 332.844C225.074 333.071 225.074 333.307 225.074 333.514V333.771H224.808L174.66 333.692L159.485 333.613L155.364 333.564H154.289H153.924H154.289H155.364H159.485L174.66 333.485L224.808 333.406L224.552 333.662V331.868L224.808 332.124L174.976 332.045L159.909 331.966L155.818 331.917H154.753L154.398 331.671Z" fill="#455A64"/>
<path d="M189.47 444.686C189.332 444.686 189.273 419.908 189.342 389.342C189.411 358.776 189.588 333.998 189.736 333.998C189.884 333.998 189.933 358.776 189.854 389.352C189.775 419.927 189.608 444.686 189.47 444.686Z" fill="#455A64"/>
<path d="M225.133 444.686C224.985 444.686 224.867 419.642 224.857 388.76C224.847 357.878 224.956 332.824 225.094 332.824C225.232 332.824 225.36 357.869 225.37 388.76C225.38 419.651 225.271 444.686 225.133 444.686Z" fill="#455A64"/>
<path d="M333.041 444.469L252.988 444.696V338.878H333.041V444.469Z" fill="#263238"/>
<path d="M295.514 338.878V444.469L333.041 444.696V338.878H295.514Z" fill="#263238"/>
<path d="M276.977 353.175H269.779V370.667H276.977V353.175Z" fill="#455A64"/>
<path d="M276.977 421.614H269.779V439.105H276.977V421.614Z" fill="#455A64"/>
<path d="M295.514 377.529C295.514 377.717 285.989 377.884 274.256 377.884C262.522 377.884 252.998 377.717 252.998 377.529C252.998 377.342 262.513 377.165 274.256 377.165C285.999 377.165 295.514 377.332 295.514 377.529Z" fill="#455A64"/>
<path d="M276.977 387.656H269.779V405.147H276.977V387.656Z" fill="#F5F5F5"/>
<path d="M295.514 412.01C295.514 412.197 285.989 412.365 274.256 412.365C262.522 412.365 252.998 412.197 252.998 412.01C252.998 411.823 262.513 411.645 274.256 411.645C285.999 411.645 295.514 411.813 295.514 412.01Z" fill="#455A64"/>
<path d="M310.679 353.175H303.481V370.667H310.679V353.175Z" fill="#F5F5F5"/>
<path d="M326.297 353.175H319.099V370.667H326.297V353.175Z" fill="#455A64"/>
<path d="M310.679 386.354H303.481V403.846H310.679V386.354Z" fill="#455A64"/>
<path d="M326.297 386.354H319.099V403.846H326.297V386.354Z" fill="#455A64"/>
<path d="M310.679 419.543H303.481V437.035H310.679V419.543Z" fill="#455A64"/>
<path d="M326.297 419.543H319.099V437.035H326.297V419.543Z" fill="#455A64"/>
<path d="M339.066 335.92H246.973V339.726H339.066V335.92Z" fill="#263238"/>
<path d="M339.066 339.726C339.057 339.648 339.057 339.568 339.066 339.49C339.066 339.312 339.066 339.085 339.066 338.78C339.066 338.139 339.066 337.202 339.066 335.92L339.135 335.989C328.358 336.098 291.185 336.177 247.052 336.177L247.308 335.92V339.707L247.052 339.45L312.217 339.559L331.937 339.637H337.291H338.691H339.184H338.73H337.36H332.065L312.454 339.716L247.092 339.825H246.835V335.782L247.092 335.526C291.225 335.526 328.397 335.605 339.174 335.713H339.184V335.782C339.184 337.084 339.184 338.03 339.184 338.681C339.184 338.977 339.184 339.204 339.184 339.371C339.157 339.494 339.118 339.613 339.066 339.726Z" fill="#455A64"/>
<path d="M295.514 444.686C295.366 444.686 295.258 421.288 295.258 392.428C295.258 363.568 295.366 340.17 295.514 340.17C295.662 340.17 295.77 363.558 295.77 392.428C295.77 421.298 295.652 444.686 295.514 444.686Z" fill="#455A64"/>
<path d="M252.998 443.532C252.85 443.532 252.732 420.558 252.732 392.26C252.732 363.962 252.85 340.988 252.998 340.988C253.146 340.988 253.254 363.952 253.254 392.26C253.254 420.568 253.136 443.532 252.998 443.532Z" fill="#455A64"/>
<path d="M228.841 136.719H228.683C228.611 136.751 228.547 136.8 228.496 136.86C228.445 136.921 228.409 136.993 228.39 137.07C228.371 137.147 228.37 137.227 228.386 137.305C228.403 137.382 228.437 137.455 228.486 137.517C228.542 137.577 228.612 137.623 228.689 137.649C228.767 137.675 228.85 137.682 228.931 137.668C229.012 137.654 229.088 137.62 229.153 137.569C229.217 137.518 229.268 137.452 229.3 137.376C229.333 137.301 229.346 137.218 229.338 137.137C229.331 137.055 229.303 136.976 229.257 136.908C229.211 136.84 229.149 136.784 229.077 136.746C229.004 136.707 228.923 136.688 228.841 136.689V136.719Z" fill="white"/>
<path d="M267.62 79.4023H267.452C267.376 79.4304 267.308 79.477 267.253 79.5379C267.199 79.5989 267.161 79.6723 267.142 79.7517C267.124 79.831 267.125 79.9137 267.146 79.9925C267.167 80.0713 267.207 80.1436 267.263 80.203C267.319 80.2624 267.388 80.307 267.466 80.3328C267.543 80.3587 267.626 80.365 267.706 80.3511C267.786 80.3372 267.862 80.3036 267.926 80.2533C267.99 80.2031 268.041 80.1376 268.074 80.063C268.094 79.9894 268.098 79.9122 268.086 79.8368C268.073 79.7614 268.044 79.6897 268.001 79.6268C267.958 79.5638 267.901 79.511 267.835 79.4723C267.77 79.4335 267.696 79.4096 267.62 79.4023Z" fill="white"/>
<path d="M321.081 116.92H320.913C320.837 116.948 320.768 116.994 320.714 117.055C320.66 117.116 320.622 117.19 320.603 117.269C320.584 117.348 320.586 117.431 320.607 117.51C320.628 117.589 320.668 117.661 320.724 117.72C320.78 117.78 320.849 117.824 320.927 117.85C321.004 117.876 321.087 117.882 321.167 117.868C321.247 117.855 321.323 117.821 321.387 117.771C321.451 117.72 321.502 117.655 321.535 117.58C321.555 117.507 321.559 117.43 321.547 117.354C321.534 117.279 321.505 117.207 321.462 117.144C321.419 117.081 321.362 117.028 321.296 116.99C321.231 116.951 321.157 116.927 321.081 116.92Z" fill="white"/>
<path d="M298.659 175.212H298.492C298.37 175.233 298.261 175.299 298.185 175.397C298.11 175.495 298.074 175.617 298.084 175.74C298.095 175.863 298.151 175.978 298.242 176.061C298.333 176.145 298.452 176.191 298.576 176.191C298.699 176.191 298.818 176.145 298.909 176.061C299 175.978 299.056 175.863 299.067 175.74C299.077 175.617 299.041 175.495 298.966 175.397C298.89 175.299 298.781 175.233 298.659 175.212Z" fill="white"/>
<path d="M321.249 243.719H321.081C321.004 243.748 320.936 243.794 320.882 243.855C320.828 243.916 320.79 243.989 320.771 244.069C320.752 244.148 320.753 244.231 320.774 244.31C320.795 244.388 320.836 244.461 320.891 244.52C320.947 244.579 321.017 244.624 321.094 244.65C321.172 244.676 321.254 244.682 321.334 244.668C321.415 244.654 321.49 244.621 321.555 244.57C321.619 244.52 321.67 244.455 321.702 244.38C321.723 244.307 321.727 244.229 321.714 244.154C321.702 244.079 321.673 244.007 321.63 243.944C321.586 243.881 321.53 243.828 321.464 243.789C321.398 243.751 321.325 243.727 321.249 243.719Z" fill="white"/>
<path d="M172.146 116.575H171.988C171.916 116.607 171.852 116.656 171.801 116.717C171.75 116.777 171.714 116.849 171.695 116.926C171.676 117.003 171.675 117.083 171.691 117.161C171.708 117.238 171.742 117.311 171.791 117.373C171.849 117.428 171.918 117.469 171.994 117.492C172.071 117.515 172.151 117.52 172.23 117.506C172.308 117.493 172.382 117.462 172.446 117.415C172.511 117.367 172.563 117.306 172.599 117.235C172.62 117.162 172.624 117.085 172.611 117.009C172.599 116.934 172.57 116.862 172.527 116.799C172.484 116.736 172.427 116.683 172.361 116.645C172.295 116.606 172.222 116.582 172.146 116.575Z" fill="white"/>
<path d="M319.267 63.5771H319.099C318.98 63.5981 318.873 63.6629 318.8 63.7588C318.726 63.8547 318.691 63.9746 318.702 64.095C318.712 64.2154 318.767 64.3275 318.857 64.4092C318.946 64.4908 319.062 64.5361 319.183 64.5361C319.304 64.5361 319.42 64.4908 319.509 64.4092C319.598 64.3275 319.654 64.2154 319.664 64.095C319.675 63.9746 319.64 63.8547 319.566 63.7588C319.493 63.6629 319.386 63.5981 319.267 63.5771Z" fill="white"/>
<path d="M290.712 257.09H290.554C290.435 257.109 290.327 257.173 290.252 257.269C290.178 257.365 290.142 257.485 290.152 257.606C290.162 257.727 290.217 257.839 290.306 257.922C290.395 258.004 290.512 258.049 290.633 258.049C290.755 258.049 290.871 258.004 290.961 257.922C291.05 257.839 291.105 257.727 291.115 257.606C291.125 257.485 291.089 257.365 291.014 257.269C290.94 257.173 290.832 257.109 290.712 257.09Z" fill="white"/>
<path d="M320.963 314.208H320.795C320.673 314.229 320.564 314.295 320.489 314.393C320.413 314.491 320.377 314.613 320.388 314.736C320.398 314.859 320.455 314.974 320.545 315.057C320.636 315.141 320.755 315.187 320.879 315.187C321.002 315.187 321.121 315.141 321.212 315.057C321.303 314.974 321.36 314.859 321.37 314.736C321.381 314.613 321.345 314.491 321.269 314.393C321.194 314.295 321.084 314.229 320.963 314.208Z" fill="white"/>
<path d="M180.625 292.132H180.458C180.381 292.16 180.313 292.206 180.259 292.267C180.205 292.328 180.166 292.402 180.148 292.481C180.129 292.56 180.13 292.643 180.151 292.722C180.172 292.801 180.212 292.873 180.268 292.932C180.324 292.992 180.394 293.036 180.471 293.062C180.548 293.088 180.631 293.094 180.711 293.081C180.792 293.067 180.867 293.033 180.931 292.983C180.995 292.933 181.046 292.867 181.079 292.792C181.099 292.719 181.104 292.642 181.091 292.566C181.078 292.491 181.05 292.419 181.006 292.356C180.963 292.293 180.907 292.241 180.841 292.202C180.775 292.163 180.701 292.139 180.625 292.132Z" fill="white"/>
<path d="M218.557 179.196H218.389C218.316 179.226 218.252 179.274 218.201 179.334C218.15 179.394 218.114 179.466 218.096 179.543C218.077 179.619 218.078 179.699 218.096 179.776C218.114 179.853 218.151 179.924 218.202 179.984C218.257 180.047 218.326 180.094 218.404 180.122C218.483 180.151 218.567 180.159 218.649 180.146C218.731 180.133 218.808 180.099 218.874 180.049C218.939 179.998 218.991 179.931 219.024 179.855C219.057 179.779 219.071 179.695 219.063 179.613C219.055 179.53 219.027 179.451 218.98 179.382C218.933 179.313 218.87 179.257 218.796 179.22C218.722 179.182 218.64 179.163 218.557 179.166V179.196Z" fill="white"/>
<path d="M311.034 152.682H310.866C310.789 152.71 310.721 152.757 310.667 152.817C310.613 152.878 310.575 152.952 310.556 153.031C310.537 153.111 310.538 153.193 310.559 153.272C310.58 153.351 310.621 153.423 310.676 153.483C310.732 153.542 310.802 153.587 310.879 153.612C310.957 153.638 311.039 153.645 311.119 153.631C311.2 153.617 311.275 153.583 311.34 153.533C311.404 153.483 311.455 153.417 311.487 153.343C311.508 153.269 311.512 153.192 311.499 153.116C311.487 153.041 311.458 152.969 311.415 152.906C311.371 152.843 311.315 152.791 311.249 152.752C311.183 152.713 311.11 152.689 311.034 152.682Z" fill="white"/>
<path d="M176.277 198.649H176.119C176.047 198.682 175.983 198.73 175.932 198.791C175.882 198.852 175.845 198.924 175.826 199.001C175.807 199.078 175.806 199.158 175.823 199.235C175.839 199.313 175.873 199.385 175.922 199.448C175.978 199.508 176.048 199.553 176.126 199.58C176.204 199.606 176.287 199.612 176.368 199.598C176.449 199.584 176.525 199.55 176.589 199.499C176.654 199.449 176.704 199.382 176.737 199.307C176.769 199.231 176.782 199.149 176.774 199.067C176.767 198.985 176.739 198.907 176.693 198.839C176.648 198.77 176.586 198.714 176.513 198.676C176.44 198.638 176.359 198.619 176.277 198.62V198.649Z" fill="white"/>
<path d="M246.046 218.961H245.879C245.807 218.994 245.744 219.044 245.695 219.105C245.645 219.166 245.61 219.238 245.592 219.315C245.574 219.392 245.573 219.472 245.591 219.549C245.608 219.626 245.642 219.698 245.691 219.76C245.751 219.812 245.821 219.85 245.897 219.872C245.974 219.893 246.054 219.896 246.132 219.882C246.21 219.868 246.283 219.836 246.347 219.789C246.411 219.742 246.463 219.682 246.5 219.612C246.521 219.539 246.525 219.462 246.512 219.387C246.5 219.312 246.471 219.241 246.427 219.179C246.384 219.117 246.327 219.065 246.261 219.027C246.196 218.989 246.122 218.967 246.046 218.961Z" fill="white"/>
<path d="M171.041 248.817L171.475 249.547C171.974 250.353 172.688 251.005 173.536 251.43L174.295 251.804L173.566 252.248C172.746 252.745 172.083 253.462 171.653 254.319L171.278 255.088L170.834 254.358C170.345 253.533 169.625 252.868 168.764 252.445L167.995 252.071L168.734 251.627C169.553 251.133 170.214 250.414 170.637 249.556L171.041 248.817Z" fill="white"/>
<path d="M187.024 146.381L187.468 147.121C187.962 147.944 188.685 148.606 189.549 149.024L190.308 149.408L189.578 149.842C188.758 150.342 188.095 151.063 187.665 151.923L187.291 152.682L186.847 151.952C186.353 151.133 185.634 150.473 184.776 150.049L184.007 149.665L184.737 149.221C185.563 148.732 186.227 148.012 186.65 147.15L187.024 146.381Z" fill="white"/>
<path d="M229.738 66.8606L230.182 67.6001C230.676 68.4191 231.395 69.0795 232.252 69.5031L233.021 69.8876L232.292 70.3215C231.469 70.8187 230.805 71.5405 230.379 72.4019L229.994 73.1611L229.561 72.4315C229.063 71.6092 228.341 70.9456 227.48 70.5187L226.721 70.144L227.45 69.7003C228.272 69.2066 228.936 68.4881 229.363 67.6297L229.738 66.8606Z" fill="white"/>
<path d="M288.691 204.881L289.125 205.611C289.622 206.433 290.344 207.096 291.205 207.523L291.964 207.898L291.235 208.342C290.413 208.835 289.749 209.554 289.322 210.412L288.947 211.181L288.504 210.442C288.009 209.623 287.291 208.963 286.433 208.539L285.664 208.154L286.394 207.721C287.216 207.223 287.88 206.502 288.306 205.64L288.691 204.881Z" fill="white"/>
<g opacity="0.3">
<path opacity="0.3" d="M254.043 190.613L254.23 190.929C254.447 191.295 254.765 191.59 255.147 191.777L255.482 191.944L255.157 192.132C254.796 192.351 254.505 192.669 254.319 193.049L254.151 193.384L253.954 193.059C253.736 192.7 253.422 192.41 253.047 192.22L252.712 192.053L253.027 191.865C253.389 191.644 253.683 191.327 253.875 190.949L254.043 190.613Z" fill="white"/>
</g>
<path d="M316.96 187.419L317.157 187.744C317.372 188.105 317.687 188.396 318.064 188.582L318.399 188.75L318.084 188.947C317.72 189.162 317.426 189.477 317.236 189.854L317.078 190.199L316.881 189.874C316.664 189.51 316.345 189.219 315.964 189.036L315.628 188.868L315.954 188.671C316.314 188.455 316.605 188.14 316.792 187.764L316.96 187.419Z" fill="white"/>
<path d="M256.814 156.527L257.001 156.853C257.226 157.209 257.542 157.499 257.918 157.691L258.253 157.858L257.938 158.046C257.574 158.265 257.28 158.583 257.09 158.963L256.922 159.298L256.735 158.973C256.515 158.612 256.197 158.321 255.818 158.135L255.482 157.967L255.808 157.78C256.167 157.557 256.457 157.24 256.646 156.863L256.814 156.527Z" fill="white"/>
<path d="M290.801 91.2148L290.998 91.5402C291.214 91.9009 291.529 92.1918 291.905 92.3783L292.241 92.5459L291.925 92.7431C291.561 92.9582 291.267 93.273 291.077 93.6503L290.919 93.9855L290.722 93.67C290.508 93.3041 290.189 93.0119 289.805 92.8319L289.47 92.6643L289.795 92.4671C290.159 92.2506 290.45 91.9316 290.633 91.5501L290.801 91.2148Z" fill="white"/>
<path d="M277.796 299.744L277.993 300.069C278.208 300.43 278.523 300.721 278.9 300.907L279.245 301.075L278.92 301.272C278.556 301.489 278.265 301.808 278.082 302.189L277.914 302.524L277.717 302.199C277.501 301.838 277.186 301.547 276.81 301.361L276.465 301.193L276.79 300.996C277.151 300.78 277.441 300.466 277.628 300.089L277.796 299.744Z" fill="white"/>
<path d="M190.367 205.591L190.554 205.916C190.779 206.273 191.096 206.562 191.471 206.754L191.807 206.922L191.491 207.119C191.127 207.334 190.833 207.649 190.643 208.026L190.475 208.362L190.298 208.046C190.082 207.68 189.763 207.385 189.381 207.198L189.046 207.03L189.371 206.843C189.732 206.623 190.023 206.305 190.209 205.926L190.367 205.591Z" fill="white"/>
<g opacity="0.3">
<path opacity="0.3" d="M279.137 122.55L279.501 123.151C279.903 123.827 280.492 124.372 281.197 124.719L281.828 125.035L281.227 125.399C280.553 125.804 280.009 126.392 279.659 127.095L279.344 127.726L278.989 127.125C278.583 126.449 277.991 125.904 277.283 125.557L276.652 125.242L277.253 124.887C277.932 124.484 278.477 123.891 278.821 123.181L279.137 122.55Z" fill="white"/>
</g>
<g opacity="0.3">
<path opacity="0.3" d="M308.933 280.418L309.288 281.02C309.699 281.692 310.29 282.235 310.994 282.587L311.625 282.903L311.024 283.258C310.348 283.664 309.803 284.256 309.456 284.964L309.141 285.595L308.786 284.993C308.383 284.315 307.789 283.77 307.08 283.426L306.449 283.11L307.05 282.755C307.73 282.337 308.275 281.731 308.618 281.01L308.933 280.418Z" fill="white"/>
</g>
<g opacity="0.1">
<path opacity="0.1" d="M299.882 247.101C292.891 249.142 287.518 251.588 282.4 256.754C277.283 261.921 274.335 269.75 276.484 276.691C278.772 283.869 286.344 288.651 293.828 288.898C304.299 289.233 314.376 281.01 316.102 270.637C317.827 260.264 313.706 245.908 299.882 247.101Z" fill="white"/>
</g>
<path d="M354.132 24.7485C354.23 24.8471 350.888 28.3375 346.678 32.5379C342.467 36.7382 338.957 40.0611 338.859 39.9625C338.76 39.8639 342.093 36.3734 346.313 32.1731C350.533 27.9727 354.023 24.6499 354.132 24.7485Z" fill="#263238"/>
<path d="M338.859 444.686C338.859 442.418 338.76 275.488 338.622 39.923L338.859 40.1596H154.171L154.427 39.9032C154.427 197.072 154.368 339.854 154.358 444.666L154.171 444.479L338.888 444.666L154.171 444.853H153.984V444.686C153.984 339.874 153.984 197.091 153.915 39.923V39.6567H154.201H338.888H339.135V39.9032C338.967 275.528 338.859 442.457 338.859 444.686Z" fill="#263238"/>
<path d="M154.141 39.9625C153.974 40.1597 150.454 36.8172 146.253 32.5971C144.153 30.4871 142.309 28.5446 140.949 27.1248C140.187 26.3922 139.488 25.5974 138.858 24.7485C139.699 25.3881 140.484 26.0973 141.205 26.8684C142.605 28.2291 144.518 30.1222 146.618 32.2421L151.952 37.675L153.56 39.3413L154.141 39.9625Z" fill="#263238"/>
<path d="M154.141 444.686C154.24 444.794 150.897 448.265 146.687 452.456C142.477 456.646 138.977 459.949 138.868 459.851C138.76 459.752 142.112 456.281 146.322 452.091C150.533 447.9 154.043 444.627 154.141 444.686Z" fill="#263238"/>
<path d="M354.132 459.89C351.381 457.585 348.748 455.144 346.244 452.574C342.014 448.423 338.661 444.982 338.76 444.883C338.859 444.784 342.369 448.058 346.648 452.209C350.927 456.36 354.23 459.791 354.132 459.89Z" fill="#263238"/>
<path d="M346.402 266.22C346.736 266.182 347.066 266.113 347.388 266.013C347.82 265.859 348.211 265.608 348.533 265.28C348.854 264.952 349.096 264.555 349.241 264.12C349.405 263.476 349.455 262.809 349.389 262.148C349.389 261.398 349.389 260.59 349.389 259.722C349.389 257.977 349.389 255.995 349.389 253.806C349.389 249.409 349.389 244.203 349.34 238.425C349.34 235.526 349.34 232.509 349.34 229.334V224.532C349.352 224.153 349.288 223.776 349.153 223.422C349.018 223.068 348.813 222.745 348.551 222.471C348.288 222.194 347.972 221.973 347.621 221.822C347.27 221.671 346.892 221.593 346.51 221.593C346.128 221.593 345.75 221.671 345.399 221.822C345.048 221.973 344.732 222.194 344.469 222.471C343.946 223.028 343.666 223.769 343.69 224.532C343.69 226.159 343.69 227.756 343.69 229.334C343.69 232.489 343.69 235.526 343.69 238.425C343.69 244.203 343.69 249.409 343.631 253.806C343.631 255.985 343.631 257.967 343.631 259.722C343.631 260.59 343.631 261.398 343.631 262.148C343.565 262.809 343.615 263.476 343.779 264.12C343.926 264.556 344.17 264.953 344.493 265.281C344.815 265.609 345.209 265.859 345.642 266.013C345.964 266.112 346.294 266.181 346.628 266.22C346.296 266.262 345.958 266.225 345.642 266.112C345.178 265.972 344.753 265.726 344.402 265.392C344.051 265.058 343.783 264.646 343.621 264.189C343.434 263.522 343.364 262.828 343.414 262.138C343.414 261.389 343.414 260.58 343.414 259.712C343.414 257.967 343.414 255.985 343.414 253.796C343.414 249.399 343.414 244.193 343.365 238.415C343.365 235.516 343.365 232.499 343.365 229.324V224.522C343.353 224.078 343.428 223.636 343.587 223.222C343.746 222.807 343.986 222.428 344.292 222.106C344.602 221.779 344.976 221.518 345.39 221.34C345.805 221.162 346.251 221.07 346.702 221.07C347.153 221.07 347.6 221.162 348.014 221.34C348.429 221.518 348.803 221.779 349.113 222.106C349.725 222.76 350.058 223.627 350.04 224.522C350.04 226.149 350.04 227.756 350.04 229.324C350.04 232.479 350.04 235.516 350.04 238.415C350.04 244.193 350.04 249.399 349.981 253.796C349.981 255.975 349.981 257.957 349.981 259.712C349.981 260.58 349.981 261.389 349.981 262.138C350.034 262.828 349.967 263.522 349.784 264.189C349.621 264.646 349.354 265.058 349.003 265.392C348.651 265.726 348.226 265.972 347.762 266.112C347.332 266.294 346.855 266.332 346.402 266.22Z" fill="#263238"/>
<path d="M346.49 179.679H152.968V181.355H346.49V179.679Z" fill="#F5F5F5"/>
<path d="M346.49 361.921H152.968V363.597H346.49V361.921Z" fill="#F5F5F5"/>
<path d="M246.342 32.4688L246.342 456.902H248.728L248.728 32.4688H246.342Z" fill="#F5F5F5"/>
<path d="M86.2552 447.851L87.2412 466.585L87.1032 473.951C87.044 476.741 89.3217 476.258 92.1121 476.307L126.188 476.968C126.188 476.968 127.864 473.576 125.37 472.462C122.875 471.348 104.023 460.462 104.023 460.462L104.753 442.833L86.2552 447.851Z" fill="#E0E0E0"/>
<path d="M94.587 476.149C94.518 476.149 94.4588 475.499 94.1531 474.503C93.7635 473.204 93.0898 472.008 92.1808 471.002C91.2718 469.996 90.1504 469.204 88.8978 468.685C87.9118 468.271 87.3004 468.143 87.3103 468.084C87.893 468.062 88.4731 468.173 89.0062 468.409C90.3439 468.874 91.5416 469.672 92.4868 470.726C93.4421 471.775 94.12 473.046 94.4588 474.424C94.6183 474.984 94.6619 475.571 94.587 476.149Z" fill="#263238"/>
<path d="M116.131 476.761C115.927 476.375 115.825 475.944 115.835 475.508C115.762 474.452 115.998 473.396 116.516 472.472C117.04 471.565 117.748 470.779 118.596 470.164C119.227 469.691 119.671 469.474 119.7 469.523C119.73 469.573 119.355 469.878 118.783 470.391C118.034 471.048 117.395 471.82 116.89 472.679C116.412 473.547 116.151 474.518 116.131 475.508C116.168 475.925 116.168 476.344 116.131 476.761Z" fill="#263238"/>
<path d="M121.337 428.309L110.008 443.246L105.147 448.778C103.303 450.878 105.354 451.973 107.454 453.816L133.09 476.317C133.09 476.317 136.561 474.808 135.378 472.373C134.195 469.938 126.819 449.429 126.819 449.429L138.75 436.443L121.337 428.309Z" fill="#E0E0E0"/>
<path d="M109.446 455.295C109.387 455.295 109.771 454.714 110.176 453.757C110.701 452.51 110.956 451.166 110.925 449.813C110.881 448.462 110.545 447.137 109.939 445.928C109.476 444.992 109.061 444.479 109.121 444.439C109.575 444.803 109.945 445.26 110.205 445.78C110.924 447.002 111.324 448.384 111.369 449.8C111.414 451.216 111.102 452.621 110.462 453.885C110.227 454.422 109.88 454.902 109.446 455.295Z" fill="#263238"/>
<path d="M125.488 469.671C125.589 469.248 125.792 468.855 126.08 468.528C126.705 467.674 127.565 467.019 128.555 466.644C129.541 466.296 130.587 466.152 131.631 466.22C132.063 466.199 132.495 466.277 132.893 466.447C132.477 466.521 132.053 466.544 131.631 466.516C130.624 466.535 129.626 466.712 128.673 467.039C127.752 467.398 126.93 467.973 126.277 468.715C125.804 469.336 125.557 469.711 125.488 469.671Z" fill="#263238"/>
<path d="M91.3825 106.094C86.6793 114.445 84.5594 124.049 83.9382 133.603C83.317 143.157 84.1058 152.751 84.9242 162.306C85.0721 164.031 85.3284 165.964 86.699 167.029C88.0695 168.093 90.0612 167.847 91.7867 167.541C94.0644 167.127 96.4801 166.644 98.1169 165.017C100.217 162.917 100.365 159.614 100.365 156.656C100.325 143.66 99.7372 130.688 98.6 117.738" fill="#263238"/>
<path d="M140.544 111.487L134.648 136.226L122.787 129.935L130.921 102.554L140.544 111.487Z" fill="#FFBE9D"/>
<path d="M152.721 83.2481C152.721 83.2481 149.073 79.3041 147.614 79.1069C146.155 78.9097 137.872 83.2481 137.872 83.2481L131.296 92.0136V108.569L140.554 111.527L144.104 107.356C144.104 107.356 152.465 102.919 152.721 101.854C152.851 99.3051 152.851 96.7513 152.721 94.2025C152.721 94.2025 150.069 92.97 149.606 96.1745L149.3 99.0832L144.104 100.572L145.78 93.8476C145.78 93.8476 152.83 91.56 152.83 90.1796C152.83 88.7992 150.858 87.4287 150.858 87.4287L152.83 83.9087" fill="#FFBE9D"/>
<path d="M71.978 272.6C71.978 272.6 62.9265 290.19 70.6173 329.147C75.4191 353.412 80.29 458.895 80.29 458.895L118.083 458.273C118.083 458.273 118.083 382.223 117.955 368.823C117.866 360.255 121.268 325.715 121.268 325.715L123.496 282.844L71.978 272.6Z" fill="#E07A5F"/>
<path d="M138.04 280.073C137.468 281.355 178.003 348.374 177.993 362.543C177.993 376.199 132.075 445.002 132.075 445.002L102.889 424.966L135.22 368.528L106.685 320.006L97.614 285.674L138.04 280.073Z" fill="#E07A5F"/>
<path d="M118.034 458.273C118.022 458.142 118.022 458.01 118.034 457.879V456.725C118.034 455.68 118.034 454.191 117.975 452.288C117.975 448.413 117.916 442.852 117.866 435.99C117.866 422.186 117.748 403.195 117.669 382.203C117.669 376.958 117.669 371.831 117.669 366.871C117.669 365.639 117.768 364.416 117.837 363.203C117.906 361.99 117.985 360.787 118.064 359.594C118.211 357.218 118.369 354.891 118.507 352.623C119.099 343.542 119.631 335.368 120.085 328.486C120.538 321.604 120.923 316.092 121.179 312.227C121.327 310.334 121.436 308.845 121.505 307.81C121.505 307.327 121.584 306.942 121.603 306.656C121.61 306.526 121.63 306.397 121.662 306.271V306.666V307.81C121.603 308.855 121.534 310.334 121.436 312.237C121.209 316.112 120.884 321.663 120.45 328.506C120.016 335.349 119.543 343.562 118.99 352.643C118.852 354.911 118.711 357.235 118.566 359.614C118.488 360.797 118.419 362 118.34 363.213C118.261 364.426 118.142 365.648 118.182 366.891C118.182 371.821 118.182 376.968 118.182 382.223C118.182 403.205 118.182 422.205 118.182 435.99C118.182 442.892 118.182 448.413 118.182 452.288C118.182 454.191 118.182 455.68 118.182 456.725C118.182 457.212 118.182 457.596 118.182 457.879C118.149 458.016 118.099 458.148 118.034 458.273Z" fill="#263238"/>
<path d="M151.775 366.378C150.896 366.401 150.017 366.372 149.142 366.289C147.037 366.215 144.929 366.324 142.842 366.614C140.755 366.916 138.697 367.391 136.689 368.034C135.873 368.358 135.036 368.628 134.185 368.843C134.926 368.357 135.728 367.973 136.571 367.699C138.571 366.935 140.652 366.399 142.773 366.102C144.889 365.806 147.032 365.746 149.162 365.924C150.049 365.959 150.928 366.112 151.775 366.378Z" fill="#263238"/>
<path d="M117.827 441.028C117.327 441.092 116.822 441.115 116.318 441.097H112.236C108.776 441.097 104.013 441.176 98.7479 441.353C93.4827 441.531 88.7104 441.768 85.2693 441.965L81.1872 442.201C80.6856 442.251 80.1803 442.251 79.6786 442.201C80.1684 442.09 80.6663 442.017 81.1675 441.984C82.1535 441.866 83.5142 441.728 85.2397 441.59C88.6808 441.294 93.4531 440.989 98.7282 440.811C104.003 440.634 108.776 440.643 112.236 440.712C113.962 440.712 115.362 440.801 116.328 440.851C116.832 440.862 117.334 440.922 117.827 441.028Z" fill="#263238"/>
<path d="M142.428 428.338C142.094 428.14 141.786 427.902 141.511 427.628L139.085 425.597C137.034 423.891 134.155 421.653 130.793 419.307C127.431 416.96 124.295 415.106 121.919 413.795L119.168 412.247C118.818 412.084 118.487 411.882 118.182 411.645C118.561 411.737 118.926 411.88 119.267 412.069C119.947 412.375 120.923 412.858 122.106 413.469C128.282 416.715 134.049 420.687 139.282 425.301C140.268 426.189 141.077 426.928 141.599 427.461C141.909 427.72 142.187 428.015 142.428 428.338Z" fill="#263238"/>
<path d="M81.2661 442.054C81.2557 441.929 81.2557 441.804 81.2661 441.679C81.2661 441.403 81.2661 441.028 81.2661 440.555C81.2661 439.569 81.1774 438.1 81.1083 436.256C80.99 432.499 80.8125 427.096 80.5858 420.48C80.1322 407.129 79.4124 388.691 78.3771 368.33C77.3418 347.969 76.1981 329.541 75.2909 316.21C74.8374 309.575 74.4726 304.181 74.2162 300.434C74.0979 298.591 73.9993 297.151 73.9303 296.135C73.9303 295.662 73.9303 295.297 73.8711 295.021C73.858 294.893 73.858 294.765 73.8711 294.637C73.8793 294.761 73.8793 294.887 73.8711 295.011L73.9894 296.126C74.0782 297.112 74.2063 298.581 74.3641 300.415C74.6895 304.142 75.1135 309.525 75.6065 316.191C76.5925 329.512 77.8052 347.94 78.8405 368.301C79.8758 388.662 80.497 407.07 80.852 420.431C81.0393 427.116 81.1576 432.519 81.2168 436.256C81.2168 438.1 81.2168 439.539 81.2661 440.555C81.2661 441.028 81.2661 441.393 81.2661 441.679C81.2746 441.804 81.2746 441.929 81.2661 442.054Z" fill="white"/>
<path d="M96.628 300.217C96.766 300.217 96.3618 331.681 95.711 370.48C95.0603 409.279 94.4292 440.742 94.2912 440.742C94.1531 440.742 94.5574 409.289 95.1983 370.48C95.8392 331.671 96.4801 300.217 96.628 300.217Z" fill="white"/>
<path d="M106.626 439.894C106.613 439.776 106.613 439.657 106.626 439.539C106.626 439.273 106.626 438.928 106.626 438.484C106.626 437.498 106.626 436.167 106.537 434.441C106.468 430.921 106.419 425.834 106.389 419.553C106.33 406.981 106.458 389.608 107.011 370.44C107.563 351.272 108.44 333.909 109.229 321.367C109.614 315.086 109.969 310.018 110.215 306.508C110.353 304.783 110.462 303.432 110.54 302.475C110.54 302.032 110.609 301.687 110.639 301.43C110.624 301.312 110.624 301.193 110.639 301.075C110.652 301.193 110.652 301.312 110.639 301.43C110.639 301.696 110.639 302.041 110.639 302.485C110.639 303.471 110.511 304.792 110.422 306.528C110.215 310.068 109.929 315.136 109.564 321.387C108.884 333.929 108.066 351.282 107.504 370.45C106.942 389.618 106.764 406.981 106.734 419.553C106.734 425.814 106.734 430.892 106.734 434.432V438.484C106.734 438.928 106.734 439.273 106.734 439.539C106.707 439.66 106.671 439.779 106.626 439.894Z" fill="white"/>
<path d="M142.832 366.555C142.747 366.351 142.678 366.14 142.625 365.924C142.487 365.451 142.319 364.84 142.112 364.08C141.649 362.414 141.018 360.136 140.239 357.297C138.622 351.578 136.295 343.72 133.337 335.161C130.379 326.603 127.421 318.951 125.104 313.469C123.98 310.767 123.053 308.539 122.392 306.981C122.086 306.252 121.85 305.66 121.653 305.206C121.559 305.007 121.486 304.799 121.436 304.585C121.557 304.77 121.663 304.965 121.751 305.167L122.57 306.892C123.28 308.401 124.266 310.6 125.439 313.321C127.795 318.784 130.852 326.415 133.82 335.013C136.788 343.611 139.095 351.479 140.613 357.218C141.373 360.097 141.964 362.424 142.329 364.051C142.507 364.82 142.645 365.441 142.753 365.914C142.802 366.125 142.828 366.339 142.832 366.555Z" fill="white"/>
<path d="M146.914 366.999C146.88 367.175 146.827 367.347 146.756 367.512C146.608 367.886 146.431 368.36 146.204 368.932C145.731 370.154 144.981 371.89 144.015 374.069C141.483 379.68 138.649 385.151 135.526 390.456C132.408 395.759 129.011 400.894 125.35 405.838C123.94 407.731 122.767 409.239 121.919 410.255L120.933 411.428C120.824 411.568 120.702 411.696 120.568 411.813C120.568 411.813 120.647 411.645 120.854 411.359L121.741 410.136C122.54 409.081 123.713 407.543 125.035 405.621C127.776 401.795 131.414 396.392 135.062 390.2C138.71 384.008 141.639 378.19 143.65 373.931C144.636 371.801 145.445 370.065 145.987 368.863L146.618 367.482C146.693 367.308 146.793 367.145 146.914 366.999Z" fill="white"/>
<path d="M132.124 419.908C132.18 419.8 132.246 419.697 132.321 419.602L132.952 418.744C133.534 417.975 134.362 416.881 135.407 415.481C137.537 412.631 140.653 408.579 144.232 403.294C148.476 397.198 152.128 390.71 155.137 383.919C158.411 376.248 160.974 367.157 160.866 357.504C160.834 355.123 160.636 352.748 160.274 350.395C160.087 349.241 159.811 348.107 159.594 346.973C159.377 345.84 158.983 344.745 158.697 343.651C157.398 339.466 155.725 335.407 153.698 331.523C149.833 324.088 145.632 317.719 142.339 312.335C139.673 308.088 137.25 303.693 135.082 299.172C134.293 297.575 133.81 296.283 133.445 295.415L133.041 294.429C132.989 294.323 132.949 294.21 132.923 294.094C132.995 294.19 133.051 294.296 133.09 294.41C133.199 294.656 133.347 294.972 133.534 295.396C133.928 296.244 134.441 297.526 135.269 299.103C137.511 303.585 139.986 307.945 142.684 312.168C146.007 317.571 150.237 323.862 154.151 331.326C156.201 335.23 157.894 339.313 159.209 343.522C159.505 344.627 159.9 345.721 160.117 346.875C160.333 348.028 160.619 349.162 160.807 350.336C161.177 352.714 161.378 355.116 161.408 357.524C161.351 366.706 159.373 375.774 155.601 384.146C152.559 390.954 148.861 397.45 144.557 403.54C140.939 408.766 137.774 412.828 135.605 415.638L133.11 418.813L132.439 419.642C132.345 419.742 132.239 419.832 132.124 419.908Z" fill="white"/>
<g opacity="0.3">
<path opacity="0.3" d="M67.8368 290.969C69.0299 295.366 73.5556 298.314 77.756 300.06C89.4079 304.854 102.085 306.614 114.603 305.177C120.519 304.487 126.524 303.027 131.513 299.744C133.692 298.304 135.693 296.53 138.129 295.613C140.564 294.696 143.719 294.932 145.287 297.013C145.623 296.224 145.708 295.35 145.532 294.511C145.356 293.672 144.926 292.907 144.301 292.319C143.729 291.817 141.264 291.057 139.746 290.298C138.001 289.43 135.427 288.326 135.427 288.326C134.491 289.839 133.446 291.282 132.301 292.645C129.481 295.34 126.071 297.342 122.343 298.492C111.073 302.209 98.738 301.746 87.1624 298.896C80.3689 297.21 73.6838 294.834 67.8664 291.008" fill="black"/>
</g>
<g opacity="0.3">
<path opacity="0.3" d="M120.982 314.534C124.492 328.604 127.805 343.187 128.959 357.642C125.754 351.726 122.777 347.693 119.572 341.777L120.982 314.534Z" fill="black"/>
</g>
<path d="M140.14 121.909L137.586 123.526C138.375 130.27 134.628 136.67 130.813 142.26C126.997 147.851 122.688 153.639 122.086 160.412C120.982 172.856 132.548 183.298 133.199 195.77C134.875 195.77 143.946 195.277 145.622 195.277C147.298 169.74 142.97 148.265 140.14 121.909Z" fill="#263238"/>
<path d="M88.9076 124.236C88.8024 129.033 89.7145 133.797 91.584 138.216C93.4534 142.635 96.2377 146.607 99.7536 149.872C101.357 145.198 102.971 140.522 104.595 135.841" fill="#263238"/>
<path d="M125.429 96.2831C121.159 94.146 116.281 93.5571 111.625 94.6168C106.997 95.6894 102.577 97.5147 98.5408 100.02C96.1679 101.259 94.0477 102.931 92.2896 104.95C89.2724 108.746 86.2848 114.988 85.9989 119.829C85.7623 123.773 87.261 133.554 88.9569 137.113C90.4753 140.377 97.5844 142.862 101.095 143.66L133.297 106.192C132.713 104.099 131.716 102.144 130.365 100.443C129.013 98.7407 127.335 97.3265 125.429 96.2831Z" fill="#263238"/>
<path d="M130.98 101.331L123.26 99.9509C127.48 110.008 128.624 132.982 131.039 143.611C133.889 139.49 140.495 126.908 140.14 121.919C139.785 116.93 140.15 100.483 130.98 101.331Z" fill="#263238"/>
<path d="M135.398 117.719C134.895 110.008 129.758 100.552 122.077 101.39L104.329 105.926C101.593 106.62 99.153 108.174 97.3672 110.359C95.5815 112.544 94.5447 115.245 94.4095 118.064C94.4095 118.359 94.4095 117.995 94.4095 118.221L98.3535 164.258L117.156 188.582L123.427 165.648C123.427 161.891 123.427 156.222 123.427 156.242C123.427 156.261 133.287 154.585 135.259 141.718C136.295 135.329 135.96 126.287 135.398 117.719Z" fill="#FFBE9D"/>
<path d="M133.356 126.691C133.359 127.121 133.196 127.534 132.899 127.845C132.603 128.156 132.198 128.34 131.769 128.358C131.559 128.375 131.347 128.35 131.146 128.284C130.946 128.218 130.76 128.113 130.601 127.974C130.442 127.835 130.313 127.666 130.22 127.476C130.128 127.286 130.074 127.08 130.063 126.869C130.06 126.439 130.224 126.026 130.52 125.715C130.816 125.404 131.222 125.22 131.651 125.202C131.861 125.186 132.072 125.212 132.272 125.279C132.472 125.345 132.657 125.451 132.816 125.589C132.974 125.728 133.104 125.897 133.197 126.086C133.29 126.275 133.344 126.481 133.356 126.691Z" fill="#263238"/>
<path d="M133.465 122.757C133.258 122.974 132.016 122.047 130.241 122.057C128.466 122.067 127.164 122.954 126.967 122.737C126.77 122.521 127.086 122.254 127.648 121.84C128.415 121.308 129.327 121.026 130.26 121.032C131.184 121.023 132.085 121.31 132.834 121.85C133.376 122.264 133.564 122.659 133.465 122.757Z" fill="#263238"/>
<path d="M117.719 127.273C117.724 127.703 117.561 128.118 117.264 128.43C116.968 128.741 116.561 128.924 116.131 128.939C115.921 128.957 115.71 128.932 115.51 128.867C115.31 128.802 115.126 128.697 114.967 128.559C114.808 128.421 114.678 128.253 114.585 128.064C114.492 127.876 114.438 127.67 114.425 127.46C114.422 127.031 114.586 126.617 114.882 126.306C115.178 125.996 115.584 125.812 116.013 125.794C116.222 125.778 116.433 125.803 116.632 125.869C116.831 125.935 117.016 126.04 117.174 126.177C117.333 126.315 117.463 126.483 117.556 126.671C117.65 126.859 117.705 127.063 117.719 127.273Z" fill="#263238"/>
<path d="M116.614 122.757C116.417 122.974 115.165 122.047 113.39 122.057C111.615 122.067 110.314 122.954 110.126 122.737C109.939 122.52 110.235 122.254 110.797 121.84C111.564 121.308 112.476 121.026 113.41 121.032C114.333 121.021 115.235 121.308 115.983 121.85C116.525 122.264 116.713 122.658 116.614 122.757Z" fill="#263238"/>
<path d="M122.165 136.689C123.099 136.395 124.067 136.219 125.045 136.167C125.498 136.167 125.922 136.029 126.031 135.713C126.067 135.245 125.961 134.778 125.725 134.372C125.301 133.278 124.847 132.134 124.374 130.921C122.51 125.991 121.15 121.988 121.347 121.909C121.544 121.83 123.23 125.755 125.094 130.665C125.547 131.868 125.981 133.021 126.385 134.126C126.677 134.673 126.761 135.306 126.622 135.91C126.558 136.07 126.458 136.213 126.33 136.327C126.202 136.442 126.049 136.525 125.883 136.571C125.632 136.642 125.374 136.678 125.114 136.679C124.135 136.806 123.145 136.809 122.165 136.689Z" fill="#263238"/>
<path d="M106.389 151.667C106.389 151.667 110.57 160.541 123.427 159.259V156.242C117.434 156.321 111.537 154.737 106.389 151.667Z" fill="#EB996E"/>
<path d="M116.062 116.348C115.885 116.831 114.09 116.605 112.039 116.861C109.988 117.117 108.273 117.689 107.997 117.255C107.868 117.048 108.164 116.595 108.835 116.121C109.726 115.547 110.739 115.186 111.793 115.066C112.858 114.937 113.94 115.062 114.948 115.431C115.747 115.737 116.131 116.112 116.062 116.348Z" fill="#263238"/>
<path d="M132.883 117.334C132.578 117.738 131.355 117.334 129.925 117.334C128.496 117.334 127.214 117.61 126.967 117.186C126.849 116.979 127.036 116.575 127.579 116.2C128.307 115.736 129.16 115.505 130.024 115.539C130.887 115.553 131.725 115.835 132.42 116.348C132.854 116.713 133.021 117.127 132.883 117.334Z" fill="#263238"/>
<path d="M131.907 105.975C131.453 105.031 130.745 104.232 129.862 103.668C128.979 103.103 127.956 102.796 126.908 102.781C124.811 102.777 122.758 103.376 120.992 104.506C113.331 108.933 109.397 119.622 101.834 124.226C99.9705 125.35 97.5548 124.325 95.9181 125.814C94.2813 127.302 93.315 129.689 94.1827 131.73C93.1061 130.351 92.2359 128.823 91.5994 127.194C91.2742 126.391 91.1253 125.527 91.1628 124.661C91.2002 123.795 91.4231 122.948 91.8163 122.175C92.4671 121.041 93.6207 120.203 93.9362 118.912C94.2517 117.62 93.7785 116.624 93.8278 115.47C93.9568 114.302 94.3587 113.181 95.0011 112.197C97.9591 106.951 102.041 102.209 107.297 99.2606C110.719 97.2701 114.618 96.2476 118.576 96.3026C122.55 96.4012 126.358 97.9152 129.314 100.572C131 102.15 132.785 103.777 131.907 105.916" fill="#263238"/>
<path d="M96.1448 127.381C96.0068 127.007 89.302 124.591 89.2428 131.72C89.1541 138.622 96.1448 137.281 96.1448 137.084C96.1448 136.886 96.1448 127.381 96.1448 127.381Z" fill="#FFBE9D"/>
<path d="M94.0151 134.431C94.0151 134.431 93.8967 134.52 93.6897 134.609C93.4018 134.725 93.0803 134.725 92.7924 134.609C92.345 134.324 91.9826 133.923 91.7432 133.449C91.5038 132.976 91.3962 132.447 91.4317 131.917C91.4224 131.323 91.5436 130.734 91.7867 130.192C91.8543 129.976 91.973 129.78 92.1326 129.621C92.2923 129.461 92.4882 129.342 92.7037 129.275C92.8437 129.241 92.991 129.257 93.1205 129.32C93.25 129.383 93.3536 129.489 93.4136 129.62C93.5023 129.807 93.4136 129.945 93.4925 129.965C93.5714 129.985 93.6404 129.847 93.5911 129.561C93.5541 129.39 93.4603 129.237 93.3249 129.127C93.1316 128.985 92.8932 128.918 92.6544 128.939C92.3696 128.995 92.1036 129.122 91.8811 129.308C91.6587 129.494 91.4871 129.734 91.3824 130.004C91.0856 130.601 90.9367 131.261 90.9486 131.927C90.9486 133.327 91.6782 134.638 92.684 134.934C92.8691 134.989 93.0639 135.002 93.2547 134.973C93.4455 134.944 93.6276 134.874 93.7883 134.767C94.0052 134.599 94.0446 134.451 94.0151 134.431Z" fill="#EB996E"/>
<path d="M93.2262 135.664C92.9726 135.611 92.709 135.631 92.4666 135.723C92.2241 135.815 92.0129 135.973 91.8577 136.181C91.7026 136.389 91.6099 136.636 91.5907 136.895C91.5714 137.153 91.6264 137.412 91.7491 137.64C91.8719 137.868 92.0572 138.057 92.2834 138.183C92.5096 138.31 92.7673 138.369 93.026 138.354C93.2848 138.339 93.5339 138.251 93.744 138.099C93.9541 137.947 94.1166 137.739 94.2122 137.498C94.3257 137.173 94.3173 136.818 94.1885 136.498C94.0598 136.179 93.8194 135.918 93.5122 135.762" fill="white"/>
<path d="M93.5516 135.762C93.8514 135.998 94.0689 136.322 94.1728 136.689C94.222 136.88 94.2234 137.079 94.177 137.27C94.1306 137.461 94.0377 137.637 93.9066 137.784C93.7441 137.955 93.5383 138.08 93.311 138.144C93.0836 138.208 92.8431 138.21 92.6149 138.149C92.3924 138.069 92.1964 137.929 92.0485 137.744C91.9006 137.56 91.8066 137.338 91.7768 137.103C91.7508 136.909 91.7742 136.712 91.8448 136.529C91.9155 136.346 92.0312 136.184 92.1811 136.058C92.4783 135.818 92.8447 135.68 93.2263 135.664C93.2263 135.664 93.1277 135.585 92.9009 135.585C92.59 135.586 92.2882 135.69 92.0431 135.881C91.8512 136.025 91.699 136.215 91.6007 136.434C91.5024 136.653 91.4612 136.894 91.481 137.133C91.5009 137.432 91.6104 137.717 91.7951 137.953C91.9798 138.188 92.2312 138.363 92.5165 138.453C92.8018 138.544 93.1077 138.546 93.3944 138.46C93.681 138.374 93.9351 138.204 94.1235 137.971C94.2814 137.79 94.3891 137.571 94.4358 137.336C94.4825 137.101 94.4666 136.857 94.3898 136.63C94.299 136.331 94.1117 136.071 93.8573 135.891C93.67 135.762 93.5615 135.743 93.5516 135.762Z" fill="#263238"/>
<path d="M95.1292 125.774C95.0208 127.667 94.932 129.669 95.8096 131.345C96.6871 133.021 98.8859 134.175 100.533 133.228C101.873 132.469 102.278 130.744 102.505 129.215C103.155 124.808 103.491 120.341 104.151 115.944L95.1292 125.774Z" fill="#263238"/>
<path d="M117.807 140.061C117.471 140.499 117.246 141.012 117.15 141.556C117.055 142.099 117.093 142.658 117.261 143.184C117.428 143.71 117.721 144.188 118.113 144.576C118.505 144.965 118.985 145.253 119.513 145.415C119.931 145.56 120.386 145.56 120.805 145.415C121.143 145.227 121.439 144.972 121.675 144.665C121.911 144.358 122.081 144.006 122.175 143.631C122.422 143.029 122.658 142.438 122.895 141.836C122.999 141.646 123.024 141.423 122.964 141.215C122.865 140.998 122.609 140.929 122.382 140.87L117.935 139.795" fill="#EB996E"/>
<path d="M120.706 145.218C120.038 145.308 119.357 145.22 118.734 144.962C117.985 144.724 117.351 144.214 116.959 143.532C116.732 143.11 116.639 142.628 116.693 142.152C116.722 141.662 116.839 141.181 117.038 140.732C117.243 140.298 117.527 139.907 117.876 139.578L117.995 139.47L118.143 139.519C121.101 140.554 123.388 141.087 123.358 141.205C121.513 141.086 119.698 140.684 117.975 140.012L118.231 139.953C117.937 140.234 117.699 140.568 117.531 140.939C117.343 141.298 117.234 141.693 117.21 142.097C117.186 142.502 117.249 142.907 117.393 143.286C117.721 143.879 118.243 144.342 118.872 144.597C119.937 145.06 120.726 145.12 120.706 145.218Z" fill="#263238"/>
<path d="M96.8547 126.119L95.6715 126.632C95.5363 126.697 95.3941 126.747 95.2476 126.78C95.3717 126.692 95.5037 126.616 95.642 126.553L96.7956 125.991C97.7816 125.488 99.2606 124.798 101.006 123.832C103.059 122.735 104.984 121.412 106.744 119.888C107.763 118.97 108.673 117.937 109.456 116.812C110.284 115.648 111.053 114.376 111.95 113.124C113.656 110.789 115.643 108.673 117.866 106.823C118.827 106.012 119.834 105.258 120.884 104.565C121.814 103.973 122.805 103.484 123.842 103.106C125.333 102.533 126.93 102.285 128.525 102.377C128.957 102.397 129.386 102.456 129.807 102.554C129.954 102.582 130.099 102.621 130.241 102.672C130.241 102.672 129.629 102.554 128.515 102.524C126.947 102.499 125.388 102.784 123.93 103.363C122.924 103.753 121.963 104.249 121.061 104.842C120.031 105.535 119.044 106.289 118.103 107.099C115.927 108.943 113.98 111.042 112.305 113.351C111.428 114.583 110.649 115.855 109.801 117.029C109.003 118.178 108.069 119.228 107.02 120.154" fill="#455A64"/>
<path d="M92.398 161.418L83.9677 169.129L78.9785 215.579L63.8237 288.297C68.7537 292.615 88.03 302.012 107.336 301.036C131.453 299.813 135.397 288.297 135.397 288.297C140.327 290.21 144.843 292.241 144.843 292.241C144.843 292.241 135.309 210.136 134.49 197.506C133.633 184.362 124.374 168.843 124.374 168.843L124.039 163.834L122.648 167.778L117.906 164.051L95.3856 153.816L92.398 161.418Z" fill="#E07A5F"/>
<path d="M92.398 161.418C92.398 161.418 82.3507 165.076 75.0149 172.55C70.706 176.938 51.6664 235.743 51.0058 240.377C49.9113 248.078 58.2627 262.463 71.7118 260.275C85.1608 258.086 121.613 247.378 121.613 247.378L112.039 214.79L82.3901 227.608L97.8605 191.393C97.8605 191.393 104.565 163.913 92.398 161.418Z" fill="#E07A5F"/>
<path d="M93.5911 201.262C93.5911 201.262 93.5911 201.42 93.4235 201.726C93.2559 202.031 93.108 202.485 92.8713 203.067L90.712 208.253C88.7893 212.799 86.0088 219.385 82.5085 227.648L82.3014 227.431L111.881 214.613L112.108 214.514L112.177 214.751L121.781 247.289L121.85 247.535L121.613 247.604C112.296 250.316 102.347 253.126 92.0332 255.828C87.8427 256.922 83.6818 257.967 79.5603 258.904C77.4996 259.387 75.4487 259.831 73.3978 260.205L71.8695 260.482C71.3469 260.57 70.8244 260.59 70.3018 260.639C69.2658 260.743 68.222 260.743 67.186 260.639C65.1369 260.411 63.1513 259.789 61.339 258.805C60.4461 258.326 59.5893 257.782 58.7754 257.178C57.9952 256.551 57.2574 255.872 56.5668 255.147C53.8714 252.318 51.9761 248.823 51.0748 245.021C50.6087 243.18 50.575 241.257 50.9762 239.401C51.4199 237.616 51.9622 235.891 52.4552 234.185C53.4412 230.773 54.5455 227.48 55.5709 224.325C57.6317 217.965 59.6234 212.069 61.4869 206.695C65.1943 195.958 68.3889 187.32 70.7455 181.424C71.9385 178.466 72.9344 176.218 73.7035 174.729C74.0782 173.98 74.4134 173.428 74.6895 173.063C74.9656 172.698 75.0937 172.55 75.0937 172.55C75.0937 172.55 74.9754 172.747 74.7289 173.092C74.4824 173.437 74.2063 174.019 73.8415 174.769C73.1217 176.277 72.1555 178.545 70.992 181.503C68.665 187.419 65.5493 196.066 61.8912 206.814C60.0671 212.197 58.0951 218.093 56.0541 224.453C55.0681 227.638 53.9933 230.931 52.9679 234.313C52.465 236.019 51.9819 237.744 51.5086 239.509C51.1274 241.295 51.1646 243.144 51.6171 244.913C52.5229 248.62 54.3939 252.022 57.0401 254.773C57.712 255.481 58.4336 256.14 59.1994 256.745C59.9865 257.338 60.8208 257.865 61.694 258.322C63.4463 259.278 65.3692 259.881 67.3536 260.097C68.36 260.201 69.3743 260.201 70.3806 260.097C70.8835 260.048 71.3666 260.028 71.8991 259.949L73.4274 259.663C75.4684 259.288 77.5094 258.845 79.5603 258.372C83.6752 257.425 87.8296 256.396 92.0234 255.285C102.317 252.594 112.266 249.793 121.603 247.082L121.436 247.397C118.014 235.703 114.79 224.719 111.901 214.8L112.197 214.938L82.4197 227.766L82.045 227.934L82.2028 227.559L90.5345 208.224C91.5205 205.985 92.2699 204.28 92.7826 203.067L93.3742 201.746C93.5122 201.41 93.5911 201.262 93.5911 201.262Z" fill="#263238"/>
<path d="M82.3507 227.579C81.6909 227.914 81.009 228.204 80.3096 228.447C78.6972 229.143 77.2493 230.171 76.06 231.464C74.9099 232.794 74.0561 234.353 73.5555 236.039C73.387 236.757 73.1762 237.465 72.9245 238.159C72.893 237.408 72.9897 236.658 73.2105 235.94C73.6258 234.156 74.4721 232.5 75.6755 231.119C76.9152 229.77 78.4605 228.739 80.1815 228.111C80.8708 227.817 81.6035 227.637 82.3507 227.579Z" fill="#263238"/>
<path d="M129.689 207.228C129.57 206.716 129.498 206.194 129.472 205.67C129.373 204.684 129.205 203.205 128.969 201.41C128.515 197.821 127.707 192.891 126.642 187.478C125.577 182.065 124.502 177.165 123.753 173.674C123.408 171.958 123.112 170.548 122.895 169.464C122.774 168.951 122.692 168.431 122.648 167.906C122.839 168.399 122.987 168.907 123.092 169.424C123.349 170.499 123.694 171.899 124.078 173.595C124.916 177.115 126.05 181.996 127.115 187.399C128.18 192.803 128.939 197.782 129.304 201.391C129.491 203.195 129.6 204.664 129.639 205.68C129.704 206.193 129.72 206.711 129.689 207.228Z" fill="#263238"/>
<path d="M135.397 288.296C135.353 288.083 135.333 287.864 135.338 287.646C135.338 287.163 135.338 286.541 135.25 285.772C135.19 284.076 135.112 281.74 135.013 278.87C134.806 273.043 134.471 264.997 133.978 256.123C133.485 247.249 132.893 239.213 132.42 233.445C132.193 230.586 131.996 228.249 131.858 226.543C131.799 225.774 131.749 225.153 131.72 224.67C131.696 224.45 131.696 224.229 131.72 224.009C131.783 224.221 131.822 224.439 131.838 224.66L132.075 226.524C132.272 228.141 132.528 230.468 132.804 233.426C133.366 239.233 134.007 247.23 134.51 256.153C135.013 265.076 135.279 273.092 135.388 278.92C135.447 281.828 135.476 284.195 135.476 285.822C135.476 286.591 135.476 287.222 135.476 287.705C135.469 287.904 135.443 288.102 135.397 288.296Z" fill="#263238"/>
<path d="M144.843 292.28C144.618 292.223 144.398 292.15 144.183 292.063L142.299 291.363C140.673 290.712 138.267 289.825 135.328 288.405L135.545 288.326C134.58 290.395 133.204 292.246 131.503 293.769C129.453 295.585 127.096 297.021 124.542 298.009C123.141 298.553 121.696 298.975 120.223 299.271L117.935 299.783C117.156 299.931 116.368 300.05 115.569 300.188C112.262 300.727 108.921 301.03 105.571 301.095C99.7927 301.188 94.0238 300.595 88.385 299.33C83.7816 298.3 79.2951 296.803 74.9951 294.863C73.1513 294.055 71.554 293.177 70.1539 292.428C68.7538 291.678 67.6001 290.89 66.6437 290.298L64.5337 288.898L63.9914 288.494C63.8731 288.405 63.8139 288.356 63.8238 288.346L64.0209 288.454L64.5928 288.809L66.7522 290.219C67.7382 290.781 68.8918 291.501 70.2919 292.26C71.692 293.019 73.2499 293.838 75.143 294.617C79.4334 296.506 83.9027 297.959 88.4836 298.955C94.091 300.183 99.8215 300.759 105.561 300.671C108.887 300.608 112.205 300.311 115.49 299.783C116.289 299.645 117.068 299.537 117.837 299.389L120.105 298.886C121.561 298.606 122.99 298.197 124.374 297.664C126.9 296.712 129.237 295.32 131.276 293.552C132.961 292.085 134.33 290.29 135.299 288.277L135.368 288.129L135.526 288.198C138.415 289.608 140.811 290.545 142.428 291.245L144.281 292.033C144.477 292.096 144.665 292.179 144.843 292.28Z" fill="#263238"/>
<path d="M112.404 267.788C112.141 268.073 111.851 268.33 111.536 268.557C110.955 269.03 110.087 269.661 108.973 270.401C103.121 274.221 96.4411 276.588 89.4894 277.303C88.4446 277.415 87.3948 277.475 86.344 277.48C85.9576 277.526 85.567 277.526 85.1805 277.48C85.1805 277.391 86.8272 277.342 89.4499 276.997C96.2986 276.095 102.882 273.767 108.776 270.164C110.994 268.715 112.305 267.719 112.404 267.788Z" fill="#263238"/>
<path d="M110.777 249.951C110.54 249.611 110.344 249.244 110.195 248.857C109.85 248.127 109.387 247.072 108.825 245.751C107.72 243.118 106.301 239.43 104.96 235.27C103.619 231.109 102.593 227.293 102.002 224.512C101.676 223.122 101.43 221.988 101.292 221.199C101.185 220.797 101.125 220.383 101.114 219.967C101.279 220.347 101.401 220.743 101.479 221.15C101.716 222.028 102.002 223.122 102.347 224.424C103.086 227.184 104.151 230.971 105.492 235.112C106.833 239.253 108.194 243 109.219 245.623L110.432 248.778C110.581 249.158 110.697 249.551 110.777 249.951Z" fill="#263238"/>
<path d="M121.702 169.799C121.26 169.452 120.845 169.073 120.46 168.665L117.166 165.392L117.472 165.293C117.117 168.251 116.663 172.037 116.161 176.307V176.691L115.835 176.494L111.27 173.733C105.896 170.47 101.055 167.492 97.5548 165.323L93.384 162.69L92.2699 161.96C92.1373 161.884 92.0147 161.791 91.905 161.684C91.905 161.684 92.0628 161.734 92.329 161.872L93.4826 162.522L97.6929 164.978C101.242 167.078 106.113 170.006 111.497 173.26L116.052 176.031L115.677 176.218C116.24 171.958 116.742 168.162 117.127 165.224V164.849L117.383 165.116L120.558 168.498C120.975 168.899 121.358 169.334 121.702 169.799Z" fill="#263238"/>
<path d="M95.4842 163.597C95.744 162.262 96.1679 160.963 96.7463 159.732C97.1687 158.437 97.7552 157.201 98.4915 156.054C98.2317 157.39 97.8078 158.688 97.2294 159.919C96.7978 161.211 96.2118 162.446 95.4842 163.597Z" fill="white"/>
<path d="M104.033 157.553C104.161 157.642 102.899 159.417 101.686 161.793C100.473 164.169 99.7141 166.21 99.5958 166.161C99.8515 164.538 100.406 162.976 101.233 161.556C101.904 160.057 102.855 158.698 104.033 157.553Z" fill="white"/>
<path d="M109.219 160.462C108.798 162.096 108.216 163.684 107.484 165.204C106.907 166.787 106.17 168.307 105.285 169.74C105.7 168.105 106.278 166.516 107.011 164.997C107.584 163.411 108.324 161.891 109.219 160.462Z" fill="white"/>
<path d="M114.376 162.808C114.076 164.629 113.607 166.418 112.976 168.152C112.513 169.941 111.879 171.681 111.083 173.349C111.383 171.528 111.852 169.739 112.483 168.005C112.961 166.221 113.595 164.482 114.376 162.808Z" fill="white"/>
<path d="M53.6778 249.951C53.6778 249.951 53.6778 249.882 53.5693 249.724C53.4754 249.495 53.3931 249.262 53.3228 249.024C53.0332 248.116 52.8544 247.175 52.7904 246.224C52.7073 244.715 52.8367 243.201 53.1749 241.728C53.5595 240.002 54.1609 238.109 54.7624 235.979C57.2373 227.51 60.9545 215.895 65.7662 203.303C68.1621 197.013 70.5778 191.067 72.9147 185.713C74.903 180.905 77.5584 176.401 80.8027 172.333C83.0096 169.63 85.7014 167.363 88.74 165.648C89.8505 165.003 91.036 164.496 92.2698 164.139L92.0431 164.258L91.3627 164.544C90.4954 164.918 89.6523 165.346 88.8386 165.825C85.8514 167.578 83.2058 169.856 81.0294 172.55C77.8673 176.619 75.2826 181.105 73.3485 185.881C71.0413 191.284 68.6354 197.2 66.2394 203.491C61.4475 216.062 57.6711 227.648 55.1075 236.088C54.4863 238.198 53.8651 240.101 53.451 241.797C53.0959 243.241 52.94 244.727 52.9876 246.214C53.0691 247.483 53.3008 248.737 53.6778 249.951Z" fill="white"/>
<path d="M105.571 240.584C105.475 240.656 105.369 240.713 105.255 240.752L104.269 241.195C103.441 241.59 102.209 242.181 100.611 242.822C97.4069 244.183 92.7234 246.047 86.8074 247.94C83.8494 248.926 80.566 249.843 77.0263 250.74C75.2515 251.184 73.4077 251.627 71.5047 252.032C70.5303 252.268 69.5425 252.446 68.5467 252.564C67.5026 252.716 66.4375 252.614 65.4408 252.268C64.3972 251.871 63.5534 251.077 63.0941 250.06C62.6703 249.04 62.4913 247.936 62.5715 246.835C62.7902 244.632 63.2396 242.457 63.9125 240.347C65.0563 236.029 66.3183 231.572 67.6987 227.037C70.4595 217.955 73.4077 209.397 76.5136 201.785C79.2268 195.022 82.3144 188.416 85.7623 181.996C88.0997 177.677 90.6635 173.483 93.4432 169.434C94.4292 168.024 95.2772 166.95 95.8195 166.21L96.4505 165.382C96.5885 165.195 96.6674 165.106 96.6773 165.116C96.6242 165.22 96.5614 165.319 96.4899 165.412L95.8983 166.269C95.3659 167.048 94.5968 168.143 93.6108 169.553C91.7276 172.511 88.9668 176.672 86.0778 182.174C82.6829 188.602 79.6351 195.208 76.9474 201.963C73.95 209.555 70.992 218.103 68.2509 227.175C66.8902 231.7 65.6183 236.157 64.4745 240.476C63.792 242.544 63.3326 244.679 63.104 246.845C63.0236 247.871 63.1858 248.901 63.5773 249.853C63.9787 250.758 64.7235 251.468 65.6479 251.825C66.5794 252.141 67.5713 252.239 68.5467 252.11C69.5156 251.992 70.4769 251.817 71.4258 251.588C73.3288 251.194 75.1726 250.76 76.9376 250.326C80.5167 249.458 83.81 248.472 86.768 247.585C92.684 245.741 97.3872 243.927 100.572 242.655L104.269 241.126L105.255 240.722C105.355 240.664 105.461 240.618 105.571 240.584Z" fill="white"/>
<path d="M75.9219 229.886C75.9409 229.659 75.9805 229.435 76.0403 229.216C76.1586 228.723 76.3163 228.091 76.5037 227.303C76.691 226.514 76.9868 225.469 77.3221 224.345C77.6573 223.221 78.0517 221.85 78.5348 220.401C81.0578 212.845 83.9838 205.429 87.3004 198.186C91.1458 189.707 95.001 182.203 97.959 176.869C99.4282 174.187 100.68 172.057 101.558 170.598L102.544 168.922C102.652 168.719 102.784 168.53 102.938 168.36C102.854 168.575 102.752 168.783 102.633 168.981L101.647 170.696C100.828 172.185 99.6747 174.345 98.2055 177.036C95.4053 182.41 91.6092 189.933 87.7539 198.403C83.8987 206.873 80.8519 214.711 78.8799 220.48C78.3771 221.919 77.8939 223.231 77.5981 224.424C77.3023 225.617 76.9079 226.573 76.691 227.382L76.1487 229.265C76.093 229.479 76.0171 229.687 75.9219 229.886Z" fill="white"/>
<path d="M101.913 226.327C101.604 226.533 101.273 226.704 100.927 226.839C100.256 227.135 99.2902 227.549 98.0774 228.032C95.6617 229.018 92.2896 230.271 88.5033 231.503C84.7171 232.736 81.2562 233.702 78.7321 234.343C77.4601 234.658 76.4347 234.895 75.7741 235.043C75.4081 235.149 75.0308 235.212 74.65 235.23C74.9917 235.062 75.3526 234.936 75.7248 234.856L78.6828 233.988C81.1773 233.268 84.5988 232.243 88.3949 231.03C92.191 229.817 95.5532 228.604 97.9985 227.717L100.897 226.672C101.22 226.514 101.561 226.398 101.913 226.327Z" fill="white"/>
<path d="M90.5246 223.398C90.1644 221.423 89.9796 219.42 89.9725 217.413C89.7956 215.412 89.7956 213.399 89.9725 211.398C90.3218 213.375 90.5064 215.377 90.5246 217.383C90.6897 219.385 90.6897 221.397 90.5246 223.398Z" fill="white"/>
<path d="M98.7578 220.026C98.6197 220.026 98.1464 213.311 97.7126 205.009C97.2787 196.707 97.0322 189.963 97.1703 189.963C97.3083 189.963 97.7816 196.678 98.2253 204.98C98.669 213.282 98.9057 220.016 98.7578 220.026Z" fill="white"/>
<path d="M108.213 212.68C108.093 212.128 108.013 211.568 107.977 211.004C107.849 209.92 107.701 208.352 107.543 206.409C107.208 202.534 106.853 197.161 106.498 191.225C106.143 185.289 105.837 180.004 105.601 176.041C105.492 174.157 105.394 172.609 105.325 171.436C105.277 170.872 105.277 170.304 105.325 169.74C105.443 170.292 105.522 170.853 105.561 171.416C105.689 172.501 105.837 174.069 106.005 176.011C106.33 179.896 106.695 185.27 107.05 191.195C107.405 197.121 107.711 202.416 107.937 206.39C108.056 208.263 108.144 209.811 108.213 210.984C108.261 211.549 108.261 212.116 108.213 212.68Z" fill="white"/>
<path d="M125.804 288.297C125.791 288.202 125.791 288.106 125.804 288.011V287.153C125.804 286.374 125.725 285.279 125.666 283.889C125.547 281.01 125.38 276.908 125.183 271.85C124.749 261.694 124.019 247.664 122.905 232.193C121.791 216.723 120.43 202.731 119.306 192.625C118.744 187.577 118.261 183.485 117.906 180.665C117.738 179.284 117.61 178.2 117.511 177.411C117.511 177.066 117.452 176.79 117.423 176.563C117.414 176.468 117.414 176.372 117.423 176.277C117.455 176.37 117.478 176.466 117.492 176.563C117.492 176.78 117.571 177.056 117.63 177.401C117.738 178.18 117.906 179.265 118.113 180.635C118.527 183.455 119.099 187.537 119.671 192.586C120.893 202.682 122.303 216.674 123.418 232.154C124.532 247.634 125.212 261.675 125.547 271.84C125.735 276.918 125.823 281.04 125.873 283.879C125.873 285.27 125.873 286.374 125.873 287.153V288.011C125.865 288.109 125.842 288.206 125.804 288.297Z" fill="white"/>
<path d="M108.568 269.888C108.36 266.77 108.323 263.643 108.46 260.521C108.424 257.397 108.563 254.273 108.874 251.164C109.077 254.282 109.11 257.409 108.973 260.531C109.008 263.655 108.873 266.779 108.568 269.888Z" fill="white"/>
<path d="M104.723 292.615C104.691 291.627 104.741 290.638 104.871 289.657C105.019 287.853 105.206 285.358 105.354 282.607C105.502 279.856 105.591 277.342 105.65 275.538C105.62 274.549 105.676 273.559 105.818 272.58C105.979 273.557 106.042 274.548 106.005 275.538C106.005 277.352 106.005 279.866 105.867 282.637C105.729 285.408 105.472 287.902 105.236 289.697C105.161 290.684 104.989 291.662 104.723 292.615Z" fill="white"/>
<path d="M90.2091 276.198C90.1523 275.212 90.1787 274.222 90.288 273.24C90.4063 271.426 90.6035 268.922 90.85 266.161C91.0965 263.4 91.3529 260.905 91.5599 259.101C91.6202 258.12 91.7687 257.147 92.0036 256.192C92.0604 257.179 92.034 258.168 91.9248 259.15C91.8064 260.965 91.6092 263.469 91.3627 266.23C91.1162 268.991 90.8599 271.485 90.6528 273.29C90.5914 274.27 90.4429 275.244 90.2091 276.198Z" fill="white"/>
<path d="M85.782 290.505C85.6903 288.497 85.7728 286.485 86.0285 284.491C86.1186 282.481 86.3758 280.482 86.7976 278.515C86.8826 280.524 86.7968 282.536 86.5412 284.53C86.4579 286.54 86.2039 288.539 85.782 290.505Z" fill="white"/>
<path d="M73.3386 284.382C73.2908 284.055 73.2908 283.723 73.3386 283.396C73.3386 282.765 73.4471 281.858 73.5556 280.744C73.7725 278.506 74.1373 275.42 74.6106 272.028C75.0839 268.636 75.5966 265.559 75.991 263.351C76.1981 262.247 76.3755 261.379 76.5037 260.738C76.5449 260.398 76.6345 260.066 76.7699 259.752C76.7884 260.082 76.7652 260.413 76.7009 260.738C76.6023 261.468 76.484 262.345 76.3558 263.371C76.0206 265.727 75.5867 268.734 75.1135 272.057C74.6402 275.38 74.2458 278.387 73.9204 280.744L73.5359 283.377C73.5149 283.719 73.4486 284.057 73.3386 284.382Z" fill="white"/>
<path d="M140.722 282.726C140.722 282.726 140.722 282.647 140.673 282.469C140.623 282.292 140.613 282.016 140.564 281.71L140.239 278.752L139.085 267.906C138.099 258.756 136.729 246.214 135.23 232.272C133.731 218.33 132.173 205.798 131.118 196.648C130.596 192.122 130.132 188.444 129.856 185.851C129.718 184.609 129.61 183.633 129.541 182.893C129.541 182.578 129.482 182.321 129.462 182.124C129.449 182.036 129.449 181.946 129.462 181.858L129.521 182.114C129.521 182.321 129.59 182.568 129.639 182.873C129.738 183.583 129.876 184.569 130.053 185.831C130.398 188.415 130.882 192.083 131.483 196.608C132.647 205.709 134.185 218.3 135.733 232.213C137.281 246.125 138.572 258.736 139.45 267.877L140.436 278.723C140.535 279.975 140.613 280.961 140.673 281.681C140.673 281.996 140.673 282.243 140.722 282.45C140.737 282.541 140.737 282.634 140.722 282.726Z" fill="white"/>
<g opacity="0.3">
<path opacity="0.3" d="M124.453 245.632C123.358 239.825 121.889 233.406 117.018 230.063L120.302 243.867C120.651 244.883 120.651 245.987 120.302 247.003C119.73 248.255 118.251 248.778 116.93 249.162C101.373 253.801 85.5729 257.583 69.6017 260.491C78.4757 264.81 89.3217 263.262 98.8464 260.61C105.998 258.638 113.068 256.4 120.055 253.895C121.534 253.363 123.112 252.751 123.999 251.46C125.143 249.803 124.818 247.595 124.453 245.632Z" fill="black"/>
</g>
<g opacity="0.3">
<path opacity="0.3" d="M94.0644 201.607C89.4396 209.742 85.4477 218.22 82.1239 226.967H82.8634C87.7934 225.824 91.7374 221.554 93.4136 216.743C95.0898 211.931 94.9419 206.646 94.0644 201.607Z" fill="black"/>
</g>
<path d="M144.193 285.003C143.414 284.247 142.463 283.692 141.422 283.386C140.204 283.041 138.927 282.96 137.675 283.15C136.018 283.443 134.42 284.002 132.942 284.806C129.119 287.039 125.087 288.895 120.903 290.347C115.74 292.043 110.354 292.966 104.92 293.088C99.4848 293.228 94.0563 292.614 88.7893 291.264C84.5042 290.131 80.3575 288.527 76.4248 286.482C73.7947 285.072 71.2879 283.442 68.9312 281.611L67.048 280.024C66.8245 279.852 66.6136 279.664 66.4169 279.462C66.6609 279.607 66.8948 279.768 67.117 279.945L69.089 281.424C71.4836 283.176 74.0048 284.748 76.6319 286.127C80.5578 288.114 84.6868 289.671 88.947 290.771C94.1723 292.089 99.553 292.686 104.94 292.546C110.316 292.425 115.646 291.528 120.765 289.884C124.932 288.467 128.953 286.654 132.775 284.471C134.295 283.668 135.937 283.122 137.636 282.854C138.927 282.682 140.239 282.796 141.481 283.189C142.265 283.431 142.991 283.834 143.611 284.372C143.833 284.554 144.029 284.767 144.193 285.003Z" fill="#263238"/>
<g opacity="0.3">
<path opacity="0.3" d="M117.334 165.431L115.885 176.277L92.2206 161.803C99.0447 170.624 107.819 177.745 117.857 182.607L119.247 170.253L123.004 173.566C121.837 170.416 119.886 167.616 117.334 165.431Z" fill="black"/>
</g>
<path d="M145.731 199.547L137.222 205.364V212.384C139.509 210.856 140.801 209.042 143.138 207.514C143.956 206.961 144.755 205.285 145.336 204.486C146.51 202.761 146.145 201.144 145.731 199.547Z" fill="#FFBE9D"/>
<path d="M151.844 224.976C150.016 224.961 148.211 224.569 146.541 223.824C144.872 223.079 143.374 221.998 142.142 220.647C140.932 219.275 140.079 217.626 139.658 215.847C139.237 214.067 139.26 212.211 139.726 210.442C140.234 208.685 141.233 207.109 142.606 205.9C143.979 204.692 145.669 203.9 147.476 203.619L148.61 207.257C148.61 207.257 142.97 210.018 144.045 214.948C145.119 219.878 152.13 220.401 152.13 220.401L151.844 224.976Z" fill="#E07A5F"/>
<path d="M147.299 202.485L149.931 228.476H171.564L174.502 202.505L147.299 202.485Z" fill="#E07A5F"/>
<path d="M146.727 216.279C145.455 216.171 144.163 215.944 144.084 215.5L143.936 214.613C143.936 214.613 148.511 214.031 148.807 212.996C148.893 212.314 148.849 211.621 148.679 210.955C148.593 210.492 148.415 210.05 148.155 209.657C147.895 209.265 147.559 208.928 147.166 208.669C146.772 208.409 146.331 208.231 145.868 208.146C145.404 208.061 144.928 208.071 144.469 208.174H144.41C143.434 208.407 142.447 208.585 141.452 208.707L137.764 207.671L137.32 205.315L127.736 211.655L114.198 220.864L117.738 232.548L125.054 228.456C125.054 228.456 140.988 229.334 142.023 228.752C143.059 228.17 143.64 225.508 143.64 225.508C143.64 225.508 148.511 223.29 147.92 221.564C148.248 221.185 148.545 220.779 148.807 220.351C149.046 219.96 149.181 219.514 149.199 219.055C149.216 218.597 149.116 218.141 148.907 217.733C148.698 217.324 148.388 216.976 148.006 216.722C147.625 216.467 147.184 216.315 146.727 216.279Z" fill="#FFBE9D"/>
<path d="M165.401 216.506C165.288 215.683 165.262 214.85 165.323 214.021C165.323 212.493 165.431 210.373 165.451 208.046C165.492 206.962 165.439 205.877 165.293 204.802C165.192 203.955 164.76 203.182 164.09 202.653C163.634 202.302 163.066 202.13 162.493 202.17C162.089 202.17 161.881 202.337 161.852 202.298C161.822 202.258 162.01 202.091 162.453 201.972C162.771 201.91 163.097 201.912 163.414 201.978C163.731 202.044 164.031 202.173 164.297 202.357C164.686 202.631 165.016 202.981 165.267 203.386C165.518 203.791 165.684 204.243 165.756 204.713C165.938 205.814 166.007 206.931 165.964 208.046C165.964 210.393 165.796 212.513 165.687 214.041C165.679 214.87 165.583 215.697 165.401 216.506Z" fill="#263238"/>
<path d="M168.241 215.638L163.252 215.609L161.852 218.419V224.443H169.069L169.326 218.419L168.241 215.638Z" fill="#E0E0E0"/>
<path d="M158.45 171.485C158.557 171.501 158.658 171.542 158.746 171.603C159.015 171.758 159.25 171.966 159.436 172.215C159.754 172.693 159.961 173.235 160.043 173.803C160.125 174.371 160.079 174.95 159.909 175.498C159.584 176.908 158.549 178.298 158.026 180.004C157.734 180.875 157.755 181.82 158.085 182.676C158.556 183.568 159.143 184.394 159.831 185.131C160.595 185.937 161.059 186.982 161.142 188.089C161.099 189.109 160.756 190.094 160.156 190.919C159.091 192.487 157.849 193.601 157.306 194.863C157.077 195.342 156.958 195.866 156.958 196.396C156.958 196.927 157.077 197.451 157.306 197.93C157.504 198.269 157.757 198.572 158.056 198.827C158.056 198.827 157.947 198.827 157.76 198.699C157.507 198.519 157.293 198.292 157.129 198.028C156.851 197.526 156.696 196.965 156.675 196.391C156.655 195.817 156.77 195.246 157.011 194.725C157.543 193.355 158.805 192.171 159.791 190.683C160.316 189.925 160.611 189.031 160.639 188.109C160.545 187.127 160.121 186.206 159.436 185.496C158.707 184.726 158.096 183.852 157.622 182.903C157.254 181.954 157.237 180.905 157.573 179.945C158.174 178.121 159.209 176.79 159.545 175.469C159.72 174.967 159.785 174.433 159.736 173.904C159.687 173.375 159.524 172.863 159.259 172.402C159.038 172.056 158.766 171.747 158.45 171.485Z" fill="#263238"/>
<path d="M164.908 171.485C165.015 171.501 165.116 171.542 165.204 171.603C165.474 171.758 165.709 171.966 165.894 172.215C166.207 172.695 166.411 173.237 166.493 173.804C166.575 174.371 166.532 174.949 166.368 175.498C166.033 176.908 165.007 178.298 164.485 180.004C164.189 180.873 164.207 181.818 164.534 182.676C165.008 183.568 165.598 184.394 166.289 185.131C167.054 185.937 167.517 186.982 167.6 188.089C167.558 189.109 167.215 190.094 166.614 190.919C165.549 192.487 164.297 193.601 163.765 194.863C163.538 195.343 163.421 195.866 163.421 196.396C163.421 196.927 163.538 197.45 163.765 197.93C163.964 198.271 164.221 198.574 164.524 198.827C164.524 198.827 164.406 198.827 164.228 198.699C163.973 198.522 163.758 198.294 163.597 198.028C163.32 197.526 163.164 196.965 163.142 196.392C163.12 195.818 163.232 195.248 163.469 194.725C164.001 193.355 165.273 192.171 166.249 190.683C166.774 189.923 167.071 189.031 167.107 188.109C167.009 187.126 166.582 186.205 165.894 185.496C165.172 184.721 164.561 183.848 164.08 182.903C163.733 181.948 163.733 180.9 164.08 179.945C164.672 178.121 165.717 176.79 166.052 175.469C166.223 174.966 166.285 174.433 166.236 173.905C166.187 173.376 166.027 172.864 165.766 172.402C165.531 172.053 165.242 171.743 164.908 171.485Z" fill="#263238"/>
<path d="M164.83 222.264C165.368 222.318 165.909 222.182 166.358 221.88C166.8 221.522 167.084 221.005 167.147 220.44C167.213 219.735 167.062 219.026 166.713 218.409L166.555 218.133L166.9 218.222C166.282 218.54 165.706 218.934 165.185 219.395C164.78 219.756 164.492 220.23 164.356 220.756C164.271 221.255 164.332 221.769 164.534 222.235C164.534 222.235 164.366 222.165 164.218 221.909C164.022 221.537 163.949 221.112 164.011 220.696C164.11 220.076 164.403 219.502 164.849 219.06C165.386 218.548 165.994 218.116 166.654 217.778L166.871 217.65L166.999 217.867L167.166 218.172C167.568 218.885 167.724 219.709 167.61 220.519C167.561 220.854 167.442 221.175 167.26 221.46C167.078 221.746 166.838 221.989 166.555 222.175C166.175 222.42 165.721 222.521 165.273 222.461C164.958 222.402 164.82 222.294 164.83 222.264Z" fill="#263238"/>
<path d="M166.476 219.878C166.575 219.987 165.934 220.706 165.323 221.712C164.711 222.718 164.337 223.605 164.189 223.566C164.165 222.797 164.409 222.045 164.879 221.436C165.54 220.342 166.387 219.74 166.476 219.878Z" fill="#263238"/>
<path d="M134.382 195.297C134.402 193.684 134.29 192.071 134.047 190.476C133.583 187.518 132.075 183.662 130.103 179.521C128.131 175.38 126.454 171.633 125.242 168.833C124.67 167.531 124.197 166.437 123.822 165.569C123.624 165.181 123.471 164.77 123.368 164.347C123.618 164.705 123.829 165.088 123.999 165.49C124.413 166.329 124.985 167.403 125.567 168.685C126.869 171.387 128.643 175.143 130.566 179.304C132.489 183.465 134.007 187.399 134.382 190.426C134.562 191.607 134.619 192.803 134.55 193.996C134.546 194.435 134.49 194.872 134.382 195.297Z" fill="#263238"/>
<path d="M435.556 426.11C435.84 427.863 436.392 429.562 437.193 431.148C438.326 433.031 438.573 436.936 438.455 439.46C438.336 441.984 438.198 448.896 439.204 450.917C440.21 452.939 443.276 456.833 444.134 459.851C444.992 462.868 445.268 467.029 444.134 469.711C443 472.392 441.984 476.258 440.19 476.889C438.395 477.52 433.012 476.889 433.012 476.889C433.012 476.889 433.012 475.005 433.771 474.374C434.53 473.743 437.173 472.481 437.419 470.43C437.666 468.379 438.05 465.017 438.05 465.017C438.05 465.017 431.631 462.375 428.358 459.219C425.084 456.064 420.933 451.617 420.933 451.617C420.247 454.178 419.36 456.68 418.281 459.101C417.862 459.919 417.644 460.825 417.644 461.744C417.644 462.663 417.862 463.568 418.281 464.386C418.666 465.264 413.874 470.519 408.589 474.463C403.304 478.407 398.896 475.972 398.896 475.972C398.896 475.972 398.137 472.698 399.527 472.028C400.874 471.636 402.283 471.508 403.678 471.653C403.678 471.653 410.225 466.861 409.466 463.341C408.707 459.821 406.449 455.788 406.193 453.136C405.936 450.484 405.818 449.241 405.818 449.241C401.76 449.788 397.667 450.039 393.572 449.991C390.978 449.902 388.407 449.481 385.92 448.738C385.92 448.738 383.781 461.832 385.171 463.716C386.561 465.599 390.959 469.129 391.343 471.525C391.728 473.921 391.087 477.372 388.316 477.096C385.546 476.82 385.674 475.124 385.802 472.905C384.075 471.22 382.473 469.411 381.01 467.492C380.133 465.983 375.351 452.761 375.351 452.761C375.351 452.761 367.916 467.117 367.67 469.632C367.575 470.529 367.275 471.393 366.795 472.157C366.315 472.92 365.666 473.564 364.899 474.039C364.396 474.167 363.262 478.368 361.497 478.368C359.468 478.222 357.45 477.955 355.453 477.569C355.453 477.569 355.581 474.798 357.425 473.921C359.269 473.043 361.961 472.659 361.961 468.991C361.961 465.323 364.1 450.977 363.933 450.474C363.765 449.971 359.91 442.793 359.279 440.278C358.648 437.764 357.307 431.966 357.307 431.966C357.307 431.966 354.783 424.078 352.771 422.018C350.76 419.957 347.841 420.046 345.721 419.75C343.601 419.454 343.473 418.616 342.822 417.236C342.172 415.855 340.703 412.828 341.442 412.454C342.182 412.079 346.096 410.432 346.599 409.683C347.102 408.934 347.486 407.287 349.123 406.656C350.76 406.025 354.783 403.382 356.804 403.382C358.825 403.382 362.72 406.912 363.597 407.662C365.309 409.271 366.907 410.997 368.38 412.828C369.77 414.593 370.776 419.375 375.942 419.503C381.109 419.632 425.548 420.637 427.687 419.375C429.827 418.113 432.617 419.503 433.485 409.298C434.353 399.093 434.866 392.428 433.732 390.791C432.598 389.154 433.732 388.819 431.592 388.405C429.452 387.991 426.81 387.518 426.051 386.009C425.291 384.5 425.804 382.262 427.816 382.262C429.827 382.262 439.145 382.262 440.634 394.567C442.123 406.873 438.119 414.593 437.242 419.375C436.364 424.157 435.112 424.138 435.556 426.11Z" fill="#263238"/>
<path d="M402.189 448.521C403.183 448.546 404.177 448.45 405.147 448.235C406.196 447.962 407.23 447.633 408.243 447.249C409.507 446.753 410.835 446.438 412.187 446.313C413.576 446.261 414.955 446.556 416.2 447.17C417.209 447.654 418.139 448.285 418.961 449.044C419.519 449.539 420.027 450.087 420.48 450.681C420.805 451.095 420.953 451.351 420.923 451.371C420.894 451.391 420.144 450.493 418.725 449.31C417.896 448.623 416.981 448.046 416.003 447.594C414.821 447.039 413.522 446.775 412.217 446.825C410.902 446.947 409.609 447.242 408.372 447.703C407.351 448.079 406.307 448.388 405.246 448.63C404.511 448.786 403.756 448.829 403.008 448.758C402.723 448.729 402.446 448.649 402.189 448.521Z" fill="#455A64"/>
<path d="M362.266 409.022C361.641 405.728 360.556 402.538 359.042 399.547C358.865 399.202 358.638 398.827 358.253 398.768C357.681 398.699 357.346 399.379 357.208 399.941C356.836 401.408 356.605 402.907 356.518 404.418" fill="#263238"/>
<path d="M354.28 404.516C353.931 403.195 353.233 401.993 352.258 401.036C351.992 400.779 351.627 400.513 351.272 400.661C350.918 400.809 350.858 401.213 350.819 401.568C350.673 403.21 350.7 404.862 350.898 406.498" fill="#263238"/>
<path d="M342.142 415.352C342.82 415.027 343.349 414.456 343.621 413.755C343.774 413.042 343.647 412.297 343.266 411.675C343.266 411.675 341.501 412.207 341.373 412.72C341.245 413.232 342.142 415.352 342.142 415.352Z" fill="#455A64"/>
<path d="M357.198 404.082C357.138 403.571 357.172 403.053 357.297 402.554C357.386 402.002 357.474 401.46 357.553 400.907C357.573 400.726 357.623 400.55 357.701 400.385C357.731 400.319 357.773 400.26 357.825 400.211C357.878 400.162 357.939 400.124 358.007 400.099C358.089 400.071 358.177 400.066 358.262 400.083C358.346 400.101 358.425 400.14 358.49 400.197C358.63 400.36 358.731 400.552 358.786 400.76L358.963 401.272C359.349 402.453 359.581 403.68 359.653 404.92C359.708 405.31 359.663 405.706 359.525 406.074C359.397 406.34 359.239 406.419 359.22 406.39C359.2 406.36 359.279 406.252 359.338 406.015C359.382 405.663 359.365 405.306 359.289 404.96C359.117 403.762 358.843 402.581 358.47 401.43L358.303 400.927C358.267 400.802 358.214 400.683 358.145 400.572C358.08 400.709 358.036 400.856 358.017 401.006L357.662 402.613C357.585 403.124 357.429 403.62 357.198 404.082Z" fill="#455A64"/>
<path d="M348.797 406.833C349.649 406.165 350.596 405.63 351.608 405.246C352.551 404.696 353.576 404.3 354.645 404.073C353.797 404.758 352.849 405.31 351.834 405.709C350.888 406.242 349.863 406.621 348.797 406.833Z" fill="#455A64"/>
<path d="M363.588 439.647C363.877 440.594 364.26 441.509 364.731 442.379C366.024 444.385 367.699 446.118 369.661 447.476C370.805 448.235 372.097 448.758 373.073 449.567C373.952 450.26 374.671 451.134 375.183 452.13C375.523 452.792 375.797 453.486 376.001 454.201C376.096 454.454 376.152 454.72 376.169 454.99C376.07 454.99 375.765 453.905 374.867 452.308C374.338 451.389 373.63 450.584 372.787 449.941C371.85 449.202 370.598 448.699 369.375 447.91C367.362 446.505 365.68 444.678 364.445 442.556C364.091 441.9 363.836 441.196 363.686 440.466C363.596 440.203 363.562 439.924 363.588 439.647Z" fill="#455A64"/>
<path d="M361.418 437.064C361.576 437.064 361.586 438.543 362.168 440.229C362.749 441.915 363.617 443.098 363.499 443.187C362.603 442.478 361.966 441.494 361.685 440.387C361.242 439.337 361.148 438.172 361.418 437.064Z" fill="#455A64"/>
<path d="M352.988 409.89C352.99 410.064 352.94 410.234 352.845 410.38C352.75 410.526 352.613 410.64 352.453 410.708C352.293 410.776 352.116 410.794 351.945 410.762C351.775 410.729 351.617 410.646 351.494 410.524C351.37 410.401 351.285 410.245 351.251 410.075C351.216 409.904 351.233 409.727 351.299 409.566C351.365 409.405 351.477 409.268 351.622 409.171C351.766 409.074 351.937 409.022 352.11 409.022C352.342 409.022 352.563 409.113 352.728 409.276C352.892 409.438 352.985 409.659 352.988 409.89Z" fill="#455A64"/>
<path d="M354.073 410.176C353.964 410.294 353.215 409.456 351.992 409.505C351.507 409.565 351.064 409.813 350.76 410.196C350.464 410.482 350.277 410.679 350.217 410.639C350.158 410.6 350.217 410.344 350.474 409.969C350.616 409.74 350.796 409.537 351.006 409.367C351.279 409.127 351.629 408.994 351.992 408.993C352.604 408.968 353.203 409.176 353.668 409.574C353.974 409.831 354.122 410.077 354.073 410.176Z" fill="#455A64"/>
</svg>
